<svg width="17" height="16" viewBox="0 0 17 16" fill="none" xmlns="http://www.w3.org/2000/svg">
<path d="M9.83333 2H3.83333C3.09695 2 2.5 2.59695 2.5 3.33333C2.5 4.06971 3.09695 4.66667 3.83333 4.66667H12.5C12.5 4.04669 12.5 3.73669 12.4319 3.48236C12.2469 2.79218 11.7078 2.25308 11.0177 2.06815C10.7633 2 10.4533 2 9.83333 2Z" stroke="#141B34" stroke-width="1.5" stroke-linecap="round" stroke-linejoin="round"/>
<path d="M8.5 13.9997H10.5C12.3856 13.9997 13.3284 13.9997 13.9142 13.4139C14.5 12.8281 14.5 11.8853 14.5 9.99967V8.66634C14.5 6.78074 14.5 5.83791 13.9142 5.25213C13.3284 4.66634 12.3856 4.66634 10.5 4.66634H5.16667M2.5 7.99967V3.33301" stroke="#141B34" stroke-width="1.5" stroke-linecap="round" stroke-linejoin="round"/>
<path d="M14.5 8H13.1667C12.8567 8 12.7017 8 12.5746 8.03407C12.2294 8.12653 11.9599 8.39607 11.8674 8.7412C11.8334 8.86833 11.8334 9.02333 11.8334 9.33333C11.8334 9.64333 11.8334 9.79833 11.8674 9.92547C11.9599 10.2706 12.2294 10.5401 12.5746 10.6326C12.7017 10.6667 12.8567 10.6667 13.1667 10.6667H14.5" stroke="#141B34" stroke-width="1.5" stroke-linecap="round" stroke-linejoin="round"/>
<path d="M7.16667 11.6663H4.83333M4.83333 11.6663H2.5M4.83333 11.6663V9.33301M4.83333 11.6663V13.9997" stroke="#141B34" stroke-width="1.5" stroke-linecap="round" stroke-linejoin="round"/>
</svg>
