<svg width="16" height="16" viewBox="0 0 16 16" fill="none" xmlns="http://www.w3.org/2000/svg">
<path d="M4.66675 11.3337V8.66699" stroke="#9CA3AF" stroke-linecap="round"/>
<path d="M8 11.3337V4.66699" stroke="#9CA3AF" stroke-linecap="round"/>
<path d="M11.3333 11.333V7.33301" stroke="#9CA3AF" stroke-linecap="round"/>
<path d="M1.66675 8.00033C1.66675 5.01477 1.66675 3.52199 2.59424 2.59449C3.52174 1.66699 5.01452 1.66699 8.00008 1.66699C10.9856 1.66699 12.4784 1.66699 13.4059 2.59449C14.3334 3.52199 14.3334 5.01477 14.3334 8.00033C14.3334 10.9859 14.3334 12.4787 13.4059 13.4062C12.4784 14.3337 10.9856 14.3337 8.00008 14.3337C5.01452 14.3337 3.52174 14.3337 2.59424 13.4062C1.66675 12.4787 1.66675 10.9859 1.66675 8.00033Z" stroke="#9CA3AF" stroke-linejoin="round"/>
</svg>
