<svg width="16" height="17" viewBox="0 0 16 17" fill="none" xmlns="http://www.w3.org/2000/svg">
<path d="M2.66663 12.9292V5.8682C2.66663 3.96553 2.66663 3.0142 3.25241 2.42312C3.8382 1.83203 4.78101 1.83203 6.66663 1.83203H9.33329C11.2189 1.83203 12.1617 1.83203 12.7475 2.42312C13.3333 3.0142 13.3333 3.96553 13.3333 5.8682V12.9292C13.3333 13.937 13.3333 14.4409 13.0253 14.6392C12.522 14.9634 11.744 14.2836 11.3527 14.0369C11.0294 13.833 10.8678 13.731 10.6883 13.7252C10.4944 13.7188 10.3299 13.8166 9.98056 14.0369L8.70663 14.8403C8.36296 15.057 8.19116 15.1654 7.99996 15.1654C7.80876 15.1654 7.63696 15.057 7.29329 14.8403L6.01938 14.0369C5.69606 13.833 5.5344 13.731 5.35498 13.7252C5.16111 13.7188 4.99658 13.8166 4.64721 14.0369C4.25593 14.2836 3.47787 14.9634 2.97459 14.6392C2.66663 14.4409 2.66663 13.937 2.66663 12.9292Z" stroke="#9CA3AF" stroke-linecap="round" stroke-linejoin="round"/>
<path d="M7.33337 7.83203H5.33337" stroke="#9CA3AF" stroke-linecap="round" stroke-linejoin="round"/>
<path d="M9.33337 5.16797H5.33337" stroke="#9CA3AF" stroke-linecap="round" stroke-linejoin="round"/>
</svg>
