<svg width="20" height="20" viewBox="0 0 20 20" fill="none" xmlns="http://www.w3.org/2000/svg">
<path d="M10.0002 14.167C10.1892 14.167 10.365 14.0787 10.7164 13.902L13.5416 12.482C14.7917 11.8537 15.4168 11.5395 15.4168 11.042V4.79199M10.0002 14.167C9.81108 14.167 9.63541 14.0787 9.28391 13.902L6.45872 12.482C5.20857 11.8537 4.5835 11.5395 4.5835 11.042V4.79199M10.0002 14.167V7.91699M15.4168 4.79199C15.4168 4.29448 14.7917 3.9803 13.5416 3.35196L10.7164 1.93198C10.3649 1.75533 10.1892 1.66699 10.0002 1.66699C9.81108 1.66699 9.63541 1.75533 9.28391 1.93198L6.45872 3.35196C5.20857 3.9803 4.5835 4.29448 4.5835 4.79199M15.4168 4.79199C15.4168 5.28951 14.7917 5.60368 13.5416 6.23203L10.7164 7.652C10.3649 7.82866 10.1892 7.91699 10.0002 7.91699M4.5835 4.79199C4.5835 5.28951 5.20857 5.60368 6.45872 6.23203L9.28391 7.652C9.63541 7.82866 9.81108 7.91699 10.0002 7.91699" stroke="#9CA3AF" stroke-width="1.5" stroke-linejoin="round"/>
<path d="M8.33317 17.2917C8.33317 16.7163 8.7995 16.25 9.37484 16.25H10.6248C11.2002 16.25 11.6665 16.7163 11.6665 17.2917M8.33317 17.2917C8.33317 17.867 8.7995 18.3333 9.37484 18.3333H10.6248C11.2002 18.3333 11.6665 17.867 11.6665 17.2917M8.33317 17.2917H4.1665M11.6665 17.2917H15.8332" stroke="#9CA3AF" stroke-width="1.5" stroke-linecap="round"/>
</svg>
