<svg width="25" height="24" viewBox="0 0 25 24" fill="none" xmlns="http://www.w3.org/2000/svg">
<path d="M2.66797 12C2.66797 8.22876 2.66797 6.34315 3.83954 5.17157C5.01112 4 6.89673 4 10.668 4H14.668C18.4392 4 20.3249 4 21.4964 5.17157C22.668 6.34315 22.668 8.22876 22.668 12C22.668 15.7712 22.668 17.6569 21.4964 18.8284C20.3249 20 18.4392 20 14.668 20H10.668C6.89673 20 5.01112 20 3.83954 18.8284C2.66797 17.6569 2.66797 15.7712 2.66797 12Z" stroke="#8889F0" stroke-width="1.5" stroke-linecap="round" stroke-linejoin="round"/>
<path d="M2.66797 10H6.86519C7.57976 10 7.93705 10 8.25749 10.112C8.45317 10.1804 8.63703 10.2788 8.80248 10.4037C9.07341 10.6082 9.2716 10.9054 9.66797 11.5C10.0643 12.0946 10.2625 12.3918 10.5335 12.5963C10.6989 12.7212 10.8828 12.8196 11.0785 12.888C11.3989 13 11.7562 13 12.4708 13H12.8652C13.5798 13 13.9371 13 14.2575 12.888C14.4532 12.8196 14.6371 12.7212 14.8025 12.5963C15.0734 12.3918 15.2716 12.0946 15.668 11.5C16.0644 10.9054 16.2626 10.6082 16.5335 10.4037C16.6989 10.2788 16.8828 10.1804 17.0785 10.112C17.3989 10 17.7562 10 18.4708 10H22.668" stroke="#8889F0" stroke-width="1.5" stroke-linecap="round" stroke-linejoin="round"/>
</svg>
