<svg width="20" height="21" viewBox="0 0 20 21" fill="none" xmlns="http://www.w3.org/2000/svg">
<path d="M18.3334 10.1392C18.3334 14.5419 14.6019 18.1115 10.0001 18.1115C9.459 18.1122 8.91941 18.0622 8.38791 17.9624C8.00536 17.8905 7.81406 17.8546 7.68052 17.875C7.54697 17.8954 7.35773 17.996 6.97924 18.1973C5.90853 18.7667 4.66004 18.9678 3.45934 18.7445C3.9157 18.1832 4.22737 17.5097 4.3649 16.7877C4.44823 16.346 4.24175 15.917 3.93249 15.6029C2.52786 14.1766 1.66675 12.2546 1.66675 10.1392C1.66675 5.73663 5.39823 2.16699 10.0001 2.16699C14.6019 2.16699 18.3334 5.73663 18.3334 10.1392Z" stroke="#9CA3AF" stroke-width="1.5" stroke-linejoin="round"/>
<path d="M9.99633 10.5H10.0038M13.3259 10.5H13.3334M6.66675 10.5H6.67422" stroke="#9CA3AF" stroke-width="2" stroke-linecap="round" stroke-linejoin="round"/>
</svg>
