<svg width="21" height="20" viewBox="0 0 21 20" fill="none" xmlns="http://www.w3.org/2000/svg">
<path d="M17.5835 8.75V16.25C17.5835 16.6382 17.5835 16.8324 17.5201 16.9856C17.4355 17.1897 17.2732 17.352 17.0691 17.4366C16.9159 17.5 16.7217 17.5 16.3335 17.5C15.9452 17.5 15.7511 17.5 15.5979 17.4366C15.3937 17.352 15.2315 17.1897 15.1469 16.9856C15.0835 16.8324 15.0835 16.6382 15.0835 16.25V8.75C15.0835 8.36175 15.0835 8.16758 15.1469 8.01443C15.2315 7.81024 15.3937 7.64801 15.5979 7.56343C15.7511 7.5 15.9452 7.5 16.3335 7.5C16.7217 7.5 16.9159 7.5 17.0691 7.56343C17.2732 7.64801 17.4355 7.81024 17.5201 8.01443C17.5835 8.16758 17.5835 8.36175 17.5835 8.75Z" stroke="#9CA3AF" stroke-width="1.5" stroke-linejoin="round"/>
<path d="M14.25 2.5H16.75V5" stroke="#9CA3AF" stroke-width="1.5" stroke-linecap="round" stroke-linejoin="round"/>
<path d="M16.3333 2.91699C16.3333 2.91699 13 7.08366 4.25 10.0003" stroke="#9CA3AF" stroke-width="1.5" stroke-linecap="round" stroke-linejoin="round"/>
<path d="M11.75 11.667V16.2503C11.75 16.6386 11.75 16.8327 11.6866 16.9859C11.602 17.1901 11.4397 17.3523 11.2356 17.4369C11.0824 17.5003 10.8882 17.5003 10.5 17.5003C10.1117 17.5003 9.91758 17.5003 9.76442 17.4369C9.56025 17.3523 9.398 17.1901 9.31342 16.9859C9.25 16.8327 9.25 16.6386 9.25 16.2503V11.667C9.25 11.2787 9.25 11.0846 9.31342 10.9314C9.398 10.7272 9.56025 10.565 9.76442 10.4804C9.91758 10.417 10.1117 10.417 10.5 10.417C10.8882 10.417 11.0824 10.417 11.2356 10.4804C11.4397 10.565 11.602 10.7272 11.6866 10.9314C11.75 11.0846 11.75 11.2787 11.75 11.667Z" stroke="#9CA3AF" stroke-width="1.5" stroke-linejoin="round"/>
<path d="M5.9165 13.75V16.25C5.9165 16.6382 5.9165 16.8324 5.85307 16.9856C5.7685 17.1897 5.60626 17.352 5.40207 17.4366C5.24893 17.5 5.05479 17.5 4.6665 17.5C4.27822 17.5 4.08408 17.5 3.93094 17.4366C3.72675 17.352 3.56451 17.1897 3.47994 16.9856C3.4165 16.8324 3.4165 16.6382 3.4165 16.25V13.75C3.4165 13.3617 3.4165 13.1676 3.47994 13.0144C3.56451 12.8103 3.72675 12.648 3.93094 12.5634C4.08408 12.5 4.27822 12.5 4.6665 12.5C5.05479 12.5 5.24893 12.5 5.40207 12.5634C5.60626 12.648 5.7685 12.8103 5.85307 13.0144C5.9165 13.1676 5.9165 13.3617 5.9165 13.75Z" stroke="#9CA3AF" stroke-width="1.5" stroke-linejoin="round"/>
</svg>
