<svg width="16" height="16" viewBox="0 0 16 16" fill="none" xmlns="http://www.w3.org/2000/svg">
<path d="M12.6605 12.6667H12.6668H12.6605ZM12.6605 12.6667C12.2454 13.0783 11.493 12.9758 10.9654 12.9758C10.3178 12.9758 10.006 13.1025 9.54376 13.5647C9.15023 13.9583 8.62263 14.6667 8.00016 14.6667C7.3777 14.6667 6.8501 13.9583 6.45654 13.5647C5.99435 13.1025 5.68249 12.9758 5.03487 12.9758C4.50728 12.9758 3.75495 13.0783 3.33982 12.6667C2.92137 12.2517 3.02435 11.4963 3.02435 10.9653C3.02435 10.2943 2.8776 9.98574 2.39975 9.50788C1.68892 8.79708 1.33351 8.44161 1.3335 8.00001C1.3335 7.55834 1.68891 7.20294 2.39973 6.49212C2.8263 6.06556 3.02435 5.64286 3.02435 5.03472C3.02435 4.50711 2.92182 3.75477 3.3335 3.33964C3.74845 2.9212 4.5039 3.02418 5.03488 3.02418C5.64301 3.02418 6.06571 2.82614 6.49226 2.39959C7.2031 1.68876 7.5585 1.33334 8.00016 1.33334C8.44183 1.33334 8.79723 1.68876 9.50803 2.39959C9.9345 2.82606 10.3572 3.02418 10.9654 3.02418C11.493 3.02418 12.2454 2.92166 12.6606 3.33334C13.079 3.7483 12.976 4.50374 12.976 5.03472C12.976 5.70573 13.1228 6.01426 13.6006 6.49212C14.3114 7.20294 14.6668 7.55834 14.6668 8.00001C14.6668 8.44161 14.3114 8.79708 13.6006 9.50788C13.1227 9.98574 12.976 10.2943 12.976 10.9653C12.976 11.4963 13.079 12.2517 12.6605 12.6667Z" fill="#19FEFE"/>
<path d="M12.6605 12.6667H12.6668M12.6605 12.6667C12.2454 13.0783 11.493 12.9758 10.9654 12.9758C10.3178 12.9758 10.006 13.1025 9.54376 13.5647C9.15023 13.9583 8.62263 14.6667 8.00016 14.6667C7.3777 14.6667 6.8501 13.9583 6.45654 13.5647C5.99435 13.1025 5.68249 12.9758 5.03487 12.9758C4.50728 12.9758 3.75495 13.0783 3.33982 12.6667C2.92137 12.2517 3.02435 11.4963 3.02435 10.9653C3.02435 10.2943 2.8776 9.98574 2.39975 9.50788C1.68892 8.79708 1.33351 8.44161 1.3335 8.00001C1.3335 7.55834 1.68891 7.20294 2.39973 6.49212C2.8263 6.06556 3.02435 5.64286 3.02435 5.03472C3.02435 4.50711 2.92182 3.75477 3.3335 3.33964C3.74845 2.9212 4.5039 3.02418 5.03488 3.02418C5.64301 3.02418 6.06571 2.82614 6.49226 2.39959C7.2031 1.68876 7.5585 1.33334 8.00016 1.33334C8.44183 1.33334 8.79723 1.68876 9.50803 2.39959C9.9345 2.82606 10.3572 3.02418 10.9654 3.02418C11.493 3.02418 12.2454 2.92166 12.6606 3.33334C13.079 3.7483 12.976 4.50374 12.976 5.03472C12.976 5.70573 13.1228 6.01426 13.6006 6.49212C14.3114 7.20294 14.6668 7.55834 14.6668 8.00001C14.6668 8.44161 14.3114 8.79708 13.6006 9.50788C13.1227 9.98574 12.976 10.2943 12.976 10.9653C12.976 11.4963 13.079 12.2517 12.6605 12.6667Z" stroke="#19FEFE" stroke-width="1.5"/>
<path d="M6 8.59528C6 8.59528 6.8 9.02981 7.2 9.66668C7.2 9.66668 8.4 7.16668 10 6.33334" stroke="#121214" stroke-width="1.5" stroke-linecap="round" stroke-linejoin="round"/>
</svg>
