<svg width="65" height="65" viewBox="0 0 65 65" fill="none" xmlns="http://www.w3.org/2000/svg">
<rect x="8.5" y="8.5" width="48" height="48" rx="24" fill="#02FEFE" fill-opacity="0.4"/>
<rect x="4.5" y="4.5" width="56" height="56" rx="28" stroke="#02FEFE" stroke-opacity="0.1" stroke-width="8"/>
<path d="M28.5 26.5C31.8137 26.5 34.5 25.6046 34.5 24.5C34.5 23.3954 31.8137 22.5 28.5 22.5C25.1863 22.5 22.5 23.3954 22.5 24.5C22.5 25.6046 25.1863 26.5 28.5 26.5Z" stroke="#02FEFE" stroke-width="1.5"/>
<path d="M36 29.5C32.4102 29.5 29.5 32.4101 29.5 36C29.5 39.5898 32.4102 42.5 36 42.5C39.5898 42.5 42.5 39.5899 42.5 36C42.5 32.4101 39.5898 29.5 36 29.5Z" stroke="#02FEFE" stroke-width="1.5" stroke-linecap="round" stroke-linejoin="round"/>
<path d="M36 39.5C36.1047 39.5 36.202 39.4505 36.3967 39.3516L37.9614 38.5564C38.6538 38.2045 39 38.0286 39 37.75V34.25M36 39.5C35.8953 39.5 35.798 39.4505 35.6033 39.3516L34.0386 38.5564C33.3462 38.2045 33 38.0286 33 37.75V34.25M36 39.5V36M39 34.25C39 33.9714 38.6538 33.7955 37.9614 33.4436L36.3967 32.6484C36.202 32.5495 36.1047 32.5 36 32.5C35.8953 32.5 35.798 32.5495 35.6033 32.6484L34.0386 33.4436C33.3462 33.7955 33 33.9714 33 34.25M39 34.25C39 34.5286 38.6538 34.7045 37.9614 35.0564L36.3967 35.8516C36.202 35.9505 36.1047 36 36 36M33 34.25C33 34.5286 33.3462 34.7045 34.0386 35.0564L35.6033 35.8516C35.798 35.9505 35.8953 36 36 36" stroke="#02FEFE" stroke-width="1.5" stroke-linejoin="round"/>
<path d="M22.5 24.5V28.5217V32.5434C22.5 33.2473 23.6783 34.1328 26.6298 34.5M22.6073 29.0477C23.8116 30.1096 25.9588 30.5602 28.2536 30.5602M34.4884 24.6213V26.636" stroke="#02FEFE" stroke-width="1.5" stroke-linecap="round" stroke-linejoin="round"/>
</svg>
