<svg width="16" height="16" viewBox="0 0 16 16" fill="none" xmlns="http://www.w3.org/2000/svg">
<path d="M1.34521 9.33398C2.81159 9.33398 4.00033 10.5227 4.00033 11.9891" stroke="white" stroke-linecap="round" stroke-linejoin="round"/>
<path d="M4.00033 2.67773C4.00033 4.14411 2.81159 5.33285 1.34521 5.33285" stroke="white" stroke-linecap="round" stroke-linejoin="round"/>
<path d="M12 2.67773C12 4.13128 13.1793 5.31202 14.6282 5.33258" stroke="white" stroke-linecap="round" stroke-linejoin="round"/>
<path d="M14.6668 8.66602V6.66602C14.6668 4.7804 14.6668 3.83759 14.081 3.2518C13.4952 2.66602 12.5524 2.66602 10.6668 2.66602H5.3335C3.44788 2.66602 2.50507 2.66602 1.91928 3.2518C1.3335 3.83759 1.3335 4.7804 1.3335 6.66602V7.99935C1.3335 9.88495 1.3335 10.8277 1.91928 11.4135C2.50507 11.9993 3.44788 11.9993 5.3335 11.9993H8.66683" stroke="white" stroke-linecap="round" stroke-linejoin="round"/>
<path d="M10 7.33398C10 8.43858 9.1046 9.33398 8 9.33398C6.8954 9.33398 6 8.43858 6 7.33398C6 6.22942 6.8954 5.33398 8 5.33398C9.1046 5.33398 10 6.22942 10 7.33398Z" stroke="white" stroke-linecap="round" stroke-linejoin="round"/>
<path d="M12.6665 9.33398V13.334M10.6665 11.334H14.6665" stroke="white" stroke-linecap="round" stroke-linejoin="round"/>
</svg>
