<svg width="17" height="16" viewBox="0 0 17 16" fill="none" xmlns="http://www.w3.org/2000/svg">
<path d="M13.1667 5.50065V4.71277C13.1667 3.58394 13.1667 3.01953 12.9985 2.56874C12.7283 1.84405 12.1566 1.27242 11.4319 1.00212C10.9811 0.833984 10.4167 0.833984 9.28787 0.833984C7.3124 0.833984 6.32471 0.833984 5.53583 1.12822C4.26761 1.60124 3.26725 2.6016 2.79423 3.86982C2.5 4.65869 2.5 5.64642 2.5 7.62185V9.31885C2.5 11.3651 2.5 12.3882 3.03189 13.0987C3.18429 13.3023 3.36501 13.4831 3.56859 13.6355C4.27911 14.1673 5.30224 14.1673 7.34847 14.1673H7.83333C8.6132 14.1673 10.1667 14.1673 10.1667 14.1673" stroke="#666869" stroke-width="1.5" stroke-linecap="round" stroke-linejoin="round"/>
<path d="M7.83325 9.05553H8.39345C8.83452 9.05553 9.05499 9.05553 9.23225 9.17173C9.40945 9.28787 9.50805 9.49707 9.70532 9.91547L10.7666 12.1667L12.2333 7.5L13.2945 9.7512C13.4918 10.1696 13.5904 10.3788 13.7676 10.4949C13.9449 10.6111 14.1653 10.6111 14.6064 10.6111H15.1666" stroke="#666869" stroke-width="1.5" stroke-linecap="round" stroke-linejoin="round"/>
<path d="M2.5 7.50065C2.5 6.27338 3.49492 5.27843 4.72222 5.27843H5.46296C5.8074 5.27843 5.97961 5.27843 6.12091 5.24057C6.50435 5.13783 6.80384 4.83833 6.90659 4.4549C6.94445 4.3136 6.94445 4.14138 6.94445 3.79694V3.0562C6.94445 1.8289 7.9394 0.833984 9.16667 0.833984" stroke="#666869" stroke-width="1.5" stroke-linecap="round" stroke-linejoin="round"/>
</svg>
