<svg width="25" height="25" viewBox="0 0 25 25" fill="none" xmlns="http://www.w3.org/2000/svg">
<path d="M14.5 16.5V8.5C14.5 7.55719 14.5 7.08579 14.2071 6.79289C13.9142 6.5 13.4428 6.5 12.5 6.5C11.5572 6.5 11.0858 6.5 10.7929 6.79289C10.5 7.08579 10.5 7.55719 10.5 8.5V16.5C10.5 17.4428 10.5 17.9142 10.7929 18.2071C11.0858 18.5 11.5572 18.5 12.5 18.5C13.4428 18.5 13.9142 18.5 14.2071 18.2071C14.5 17.9142 14.5 17.4428 14.5 16.5Z" fill="white" stroke="white" stroke-width="1.5" stroke-linecap="round" stroke-linejoin="round"/>
<path d="M21.5 9.5V7.5C21.5 6.55719 21.5 6.08579 21.2071 5.79289C20.9142 5.5 20.4428 5.5 19.5 5.5C18.5572 5.5 18.0858 5.5 17.7929 5.79289C17.5 6.08579 17.5 6.55719 17.5 7.5V9.5C17.5 10.4428 17.5 10.9142 17.7929 11.2071C18.0858 11.5 18.5572 11.5 19.5 11.5C20.4428 11.5 20.9142 11.5 21.2071 11.2071C21.5 10.9142 21.5 10.4428 21.5 9.5Z" fill="white" stroke="white" stroke-width="1.5" stroke-linecap="round" stroke-linejoin="round"/>
<path d="M7.5 14.5V12.5C7.5 11.5572 7.5 11.0858 7.20711 10.7929C6.91421 10.5 6.44281 10.5 5.5 10.5C4.55719 10.5 4.08579 10.5 3.79289 10.7929C3.5 11.0858 3.5 11.5572 3.5 12.5V14.5C3.5 15.4428 3.5 15.9142 3.79289 16.2071C4.08579 16.5 4.55719 16.5 5.5 16.5C6.44281 16.5 6.91421 16.5 7.20711 16.2071C7.5 15.9142 7.5 15.4428 7.5 14.5Z" fill="white" stroke="white" stroke-width="1.5" stroke-linecap="round" stroke-linejoin="round"/>
<path d="M12.5 21.5V18.5" stroke="white" stroke-width="1.5" stroke-linecap="round" stroke-linejoin="round"/>
<path d="M19.5 13.5V11.5" stroke="white" stroke-width="1.5" stroke-linecap="round" stroke-linejoin="round"/>
<path d="M12.5 6.5V3.5" stroke="white" stroke-width="1.5" stroke-linecap="round" stroke-linejoin="round"/>
<path d="M19.5 5.5V3.5" stroke="white" stroke-width="1.5" stroke-linecap="round" stroke-linejoin="round"/>
<path d="M5.5 18.5V16.5" stroke="white" stroke-width="1.5" stroke-linecap="round" stroke-linejoin="round"/>
<path d="M5.5 10.5V8.5" stroke="white" stroke-width="1.5" stroke-linecap="round" stroke-linejoin="round"/>
</svg>
