<svg width="25" height="25" viewBox="0 0 25 25" fill="none" xmlns="http://www.w3.org/2000/svg">
<path d="M4.25 11.5V15.5C4.25 18.7998 4.25 20.4497 5.27513 21.4749C6.30025 22.5 7.95017 22.5 11.25 22.5H13.25C16.5498 22.5 18.1997 22.5 19.2249 21.4749C20.25 20.4497 20.25 18.7998 20.25 15.5V11.5" fill="white"/>
<path d="M4.25 11.5V15.5C4.25 18.7998 4.25 20.4497 5.27513 21.4749C6.30025 22.5 7.95017 22.5 11.25 22.5H13.25C16.5498 22.5 18.1997 22.5 19.2249 21.4749C20.25 20.4497 20.25 18.7998 20.25 15.5V11.5" stroke="white" stroke-width="1.5" stroke-linecap="round" stroke-linejoin="round"/>
<path d="M3.25 9.5C3.25 8.75231 3.25 8.37846 3.45096 8.1C3.58261 7.91758 3.77197 7.76609 4 7.66077C4.34808 7.5 4.81538 7.5 5.75 7.5H18.75C19.6846 7.5 20.1519 7.5 20.5 7.66077C20.728 7.76609 20.9174 7.91758 21.049 8.1C21.25 8.37846 21.25 8.75231 21.25 9.5C21.25 10.2477 21.25 10.6215 21.049 10.9C20.9174 11.0824 20.728 11.2339 20.5 11.3392C20.1519 11.5 19.6846 11.5 18.75 11.5H5.75C4.81538 11.5 4.34808 11.5 4 11.3392C3.77197 11.2339 3.58261 11.0824 3.45096 10.9C3.25 10.6215 3.25 10.2477 3.25 9.5Z" stroke="white" stroke-width="1.5" stroke-linejoin="round"/>
<path d="M6.25 4.28571C6.25 3.29949 7.04949 2.5 8.03571 2.5H8.39286C10.5231 2.5 12.25 4.2269 12.25 6.35714V7.5H9.46429C7.68908 7.5 6.25 6.06091 6.25 4.28571Z" fill="#1A1A1E" stroke="white" stroke-width="1.5" stroke-linejoin="round"/>
<path d="M18.25 4.28571C18.25 3.29949 17.4505 2.5 16.4643 2.5H16.1071C13.9769 2.5 12.25 4.2269 12.25 6.35714V7.5H15.0357C16.8109 7.5 18.25 6.06091 18.25 4.28571Z" fill="#1A1A1E" stroke="white" stroke-width="1.5" stroke-linejoin="round"/>
<path d="M12.25 10.5V23.5" stroke="#1A1A1E" stroke-width="2" stroke-linecap="round" stroke-linejoin="round"/>
</svg>
