<svg width="25" height="24" viewBox="0 0 25 24" fill="none" xmlns="http://www.w3.org/2000/svg">
<path d="M22.5 10.5L13.3825 2.82207C13.1355 2.61407 12.8229 2.5 12.5 2.5C12.1771 2.5 11.8645 2.61407 11.6175 2.82207L2.5 10.5" stroke="white" stroke-width="1.5" stroke-linecap="round" stroke-linejoin="round"/>
<path d="M21 5V15.5C21 18.3284 21 19.7426 20.1213 20.6213C19.2426 21.5 17.8284 21.5 15 21.5H10C7.17157 21.5 5.75736 21.5 4.87868 20.6213C4 19.7426 4 18.3284 4 15.5V9.5" stroke="white" stroke-width="1.5" stroke-linecap="round" stroke-linejoin="round"/>
<path d="M11 11.5H10V12.5H11V11.5Z" stroke="white" stroke-width="1.5" stroke-linecap="round" stroke-linejoin="round"/>
<path d="M15 11.5H14V12.5H15V11.5Z" stroke="white" stroke-width="1.5" stroke-linecap="round" stroke-linejoin="round"/>
<path d="M11 15.5H10V16.5H11V15.5Z" stroke="white" stroke-width="1.5" stroke-linecap="round" stroke-linejoin="round"/>
<path d="M15 15.5H14V16.5H15V15.5Z" stroke="white" stroke-width="1.5" stroke-linecap="round" stroke-linejoin="round"/>
</svg>
