<svg width="40" height="40" viewBox="0 0 40 40" fill="none" xmlns="http://www.w3.org/2000/svg">
<rect width="40" height="40" rx="20" fill="#F3F3D7"/>
<path d="M21.9258 20.7775L19.7775 18.6292C19.4847 18.3364 19.3383 18.19 19.1803 18.1117C18.8798 17.9628 18.527 17.9628 18.2264 18.1117C18.0685 18.19 17.9221 18.3364 17.6292 18.6292C17.3364 18.9221 17.19 19.0685 17.1117 19.2264C16.9628 19.527 16.9628 19.8798 17.1117 20.1803C17.19 20.3383 17.3364 20.4847 17.6292 20.7775L19.7775 22.9258M21.9258 20.7775L28.3708 27.2225C28.6636 27.5153 28.81 27.6617 28.8883 27.8197C29.0372 28.1202 29.0372 28.473 28.8883 28.7736C28.81 28.9315 28.6636 29.0779 28.3708 29.3708C28.0779 29.6636 27.9315 29.81 27.7736 29.8883C27.473 30.0372 27.1202 30.0372 26.8197 29.8883C26.6617 29.81 26.5153 29.6636 26.2225 29.3708L19.7775 22.9258M21.9258 20.7775L19.7775 22.9258" stroke="#56562B" stroke-width="1.5" stroke-linecap="round" stroke-linejoin="round"/>
<path d="M25 10L25.2948 10.7966C25.6813 11.8412 25.8746 12.3635 26.2556 12.7445C26.6366 13.1255 27.1588 13.3187 28.2034 13.7052L29 14L28.2034 14.2948C27.1588 14.6813 26.6366 14.8746 26.2556 15.2555C25.8746 15.6365 25.6813 16.1588 25.2948 17.2034L25 18L24.7052 17.2034C24.3187 16.1588 24.1254 15.6365 23.7444 15.2555C23.3634 14.8745 22.8412 14.6813 21.7966 14.2948L21 14L21.7966 13.7052C22.8412 13.3187 23.3634 13.1255 23.7444 12.7445C24.1254 12.3635 24.3187 11.8412 24.7052 10.7966L25 10Z" stroke="#56562B" stroke-width="1.5" stroke-linejoin="round"/>
<path d="M14 12L14.2211 12.5974C14.511 13.3809 14.6559 13.7726 14.9417 14.0583C15.2274 14.3441 15.6191 14.489 16.4025 14.7789L17 15L16.4025 15.2211C15.6191 15.511 15.2274 15.6559 14.9417 15.9417C14.6559 16.2274 14.511 16.6191 14.2211 17.4025L14 18L13.7789 17.4025C13.489 16.6191 13.3441 16.2274 13.0583 15.9417C12.7726 15.6559 12.3809 15.511 11.5975 15.2211L11 15L11.5975 14.7789C12.3809 14.489 12.7726 14.3441 13.0583 14.0583C13.3441 13.7726 13.489 13.3809 13.7789 12.5974L14 12Z" stroke="#56562B" stroke-width="1.5" stroke-linejoin="round"/>
</svg>
