<svg width="24" height="24" viewBox="0 0 24 24" fill="none" xmlns="http://www.w3.org/2000/svg">
<path d="M2 12C2 8.22876 2 6.34315 3.17157 5.17157C4.34315 4 6.22876 4 10 4H14C17.7712 4 19.6569 4 20.8284 5.17157C22 6.34315 22 8.22876 22 12C22 15.7712 22 17.6569 20.8284 18.8284C19.6569 20 17.7712 20 14 20H10C6.22876 20 4.34315 20 3.17157 18.8284C2 17.6569 2 15.7712 2 12Z" fill="white" stroke="white" stroke-width="1.5" stroke-linecap="round" stroke-linejoin="round"/>
<path d="M1 10H5.61694C6.40297 10 6.79599 10 7.14847 10.112C7.36372 10.1804 7.56597 10.2788 7.74796 10.4037C8.04598 10.6082 8.26399 10.9054 8.7 11.5C9.13601 12.0946 9.35402 12.3918 9.65204 12.5963C9.83399 12.7212 10.0363 12.8196 10.2515 12.888C10.604 13 10.997 13 11.7831 13H12.2169C13.003 13 13.396 13 13.7485 12.888C13.9637 12.8196 14.166 12.7212 14.3479 12.5963C14.6459 12.3918 14.864 12.0946 15.3 11.5C15.736 10.9054 15.9541 10.6082 16.2521 10.4037C16.434 10.2788 16.6363 10.1804 16.8515 10.112C17.204 10 17.597 10 18.3831 10H23" stroke="#1A1A1E" stroke-width="1.5" stroke-linecap="round" stroke-linejoin="round"/>
</svg>
