<svg width="16" height="17" viewBox="0 0 16 17" fill="none" xmlns="http://www.w3.org/2000/svg">
<path d="M14 4.83301C14 5.93757 13.1046 6.83301 12 6.83301C10.8954 6.83301 10 5.93757 10 4.83301C10 3.72844 10.8954 2.83301 12 2.83301C13.1046 2.83301 14 3.72844 14 4.83301Z" stroke="white" stroke-width="1.25"/>
<path d="M6 8.5C6 9.6046 5.10457 10.5 4 10.5C2.89543 10.5 2 9.6046 2 8.5C2 7.3954 2.89543 6.5 4 6.5C5.10457 6.5 6 7.3954 6 8.5Z" stroke="white" stroke-width="1.25"/>
<path d="M14 12.167C14 13.2716 13.1046 14.167 12 14.167C10.8954 14.167 10 13.2716 10 12.167C10 11.0624 10.8954 10.167 12 10.167C13.1046 10.167 14 11.0624 14 12.167Z" stroke="white" stroke-width="1.25"/>
<path d="M5.82031 7.66666L10.1536 5.66699M5.82031 9.33366L10.1536 11.3333" stroke="white" stroke-width="1.25"/>
</svg>
