<svg width="28" height="28" viewBox="0 0 28 28" fill="none" xmlns="http://www.w3.org/2000/svg">
<path d="M2.33398 14C2.33398 9.62531 2.33398 7.43797 3.44805 5.90458C3.80785 5.40937 4.24335 4.97386 4.73857 4.61406C6.27195 3.5 8.4593 3.5 12.834 3.5H15.1673C19.542 3.5 21.7294 3.5 23.2627 4.61406C23.758 4.97386 24.1935 5.40937 24.5533 5.90458C25.6673 7.43797 25.6673 9.62531 25.6673 14C25.6673 18.3746 25.6673 20.562 24.5533 22.0954C24.1935 22.5906 23.758 23.0261 23.2627 23.3859C21.7294 24.5 19.542 24.5 15.1673 24.5H12.834C8.4593 24.5 6.27195 24.5 4.73857 23.3859C4.24335 23.0261 3.80785 22.5906 3.44805 22.0954C2.33398 20.562 2.33398 18.3746 2.33398 14Z" stroke="#9CA3AF" stroke-width="1.5" stroke-linejoin="round"/>
<path d="M11.084 4.08203V23.9154" stroke="#9CA3AF" stroke-width="1.5" stroke-linejoin="round"/>
<path d="M5.83398 8.16797C5.83398 8.16797 6.90056 8.16797 7.58398 8.16797" stroke="#9CA3AF" stroke-width="1.5" stroke-linecap="round" stroke-linejoin="round"/>
<path d="M5.83398 12.832H7.58398" stroke="#9CA3AF" stroke-width="1.5" stroke-linecap="round" stroke-linejoin="round"/>
<path d="M19.8333 11.668L18.4024 12.9014C17.8008 13.4198 17.5 13.6792 17.5 14.0013C17.5 14.3234 17.8008 14.5828 18.4024 15.1012L19.8333 16.3346" stroke="#9CA3AF" stroke-width="1.5" stroke-linecap="round" stroke-linejoin="round"/>
</svg>
