<svg width="20" height="20" viewBox="0 0 20 20" fill="none" xmlns="http://www.w3.org/2000/svg">
<path d="M10 17.5C14.1421 17.5 17.5 14.1421 17.5 10C17.5 5.85786 14.1421 2.5 10 2.5C5.85786 2.5 2.5 5.85786 2.5 10C2.5 14.1421 5.85786 17.5 10 17.5Z" stroke="white" stroke-linecap="round" stroke-linejoin="round"/>
<path d="M7.1875 9.375C7.70527 9.375 8.125 8.95527 8.125 8.4375C8.125 7.91973 7.70527 7.5 7.1875 7.5C6.66973 7.5 6.25 7.91973 6.25 8.4375C6.25 8.95527 6.66973 9.375 7.1875 9.375Z" fill="white"/>
<path d="M12.8125 9.375C13.3303 9.375 13.75 8.95527 13.75 8.4375C13.75 7.91973 13.3303 7.5 12.8125 7.5C12.2947 7.5 11.875 7.91973 11.875 8.4375C11.875 8.95527 12.2947 9.375 12.8125 9.375Z" fill="white"/>
<path d="M13.2486 11.875C12.9193 12.4451 12.4458 12.9186 11.8755 13.2477C11.3053 13.5769 10.6585 13.7502 10.0001 13.7502C9.34175 13.7502 8.69495 13.5769 8.12474 13.2478C7.55452 12.9186 7.08099 12.4452 6.75171 11.875" stroke="white" stroke-linecap="round" stroke-linejoin="round"/>
</svg>
