<svg width="20" height="20" viewBox="0 0 20 20" fill="none" xmlns="http://www.w3.org/2000/svg">
<path d="M1.6665 18.3333H10.8332C14.9753 18.3333 18.3332 14.9755 18.3332 10.8333C18.3332 6.69118 14.9753 3.33331 10.8332 3.33331C6.97271 3.33331 3.7477 6.25002 3.33317 9.99998" stroke="#9CA3AF" stroke-width="1.5" stroke-linecap="round"/>
<path d="M15.4168 4.58333L16.2502 3.75M4.5835 3.75L5.41683 4.58333" stroke="#9CA3AF" stroke-width="1.5" stroke-linecap="round" stroke-linejoin="round"/>
<path d="M13.7503 7.50003L11.3009 9.94951M11.3009 9.94951C11.0747 9.72326 10.7622 9.58334 10.417 9.58334C9.72666 9.58334 9.16699 10.143 9.16699 10.8333C9.16699 11.5238 9.72666 12.0833 10.417 12.0833C11.1073 12.0833 11.667 11.5238 11.667 10.8333C11.667 10.4882 11.5271 10.1757 11.3009 9.94951Z" stroke="#9CA3AF" stroke-width="1.5" stroke-linecap="round"/>
<path d="M10.4165 2.91669V1.66669" stroke="#9CA3AF" stroke-width="1.5" stroke-linecap="round" stroke-linejoin="round"/>
<path d="M8.75 1.66669H12.0833" stroke="#9CA3AF" stroke-width="1.5" stroke-linecap="round" stroke-linejoin="round"/>
<path d="M1.6665 12.5H4.1665" stroke="#9CA3AF" stroke-width="1.5" stroke-linecap="round" stroke-linejoin="round"/>
<path d="M1.6665 15.8333H5.83317" stroke="#9CA3AF" stroke-width="1.5" stroke-linecap="round" stroke-linejoin="round"/>
</svg>
