<svg width="20" height="20" viewBox="0 0 20 20" fill="none" xmlns="http://www.w3.org/2000/svg">
<path d="M15.8333 8.75033V8.33362C15.8333 5.19096 15.8332 3.61958 14.857 2.64328C13.8806 1.66699 12.3093 1.66699 9.16662 1.66699C6.02403 1.66699 4.45267 1.66704 3.47636 2.64332C2.50008 3.61962 2.50006 5.19093 2.50003 8.33356L2.5 12.0837C2.49998 14.8232 2.49997 16.193 3.25657 17.1149C3.3951 17.2837 3.54988 17.4385 3.71869 17.5771C4.64064 18.3337 6.01041 18.3337 8.74995 18.3337" stroke="#9CA3AF" stroke-width="1.5" stroke-linecap="round" stroke-linejoin="round"/>
<path d="M5.83337 5.83301H12.5M5.83337 9.16634H9.16671" stroke="#9CA3AF" stroke-width="1.5" stroke-linecap="round" stroke-linejoin="round"/>
<path d="M15 15.4163L13.75 14.958V12.9163M10 14.583C10 16.6541 11.6789 18.333 13.75 18.333C15.8211 18.333 17.5 16.6541 17.5 14.583C17.5 12.5119 15.8211 10.833 13.75 10.833C11.6789 10.833 10 12.5119 10 14.583Z" stroke="#9CA3AF" stroke-width="1.5" stroke-linecap="round" stroke-linejoin="round"/>
</svg>
