<svg width="17" height="16" viewBox="0 0 17 16" fill="none" xmlns="http://www.w3.org/2000/svg">
<g clip-path="url(#clip0_281_31966)">
<path d="M8.1665 16C12.5848 16 16.1665 12.4183 16.1665 8C16.1665 3.58172 12.5848 0 8.1665 0C3.74823 0 0.166504 3.58172 0.166504 8C0.166504 12.4183 3.74823 16 8.1665 16Z" fill="#3E73C4"/>
<path d="M10.1778 9.062C10.1778 8 9.53778 7.636 8.25778 7.484C7.34378 7.3625 7.16128 7.12 7.16128 6.695C7.16128 6.27 7.46628 5.997 8.07528 5.997C8.62378 5.997 8.92878 6.179 9.08078 6.6345C9.09662 6.67855 9.12557 6.71668 9.16374 6.74377C9.20192 6.77086 9.24747 6.7856 9.29428 6.786H9.78178C9.80993 6.78675 9.83795 6.78178 9.86413 6.77138C9.8903 6.76098 9.9141 6.74537 9.93406 6.7255C9.95402 6.70563 9.96974 6.68191 9.98027 6.65578C9.99079 6.62966 9.9959 6.60166 9.99528 6.5735V6.5435C9.9357 6.21395 9.76895 5.9133 9.52094 5.68826C9.27294 5.46322 8.95755 5.32638 8.62378 5.299V4.571C8.62378 4.4495 8.53228 4.3585 8.38028 4.328H7.92278C7.80128 4.328 7.70978 4.419 7.67928 4.571V5.269C6.76478 5.39 6.18628 5.997 6.18628 6.756C6.18628 7.757 6.79528 8.1515 8.07528 8.3035C8.92878 8.455 9.20278 8.6375 9.20278 9.123C9.20278 9.608 8.77628 9.942 8.19728 9.942C7.40478 9.942 7.13078 9.6085 7.03928 9.153C7.00928 9.032 6.91728 8.971 6.82578 8.971H6.30778C6.27966 8.97032 6.2517 8.97535 6.22558 8.98578C6.19946 8.99621 6.17573 9.01183 6.15582 9.03169C6.13591 9.05155 6.12024 9.07525 6.10974 9.10134C6.09925 9.12744 6.09416 9.15539 6.09478 9.1835V9.2135C6.21628 9.9725 6.70428 10.5185 7.70978 10.6705V11.399C7.70978 11.52 7.80128 11.6115 7.95328 11.6415H8.41078C8.53228 11.6415 8.62378 11.5505 8.65428 11.399V10.67C9.56878 10.5185 10.1778 9.881 10.1778 9.0615V9.062Z" fill="white"/>
<path d="M6.61265 12.2485C4.23565 11.3985 3.01665 8.7585 3.90065 6.422C4.35765 5.147 5.36315 4.1765 6.61265 3.721C6.73465 3.6605 6.79515 3.5695 6.79515 3.4175V2.9925C6.79515 2.8715 6.73465 2.7805 6.61265 2.75C6.58215 2.75 6.52115 2.75 6.49065 2.78C5.80486 2.99416 5.16821 3.34186 4.61736 3.80309C4.0665 4.26431 3.61232 4.82994 3.28097 5.46741C2.94962 6.10489 2.74763 6.80161 2.68665 7.51746C2.62567 8.23332 2.70689 8.95417 2.92565 9.6385C3.47365 11.3385 4.78415 12.6435 6.49065 13.1895C6.61265 13.25 6.73465 13.1895 6.76465 13.068C6.79515 13.038 6.79515 13.007 6.79515 12.9465V12.5215C6.79515 12.4305 6.70415 12.3095 6.61265 12.2485ZM9.84265 2.7805C9.72065 2.7195 9.59865 2.7805 9.56865 2.9015C9.53815 2.932 9.53815 2.9625 9.53815 3.023V3.448C9.53815 3.5695 9.62915 3.6905 9.72065 3.7515C12.0976 4.6015 13.3166 7.2415 12.4326 9.578C11.9756 10.853 10.9701 11.8235 9.72065 12.279C9.59865 12.3395 9.53815 12.4305 9.53815 12.5825V13.0075C9.53815 13.1285 9.59865 13.2195 9.72065 13.25C9.75115 13.25 9.81215 13.25 9.84265 13.22C10.5284 13.0058 11.1651 12.6581 11.7159 12.1969C12.2668 11.7357 12.721 11.1701 13.0523 10.5326C13.3837 9.89511 13.5857 9.19839 13.6466 8.48254C13.7076 7.76668 13.6264 7.04583 13.4076 6.3615C12.8596 4.6315 11.5186 3.3265 9.84265 2.7805Z" fill="white"/>
</g>
<defs>
<clipPath id="clip0_281_31966">
<rect width="16" height="16" fill="white" transform="translate(0.166504)"/>
</clipPath>
</defs>
</svg>
