<svg width="20" height="20" viewBox="0 0 20 20" fill="none" xmlns="http://www.w3.org/2000/svg">
<path d="M10.8333 5.83333C10.8333 7.67428 9.34088 9.16667 7.49996 9.16667C5.65901 9.16667 4.16663 7.67428 4.16663 5.83333C4.16663 3.99238 5.65901 2.5 7.49996 2.5C9.34088 2.5 10.8333 3.99238 10.8333 5.83333Z" stroke="#9CA3AF" stroke-width="1.5"/>
<path d="M12.5 9.16667C14.3409 9.16667 15.8333 7.67428 15.8333 5.83333C15.8333 3.99238 14.3409 2.5 12.5 2.5" stroke="#9CA3AF" stroke-width="1.5" stroke-linecap="round" stroke-linejoin="round"/>
<path d="M9.16663 11.667H5.83329C3.53211 11.667 1.66663 13.5325 1.66663 15.8337C1.66663 16.7542 2.41282 17.5003 3.33329 17.5003H11.6666C12.5871 17.5003 13.3333 16.7542 13.3333 15.8337C13.3333 13.5325 11.4678 11.667 9.16663 11.667Z" stroke="#9CA3AF" stroke-width="1.5" stroke-linejoin="round"/>
<path d="M14.1666 11.667C16.4678 11.667 18.3333 13.5325 18.3333 15.8337C18.3333 16.7542 17.5871 17.5003 16.6666 17.5003H15.4166" stroke="#9CA3AF" stroke-width="1.5" stroke-linecap="round" stroke-linejoin="round"/>
</svg>
