<svg width="25" height="24" viewBox="0 0 25 24" fill="none" xmlns="http://www.w3.org/2000/svg">
<path d="M10.0593 2C6.7981 2 5.16749 2 4.0351 2.79784C3.71065 3.02643 3.42261 3.29752 3.17973 3.60289C2.33203 4.66867 2.33203 6.20336 2.33203 9.27273V11.8182C2.33203 14.7814 2.33203 16.2629 2.80097 17.4462C3.55484 19.3486 5.14917 20.8491 7.17039 21.5586C8.42766 22 10.0018 22 13.1502 22C14.9493 22 15.8488 22 16.5672 21.7478C17.7222 21.3424 18.6332 20.4849 19.064 19.3979C19.332 18.7217 19.332 17.8751 19.332 16.1818V15.5" stroke="#86EFAC" stroke-width="1.5" stroke-linecap="round" stroke-linejoin="round"/>
<path d="M15.332 7.5C15.332 7.5 15.832 7.5 16.332 8.5C16.332 8.5 17.9202 6 19.332 5.5" stroke="#86EFAC" stroke-width="1.5" stroke-linecap="round" stroke-linejoin="round"/>
<path d="M22.332 7C22.332 9.76142 20.0934 12 17.332 12C14.5706 12 12.332 9.76142 12.332 7C12.332 4.23858 14.5706 2 17.332 2C20.0934 2 22.332 4.23858 22.332 7Z" stroke="#86EFAC" stroke-width="1.5" stroke-linecap="round"/>
<path d="M2.33203 12C2.33203 13.8409 3.82441 15.3333 5.66536 15.3333C6.33115 15.3333 7.11607 15.2167 7.7634 15.3901C8.33855 15.5442 8.78779 15.9935 8.94191 16.5686C9.11536 17.216 8.9987 18.0009 8.9987 18.6667C8.9987 20.5076 10.4911 22 12.332 22" stroke="#86EFAC" stroke-width="1.5" stroke-linecap="round" stroke-linejoin="round"/>
</svg>
