<svg width="16" height="16" viewBox="0 0 16 16" fill="none" xmlns="http://www.w3.org/2000/svg">
<path d="M1.34521 11.666C2.81159 11.666 4.00033 12.8547 4.00033 14.3211" stroke="white" stroke-linecap="round" stroke-linejoin="round"/>
<path d="M12 14.3211V14.2598C12 12.8273 13.1613 11.666 14.5939 11.666" stroke="white" stroke-linecap="round" stroke-linejoin="round"/>
<path d="M4.00033 5.00977C4.00033 6.47615 2.81159 7.6649 1.34521 7.6649" stroke="white" stroke-linecap="round" stroke-linejoin="round"/>
<path d="M12 5.00977C12 6.46331 13.1793 7.64403 14.6282 7.66463" stroke="white" stroke-linecap="round" stroke-linejoin="round"/>
<path d="M11.3335 5C12.7835 5.00807 13.5688 5.07237 14.081 5.58463C14.6668 6.17041 14.6668 7.11321 14.6668 8.99881V10.3321C14.6668 12.2178 14.6668 13.1606 14.081 13.7464C13.4952 14.3321 12.5524 14.3321 10.6668 14.3321H5.3335C3.44788 14.3321 2.50507 14.3321 1.91928 13.7464C1.3335 13.1606 1.3335 12.2178 1.3335 10.3321V8.99881C1.3335 7.11321 1.3335 6.17041 1.91928 5.58463C2.43154 5.07237 3.21681 5.00807 4.66683 5" stroke="white" stroke-linecap="round" stroke-linejoin="round"/>
<path d="M10 9.66602C10 10.7705 9.1046 11.666 8 11.666C6.8954 11.666 6 10.7705 6 9.66602C6 8.56142 6.8954 7.66602 8 7.66602C9.1046 7.66602 10 8.56142 10 9.66602Z" stroke="white" stroke-linecap="round" stroke-linejoin="round"/>
<path d="M6.3335 3.33268C6.3335 3.33268 7.53336 1.66602 8.00016 1.66602C8.46696 1.66602 9.66683 3.33268 9.66683 3.33268M8.00016 5.33268V1.99935" stroke="white" stroke-linecap="round" stroke-linejoin="round"/>
</svg>
