<?xml version="1.0" encoding="UTF-8"?>
<svg version="1.1" xmlns="http://www.w3.org/2000/svg" width="2100" height="1182">
<path d="M0 0 C693 0 1386 0 2100 0 C2100 390.06 2100 780.12 2100 1182 C1407 1182 714 1182 0 1182 C0 791.94 0 401.88 0 0 Z " fill="#FEF2B8" transform="translate(0,0)"/>
<path d="M0 0 C1.49237938 -0.06275871 1.49237938 -0.06275871 3.01490784 -0.12678528 C4.66661232 -0.18737625 4.66661232 -0.18737625 6.35168457 -0.24919128 C8.0812162 -0.31687462 8.0812162 -0.31687462 9.84568787 -0.38592529 C20.53804327 -0.78365089 31.23341985 -1.03119081 41.93115997 -1.22420216 C49.11775284 -1.35705749 56.29512939 -1.54259517 63.47619629 -1.85856628 C111.26296153 -3.91923626 111.26296153 -3.91923626 120.56726074 2.89271545 C126.96591394 8.81438149 129.86040343 16.73403184 132.31481934 24.90232849 C133.7657834 29.4546997 135.99774108 33.10482535 138.6192627 37.05867004 C139.34900236 38.27584212 140.07142049 39.49743937 140.7857666 40.72370911 C147.4624142 52.04462481 154.19517371 63.32979382 161.0255127 74.55867004 C161.37325745 75.13040955 161.7210022 75.70214905 162.07928467 76.29121399 C164.51737077 80.29844942 166.95855604 84.30379245 169.4005127 88.30867004 C172.19436876 92.89067256 174.98674963 97.47356558 177.7755127 102.05867004 C178.12309631 102.63008728 178.47067993 103.20150452 178.82879639 103.79023743 C184.99382673 113.9322127 191.05903579 124.13184454 197.10595703 134.34455872 C202.69458207 143.78078292 208.32631156 153.18879699 214.0255127 162.55867004 C214.71105225 163.68587463 215.3965918 164.81307922 216.10290527 165.97444153 C218.96339103 170.67325805 221.8271658 175.37005441 224.69396973 180.0650177 C226.62378947 183.22549762 228.55128322 186.38738707 230.4776001 189.55000305 C231.54772665 191.30509765 232.62076554 193.058386 233.69396973 194.81159973 C237.32097408 200.76537831 240.80453176 206.75737684 244.06970215 212.9178009 C245.40031706 215.30831857 246.85269703 217.55390276 248.4005127 219.80867004 C251.21912525 223.91914669 253.54678933 228.20653826 255.88879395 232.60163879 C257.77553508 235.98022176 259.91455468 239.13795615 262.09973145 242.32820129 C263.77319395 244.87608564 265.0379719 247.58358846 266.4005127 250.30867004 C267.80860928 252.51208044 269.271016 254.67425374 270.7364502 256.83992004 C275.11767713 263.33976845 279.23705648 269.9573596 283.0880127 276.78523254 C287.59419098 284.72515226 292.34675635 292.50633721 297.12414551 300.2849884 C301.30651664 307.10135952 305.33930502 313.956984 309.12268066 321.00617981 C310.62274764 323.70910906 312.30590273 326.20444656 314.1505127 328.68367004 C316.48255379 331.82457224 317.97428561 334.67775726 319.4005127 338.30867004 C320.33725692 339.85599407 321.31736612 341.37785763 322.3380127 342.87117004 C323.09404785 343.98685364 323.09404785 343.98685364 323.86535645 345.12507629 C324.89060336 346.58337915 325.9471886 348.02013343 327.0333252 349.43367004 C328.4005127 351.30867004 328.4005127 351.30867004 329.3380127 353.74617004 C330.28232934 356.37559444 330.28232934 356.37559444 332.1505127 358.43367004 C334.86209151 361.89846519 336.7573457 365.58399137 338.81848145 369.46101379 C340.72489435 372.89255703 342.88324666 376.09224805 345.09973145 379.32820129 C346.77319395 381.87608564 348.0379719 384.58358846 349.4005127 387.30867004 C350.89831258 389.58581296 352.43436882 391.83028146 353.99816895 394.06257629 C355.4005127 396.30867004 355.4005127 396.30867004 356.39660645 398.83992004 C357.43655739 401.39730913 358.65989509 403.11826502 360.4005127 405.24617004 C362.9438198 408.50823785 364.14306619 411.35669531 365.4005127 415.30867004 C366.00210205 415.89438782 366.60369141 416.48010559 367.22351074 417.08357239 C369.80536115 419.72246267 371.32904427 422.42613284 373.10754395 425.66023254 C373.80862534 426.91793672 374.51131327 428.17474648 375.2154541 429.43074036 C375.57496155 430.0733783 375.93446899 430.71601624 376.30487061 431.37812805 C378.05404432 434.46020507 379.88416268 437.49147649 381.72473145 440.51960754 C382.08366486 441.11050171 382.44259827 441.70139587 382.81240845 442.31019592 C383.90283099 444.10223894 384.99541642 445.89295174 386.0880127 447.68367004 C386.82840757 448.90102036 387.56864224 450.11846813 388.30871582 451.33601379 C391.28244318 456.22254337 394.25939587 461.10126643 397.35754395 465.91023254 C399.4005127 469.30867004 399.4005127 469.30867004 399.90319824 471.45857239 C400.1493689 472.37437073 400.1493689 472.37437073 400.4005127 473.30867004 C401.0605127 473.63867004 401.7205127 473.96867004 402.4005127 474.30867004 C403.0255127 476.87117004 403.0255127 476.87117004 403.4005127 479.30867004 C404.0605127 479.30867004 404.7205127 479.30867004 405.4005127 479.30867004 C407.06270152 481.73269542 408.30562934 484.05564777 409.3380127 486.80867004 C410.30294794 489.39808424 410.30294794 489.39808424 412.21130371 491.54304504 C414.60277146 494.5641833 416.55690525 497.73784809 418.49035645 501.05867004 C419.06222435 502.02903954 419.06222435 502.02903954 419.64564514 503.01901245 C420.87968842 505.11366921 422.10878786 507.21118276 423.3380127 509.30867004 C425.04216553 512.20490427 426.74973479 515.099107 428.45910645 517.99226379 C428.88134491 518.70716476 429.30358337 519.42206573 429.73861694 520.15863037 C433.86693935 527.12990868 438.12726679 534.01498987 442.47839355 540.84968567 C445.24159718 545.23516322 447.42396385 549.52075668 449.4005127 554.30867004 C450.38147018 555.32735666 451.37753347 556.33218988 452.4005127 557.30867004 C452.75220338 558.6372793 453.08821546 559.97025332 453.4005127 561.30867004 C454.0605127 561.63867004 454.7205127 561.96867004 455.4005127 562.30867004 C455.73384603 563.64200338 456.06717936 564.97533671 456.4005127 566.30867004 C457.0605127 566.63867004 457.7205127 566.96867004 458.4005127 567.30867004 C458.73384603 568.64200338 459.06717936 569.97533671 459.4005127 571.30867004 C460.0605127 571.63867004 460.7205127 571.96867004 461.4005127 572.30867004 C461.73384603 573.64200338 462.06717936 574.97533671 462.4005127 576.30867004 C463.0605127 576.63867004 463.7205127 576.96867004 464.4005127 577.30867004 C464.5861377 578.20585754 464.5861377 578.20585754 464.7755127 579.12117004 C465.24208374 581.44482143 465.24208374 581.44482143 467.19372559 583.04206848 C469.80912678 585.72835952 471.46071702 588.51443411 473.33410645 591.76179504 C473.69392105 592.38084717 474.05373566 592.99989929 474.42445374 593.63771057 C475.56821001 595.60801485 476.70341334 597.5830812 477.8380127 599.55867004 C478.96820278 601.51457309 480.10016684 603.4694335 481.23320007 605.4236908 C481.96192583 606.68176261 482.68877185 607.94092529 483.41365051 609.20121765 C485.32996383 612.52142422 487.32420078 615.76078983 489.4395752 618.95710754 C492.06314832 623.44122257 491.68081523 625.3581669 490.4005127 630.30867004 C487.92346769 632.78571505 485.64931454 633.35812738 482.37316895 634.42976379 C480.17854957 635.4075645 479.06733478 636.60628909 477.4005127 638.30867004 C475.06717936 639.30867004 472.73384603 640.30867004 470.4005127 641.30867004 C468.77536802 642.76700363 468.77536802 642.76700363 467.4005127 644.30867004 C463.59362493 646.99588493 459.73145306 648.22986544 455.2911377 649.46492004 C454.35527832 649.88257629 454.35527832 649.88257629 453.4005127 650.30867004 C453.0705127 651.29867004 452.7405127 652.28867004 452.4005127 653.30867004 C450.73430964 654.07704699 449.06100636 654.83430955 447.35302734 655.50471497 C444.23842974 656.78716197 441.37435046 658.50857625 438.4786377 660.21492004 C437.85197205 660.58089294 437.2253064 660.94686584 436.57965088 661.32392883 C435.26760747 662.09171265 433.95676627 662.86155433 432.64709473 663.63337708 C430.64547873 664.8116333 428.63853972 665.98041755 426.63098145 667.14851379 C425.35070413 667.89925442 424.07074478 668.6505376 422.7911377 669.40242004 C422.19424133 669.74937927 421.59734497 670.0963385 420.98236084 670.45381165 C418.08340296 672.1712241 415.75308177 673.92014467 413.4005127 676.30867004 C411.60461426 677.20417786 411.60461426 677.20417786 409.5411377 678.01179504 C403.07565536 680.76628914 397.16219801 684.44461194 391.1505127 688.05867004 C390.00103455 688.74400457 388.85129596 689.42890245 387.70129395 690.11335754 C380.84671025 694.20104246 374.03771014 698.35960022 367.24914551 702.55574036 C365.39914251 703.69415495 363.5417227 704.82063509 361.67590332 705.93293762 C358.39785246 707.91489219 355.36845978 710.21484165 352.2911377 712.49226379 C349.98121731 713.94376782 347.97012514 714.96359728 345.48254395 716.00788879 C339.29643526 718.6720122 333.56064408 722.12623946 327.77087402 725.54402161 C325.84231331 726.68113433 323.90793695 727.80783089 321.97277832 728.93367004 C316.09978263 732.37199076 310.34112493 735.83367754 305.00305176 740.07966614 C301.69818484 742.61420302 298.08649684 744.68751799 294.1739502 746.12898254 C289.73299523 748.01795212 285.7555488 750.66414331 281.66418457 753.20710754 C276.60400549 756.30867004 276.60400549 756.30867004 274.4005127 756.30867004 C274.4005127 756.96867004 274.4005127 757.62867004 274.4005127 758.30867004 C273.51750488 758.73277161 272.63449707 759.15687317 271.72473145 759.59382629 C262.58103517 764.04086547 253.87919128 768.86501181 245.7755127 775.05867004 C242.51435546 777.48079168 239.12605073 778.51590249 235.2208252 779.53523254 C234.31977051 779.91808411 234.31977051 779.91808411 233.4005127 780.30867004 C233.0705127 781.29867004 232.7405127 782.28867004 232.4005127 783.30867004 C230.11707671 784.25717422 227.81974541 784.83013983 225.4317627 785.46492004 C224.42629395 785.88257629 224.42629395 785.88257629 223.4005127 786.30867004 C223.0705127 787.29867004 222.7405127 788.28867004 222.4005127 789.30867004 C220.82012284 790.01704642 219.23250467 790.71183577 217.62023926 791.34431458 C212.94954706 793.37348684 208.64352075 796.14339561 204.2755127 798.74617004 C202.81178223 799.60565247 202.81178223 799.60565247 201.31848145 800.48249817 C196.76424124 803.18211259 192.43081805 805.85071574 188.4005127 809.30867004 C184.87127395 811.71888187 183.80610464 812.30867004 179.4005127 812.30867004 C179.0705127 813.29867004 178.7405127 814.28867004 178.4005127 815.30867004 C176.39882505 816.20975835 174.39117864 817.09868475 172.36486816 817.94294739 C166.53779706 820.62756572 161.09869735 824.05160271 155.59899902 827.34358215 C153.47490681 828.61405587 151.34536355 829.87497683 149.21496582 831.13484192 C141.72428962 835.58527801 134.48251554 840.22466483 127.4005127 845.30867004 C125.62568801 846.48042122 123.83872667 847.63474819 122.0255127 848.74617004 C121.23402832 849.23988098 120.44254395 849.73359192 119.6270752 850.24226379 C117.4005127 851.30867004 117.4005127 851.30867004 113.4005127 851.30867004 C113.0705127 852.29867004 112.7405127 853.28867004 112.4005127 854.30867004 C111.0805127 854.30867004 109.7605127 854.30867004 108.4005127 854.30867004 C108.0705127 855.29867004 107.7405127 856.28867004 107.4005127 857.30867004 C105.84665447 857.99393898 104.28612762 858.66593707 102.7052002 859.28620911 C97.52006165 861.58656506 92.74442971 864.74899283 87.9005127 867.68367004 C86.79836426 868.34367004 85.69621582 869.00367004 84.56066895 869.68367004 C77.85796816 873.72155366 77.85796816 873.72155366 71.42785645 878.17195129 C68.7149309 880.08675165 66.61792695 881.19896434 63.4630127 882.12117004 C62.69086426 882.35449036 61.91871582 882.58781067 61.12316895 882.82820129 C60.2704541 883.06603333 60.2704541 883.06603333 59.4005127 883.30867004 C59.4005127 883.96867004 59.4005127 884.62867004 59.4005127 885.30867004 C51.35350392 886.33352493 46.89203957 883.01606725 40.4005127 878.55867004 C38.50705862 877.28948829 36.61126408 876.02379043 34.7130127 874.76179504 C33.8158252 874.16431458 32.9186377 873.56683411 31.9942627 872.95124817 C28.57096415 870.78333094 25.06974934 869.02213433 21.4005127 867.30867004 C21.4005127 866.64867004 21.4005127 865.98867004 21.4005127 865.30867004 C20.6167627 865.16429504 19.8330127 865.01992004 19.0255127 864.87117004 C16.4005127 864.30867004 16.4005127 864.30867004 14.4005127 863.30867004 C14.4005127 862.64867004 14.4005127 861.98867004 14.4005127 861.30867004 C13.49559082 861.12562317 12.59066895 860.94257629 11.6583252 860.75398254 C5.66646325 859.03557311 0.53808625 855.42736251 -4.7244873 852.18367004 C-5.83654541 851.50658997 -6.94860352 850.82950989 -8.09436035 850.13191223 C-11.26714392 848.19792784 -14.43352793 846.25379677 -17.5994873 844.30867004 C-19.06107883 843.41958298 -20.52320881 842.5313796 -21.98620605 841.64460754 C-29.93995877 836.80627132 -29.93995877 836.80627132 -32.7791748 834.66413879 C-34.94050746 833.05473443 -37.09380433 832.29928889 -39.5994873 831.30867004 C-46.3184602 827.87072425 -46.3184602 827.87072425 -47.5994873 825.30867004 C-49.28718209 824.56281448 -50.9780192 823.82289174 -52.68719482 823.12767029 C-55.56000238 821.89729883 -58.18870209 820.32186856 -60.8729248 818.72663879 C-61.44096832 818.38997696 -62.00901184 818.05331512 -62.5942688 817.70645142 C-63.78699462 816.99833249 -64.97850215 816.2881578 -66.16882324 815.57600403 C-67.96043616 814.50457299 -69.7561465 813.44029909 -71.5526123 812.37702942 C-77.38351511 808.91301696 -83.10927099 805.34644289 -88.72253418 801.53938293 C-91.11439033 799.97104957 -93.5837867 798.66830132 -96.1619873 797.43367004 C-97.4323584 796.81878723 -97.4323584 796.81878723 -98.72839355 796.19148254 C-99.34585449 795.90015442 -99.96331543 795.60882629 -100.5994873 795.30867004 C-100.5994873 794.64867004 -100.5994873 793.98867004 -100.5994873 793.30867004 C-101.6513623 793.04054504 -102.7032373 792.77242004 -103.7869873 792.49617004 C-107.19644472 791.4342079 -109.70112639 790.35457187 -112.5994873 788.30867004 C-112.9294873 787.64867004 -113.2594873 786.98867004 -113.5994873 786.30867004 C-115.26200426 785.58446758 -116.92731691 784.8658891 -118.6072998 784.18318176 C-121.94992412 782.715868 -124.99836934 780.78619031 -128.0994873 778.87117004 C-129.35945377 778.10090189 -130.61986868 777.33136679 -131.8807373 776.56257629 C-132.49046387 776.19019836 -133.10019043 775.81782043 -133.72839355 775.43415833 C-136.65608604 773.67311157 -139.62590636 771.99088916 -142.5994873 770.30867004 C-142.5994873 769.64867004 -142.5994873 768.98867004 -142.5994873 768.30867004 C-143.3213623 768.22617004 -144.0432373 768.14367004 -144.7869873 768.05867004 C-148.16347691 767.15827281 -149.92046931 765.50683866 -152.5994873 763.30867004 C-153.92371601 762.94082874 -155.25562643 762.59664023 -156.5994873 762.30867004 C-156.9294873 761.64867004 -157.2594873 760.98867004 -157.5994873 760.30867004 C-159.1810228 759.63396834 -160.76497439 758.96459837 -162.35778809 758.31697083 C-167.11651556 756.17652817 -171.55102616 753.39922058 -176.0369873 750.74617004 C-177.56355957 749.8615509 -177.56355957 749.8615509 -179.12097168 748.95906067 C-180.56246582 748.10924622 -180.56246582 748.10924622 -182.03308105 747.24226379 C-183.34877075 746.46967224 -183.34877075 746.46967224 -184.69104004 745.68147278 C-185.32082764 745.22844788 -185.95061523 744.77542297 -186.5994873 744.30867004 C-186.5994873 743.64867004 -186.5994873 742.98867004 -186.5994873 742.30867004 C-187.32909668 742.19265442 -188.05870605 742.07663879 -188.8104248 741.95710754 C-191.64694253 741.29763704 -193.70029365 740.36491387 -196.2244873 738.93367004 C-196.97987793 738.51343567 -197.73526855 738.09320129 -198.5135498 737.66023254 C-200.5994873 736.30867004 -200.5994873 736.30867004 -201.9354248 734.83210754 C-203.95772929 732.98070203 -206.14812778 732.22607873 -208.65231323 731.18025208 C-211.85582187 729.74631733 -214.82236497 727.94865574 -217.8260498 726.14070129 C-218.49558685 725.74219467 -219.1651239 725.34368805 -219.85494995 724.93310547 C-221.98054948 723.66646586 -224.10249115 722.39383494 -226.2244873 721.12117004 C-227.62400396 720.28681162 -229.02374201 719.45282445 -230.42370605 718.61921692 C-237.93361142 714.14066445 -245.40721385 709.60698122 -252.84313965 705.00666809 C-254.66906224 703.88184155 -256.50262937 702.76932366 -258.34387207 701.66975403 C-260.98735427 700.07462325 -263.40055527 698.26397621 -265.85339355 696.39460754 C-267.57998372 695.1946828 -267.57998372 695.1946828 -269.75183105 694.78523254 C-270.36155762 694.62796692 -270.97128418 694.47070129 -271.5994873 694.30867004 C-271.9294873 693.64867004 -272.2594873 692.98867004 -272.5994873 692.30867004 C-274.27624177 691.56929011 -275.95618041 690.83603519 -277.65365601 690.14555359 C-280.71546251 688.82869972 -283.55484442 687.13538789 -286.41589355 685.43757629 C-287.03544418 685.07397507 -287.65499481 684.71037384 -288.2933197 684.33575439 C-289.59272739 683.57207792 -290.89097969 682.80643237 -292.18811035 682.03889465 C-294.15787251 680.87360431 -296.13126209 679.7146666 -298.10534668 678.55671692 C-299.37574648 677.80903949 -300.64593594 677.06100454 -301.91589355 676.31257629 C-302.78801231 675.79987938 -302.78801231 675.79987938 -303.67774963 675.27682495 C-313.38049263 669.52766471 -313.38049263 669.52766471 -316.5994873 666.30867004 C-318.0844873 665.72085754 -318.0844873 665.72085754 -319.5994873 665.12117004 C-323.85347178 663.39298885 -327.3175949 660.77008934 -330.9744873 658.02742004 C-333.47038463 656.39320155 -335.94441743 655.27796444 -338.6986084 654.15290833 C-342.26781295 652.56771576 -345.56895085 650.50524456 -348.9119873 648.49617004 C-350.02368286 647.83294739 -350.02368286 647.83294739 -351.15783691 647.15632629 C-352.62948701 646.27805502 -354.1002977 645.39837541 -355.57019043 644.51716614 C-357.34668743 643.45921858 -359.13615001 642.42310503 -360.9276123 641.39070129 C-361.82995605 640.86863098 -362.7322998 640.34656067 -363.6619873 639.80867004 C-364.43671387 639.36523254 -365.21144043 638.92179504 -366.00964355 638.46492004 C-366.53429199 638.08335754 -367.05894043 637.70179504 -367.5994873 637.30867004 C-367.5994873 636.64867004 -367.5994873 635.98867004 -367.5994873 635.30867004 C-368.21437012 635.12691223 -368.82925293 634.94515442 -369.46276855 634.75788879 C-370.27101074 634.50652161 -371.07925293 634.25515442 -371.9119873 633.99617004 C-372.71249512 633.75253723 -373.51300293 633.50890442 -374.33776855 633.25788879 C-376.77715309 632.23410565 -378.01393612 631.41775229 -379.5994873 629.30867004 C-380.57644447 625.53716099 -380.38524218 621.74327591 -378.50231934 618.30549622 C-378.02133789 617.64009827 -377.54035645 616.97470032 -377.0447998 616.28913879 C-373.07536735 610.59526636 -369.50146441 604.68414337 -365.9119873 598.74617004 C-365.1697998 597.52156067 -364.4276123 596.29695129 -363.6854248 595.07234192 C-357.6955732 585.17579561 -351.78936327 575.23022425 -345.89605713 565.27598572 C-339.64741516 554.72335308 -333.32279905 544.22007739 -326.9432373 533.74617004 C-321.79287842 525.28826186 -316.68675468 516.80466064 -311.5994873 508.30867004 C-305.82290964 498.66149684 -300.01124765 489.0369333 -294.1619873 479.43367004 C-288.48044163 470.10481043 -282.86706605 460.73785614 -277.30181885 451.3391571 C-270.95553798 440.62161313 -264.60050361 429.90928192 -258.16589355 419.24446106 C-257.41816043 418.00368332 -256.67220421 416.76183289 -255.92810059 415.51887512 C-254.90553003 413.81172587 -253.87574565 412.10890377 -252.84558105 410.40632629 C-252.26477783 409.44218811 -251.68397461 408.47804993 -251.08557129 407.48469543 C-249.5994873 405.30867004 -249.5994873 405.30867004 -247.5994873 404.30867004 C-246.93740004 402.73676086 -246.27929837 401.16310913 -245.63562012 399.58357239 C-243.3403975 394.54424997 -240.31909799 389.86389325 -237.4744873 385.12117004 C-236.76427962 383.9304806 -236.0543237 382.73964095 -235.34460449 381.54866028 C-229.51930709 371.78777908 -223.62797174 362.06638281 -217.71008301 352.36140442 C-214.4228803 346.96935988 -211.15019568 341.570126 -207.93151855 336.13679504 C-207.37496582 335.19892151 -206.81841309 334.26104797 -206.24499512 333.29475403 C-205.2177967 331.5598913 -204.19475456 329.82255838 -203.17663574 328.08235168 C-202.72965332 327.32816956 -202.2826709 326.57398743 -201.82214355 325.79695129 C-201.4380835 325.14251038 -201.05402344 324.48806946 -200.6583252 323.813797 C-199.5994873 322.30867004 -199.5994873 322.30867004 -197.5994873 321.30867004 C-197.4344873 320.64867004 -197.2694873 319.98867004 -197.0994873 319.30867004 C-196.9344873 318.64867004 -196.7694873 317.98867004 -196.5994873 317.30867004 C-195.9394873 316.97867004 -195.2794873 316.64867004 -194.5994873 316.30867004 C-193.86719292 314.64436462 -193.1404374 312.9771718 -192.45495605 311.29304504 C-188.85168304 302.93476791 -188.85168304 302.93476791 -185.5994873 301.30867004 C-184.86732224 299.63952752 -184.14112609 297.96735393 -183.45425415 296.27906799 C-182.05673434 293.05752262 -180.24999085 290.10088208 -178.43933105 287.09773254 C-178.04879044 286.4441275 -177.65824982 285.79052246 -177.25587463 285.11711121 C-176.43697348 283.74947495 -175.6158541 282.38316464 -174.79260254 281.0181427 C-173.53030581 278.92257796 -172.27841864 276.82103288 -171.02722168 274.71882629 C-170.22770714 273.38642541 -169.42759823 272.05438097 -168.62683105 270.72273254 C-168.25283676 270.09363983 -167.87884247 269.46454712 -167.49351501 268.81639099 C-164.82914347 264.42349813 -164.82914347 264.42349813 -162.5994873 263.30867004 C-161.86719292 261.64436462 -161.1404374 259.9771718 -160.45495605 258.29304504 C-156.85168304 249.93476791 -156.85168304 249.93476791 -153.5994873 248.30867004 C-152.84447627 246.60168858 -152.09401973 244.89218381 -151.3885498 243.16413879 C-150.34377721 240.70737155 -149.12556497 238.49825974 -147.5994873 236.30867004 C-146.9394873 236.30867004 -146.2794873 236.30867004 -145.5994873 236.30867004 C-145.4447998 235.16398254 -145.4447998 235.16398254 -145.2869873 233.99617004 C-144.52498645 231.01743944 -143.74861709 230.37183464 -141.5994873 228.30867004 C-141.16249512 227.17945129 -141.16249512 227.17945129 -140.7166748 226.02742004 C-139.51537752 223.10398329 -138.01716844 220.86203763 -136.1619873 218.30867004 C-133.09457137 214.06861346 -130.28601436 209.97595005 -128.2869873 205.12117004 C-126.24130039 200.21784831 -123.38581506 195.8177942 -120.5994873 191.30867004 C-119.9188623 190.17816223 -119.2382373 189.04765442 -118.5369873 187.88288879 C-117.82889038 186.71217286 -117.12055947 185.54159841 -116.4119873 184.37117004 C-115.75843262 183.28964661 -115.10487793 182.20812317 -114.43151855 181.09382629 C-112.92822355 178.80843325 -111.52171405 177.19765944 -109.5994873 175.30867004 C-108.56846784 172.98887624 -107.57012214 170.65437089 -106.5994873 168.30867004 C-105.0369873 165.37117004 -105.0369873 165.37117004 -103.5994873 163.30867004 C-102.9394873 163.30867004 -102.2794873 163.30867004 -101.5994873 163.30867004 C-101.45253418 162.76339661 -101.30558105 162.21812317 -101.1541748 161.65632629 C-99.56763464 156.32226885 -97.40635413 152.17364447 -94.21276855 147.63288879 C-90.57685488 142.39470808 -87.42979659 136.82495241 -84.3494873 131.24617004 C-82.5994873 128.30867004 -82.5994873 128.30867004 -80.5994873 127.30867004 C-79.55229933 124.99612993 -78.55602366 122.66015524 -77.5994873 120.30867004 C-76.94660104 118.96853507 -76.28723136 117.63125476 -75.5994873 116.30867004 C-74.9394873 116.30867004 -74.2794873 116.30867004 -73.5994873 116.30867004 C-73.3313623 115.60742004 -73.0632373 114.90617004 -72.7869873 114.18367004 C-71.06887493 110.02402956 -69.37186301 106.26828835 -66.5369873 102.74617004 C-64.5440887 100.49234724 -64.5440887 100.49234724 -63.7791748 98.14851379 C-62.18337477 94.30696868 -60.0115352 90.9392168 -57.7869873 87.43367004 C-57.14793457 86.41079895 -57.14793457 86.41079895 -56.49597168 85.36726379 C-54.41981932 82.06929105 -52.29144938 78.86362345 -49.96276855 75.73835754 C-48.01046515 73.04944306 -46.72959923 70.38442384 -45.4979248 67.28620911 C-43.48238142 62.84982284 -40.69698134 58.79588898 -38.0994873 54.68367004 C-36.94303208 52.83744441 -35.78677557 50.99109429 -34.6307373 49.14460754 C-33.86600098 47.93103577 -33.86600098 47.93103577 -33.08581543 46.69294739 C-31.56164245 44.24796163 -30.07598405 41.78269071 -28.5994873 39.30867004 C-27.96913574 38.26195129 -27.33878418 37.21523254 -26.68933105 36.13679504 C-22.09078057 28.49472316 -17.53479317 20.82995948 -13.05041504 13.12019348 C-5.51155338 0.22473149 -5.51155338 0.22473149 0 0 Z " fill="#BFB48C" transform="translate(1589.5994873046875,-0.3086700439453125)"/>
<path d="M0 0 C11.88 0 23.76 0 36 0 C36 285.12 36 570.24 36 864 C31.3065269 862.43550897 27.82263299 860.94602812 23.625 858.5 C22.56539062 857.8915625 21.50578125 857.283125 20.4140625 856.65625 C19.61742187 856.1096875 18.82078125 855.563125 18 855 C18 854.34 18 853.68 18 853 C17.05125 852.71125 16.1025 852.4225 15.125 852.125 C12 851 12 851 10 849 C7.93125966 848.3574765 7.93125966 848.3574765 6 848 C6 847.34 6 846.68 6 846 C4.98808594 845.7525 3.97617188 845.505 2.93359375 845.25 C-1.05599769 844.10810636 -4.44787553 842.21156453 -7.9375 840 C-8.52595703 839.64421875 -9.11441406 839.2884375 -9.72070312 838.921875 C-11.18701061 838.00905176 -12.59949749 837.01088903 -14 836 C-14 835.34 -14 834.68 -14 834 C-14.61488281 833.80664062 -15.22976563 833.61328125 -15.86328125 833.4140625 C-17.07564453 833.02347656 -17.07564453 833.02347656 -18.3125 832.625 C-19.51326172 832.24214844 -19.51326172 832.24214844 -20.73828125 831.8515625 C-23 831 -23 831 -26 829 C-26 828.34 -26 827.68 -26 827 C-26.721875 826.896875 -27.44375 826.79375 -28.1875 826.6875 C-31.27793421 825.93206053 -33.41743841 824.84468685 -36 823 C-36 822.34 -36 821.68 -36 821 C-36.721875 820.731875 -37.44375 820.46375 -38.1875 820.1875 C-41 819 -41 819 -43.375 817.5625 C-46.49213703 815.70706129 -49.64695016 814.38066758 -53 813 C-53 812.34 -53 811.68 -53 811 C-54.134375 810.71125 -55.26875 810.4225 -56.4375 810.125 C-57.613125 809.75375 -58.78875 809.3825 -60 809 C-60.33 808.34 -60.66 807.68 -61 807 C-62.56241197 806.34606915 -64.12632802 805.69561751 -65.6953125 805.05761719 C-70.85828815 802.68833641 -75.64773854 799.56473267 -80.5 796.625 C-81.60214844 795.965 -82.70429687 795.305 -83.83984375 794.625 C-88.34428249 791.91044028 -92.80443188 789.22000147 -97.03125 786.0859375 C-99.66526724 784.23519381 -100.98148263 783.61491325 -104 783 C-104 782.34 -104 781.68 -104 781 C-104.71414063 780.72285156 -105.42828125 780.44570313 -106.1640625 780.16015625 C-116.06143374 776.11123165 -125.15800818 770.63412202 -134.24755859 765.06201172 C-137.57584074 763.04501153 -140.95994668 761.12042068 -144.33984375 759.19140625 C-144.88769531 758.79824219 -145.43554688 758.40507813 -146 758 C-146 757.34 -146 756.68 -146 756 C-146.721875 755.71125 -147.44375 755.4225 -148.1875 755.125 C-150.79166667 754.08333333 -153.39583333 753.04166667 -156 752 C-156 751.34 -156 750.68 -156 750 C-156.78375 749.855625 -157.5675 749.71125 -158.375 749.5625 C-161 749 -161 749 -163 748 C-163 747.34 -163 746.68 -163 746 C-164.134375 745.71125 -165.26875 745.4225 -166.4375 745.125 C-167.613125 744.75375 -168.78875 744.3825 -170 744 C-170.33 743.34 -170.66 742.68 -171 742 C-172.61250645 741.31168275 -174.22728817 740.62833034 -175.8515625 739.96826172 C-180.10810024 738.04991755 -184.02466204 735.49813617 -188 733.0625 C-189.72876127 732.01105192 -191.45792061 730.96025802 -193.1875 729.91015625 C-194.00347656 729.41402832 -194.81945313 728.91790039 -195.66015625 728.40673828 C-198.7450731 726.55205434 -201.86465558 724.76789122 -205 723 C-205 722.34 -205 721.68 -205 721 C-205.78375 720.855625 -206.5675 720.71125 -207.375 720.5625 C-210 720 -210 720 -212 719 C-212 718.34 -212 717.68 -212 717 C-213.134375 716.71125 -214.26875 716.4225 -215.4375 716.125 C-216.613125 715.75375 -217.78875 715.3825 -219 715 C-219.33 714.34 -219.66 713.68 -220 713 C-221.66227336 712.26859972 -223.32771568 711.54315827 -225.01171875 710.86328125 C-228.16210224 709.49543302 -231.04632459 707.74809361 -234 706 C-234 705.34 -234 704.68 -234 704 C-234.94875 703.79117188 -235.8975 703.58234375 -236.875 703.3671875 C-242.07983789 701.87747283 -246.43647952 698.96528066 -251 696.125 C-252.72879604 695.06449974 -254.457956 694.00459249 -256.1875 692.9453125 C-257.00347656 692.44290039 -257.81945313 691.94048828 -258.66015625 691.42285156 C-261.73889859 689.55067811 -264.85960334 687.76647312 -268 686 C-268 685.34 -268 684.68 -268 684 C-269.051875 683.731875 -270.10375 683.46375 -271.1875 683.1875 C-275.2017567 681.93715775 -278.49847459 680.63802772 -281.375 677.5 C-283.85406729 675.2116302 -286.9198694 674.31190748 -290 673 C-290.33 672.34 -290.66 671.68 -291 671 C-292.66541518 670.27426492 -294.33361806 669.55412425 -296.01660156 668.87011719 C-299.31503319 667.42309474 -302.31692615 665.51699715 -305.375 663.625 C-306.68551026 662.82569436 -307.99670689 662.02751297 -309.30859375 661.23046875 C-309.93749512 660.84810059 -310.56639648 660.46573242 -311.21435547 660.07177734 C-314.75349475 657.94751956 -318.36742831 655.95902918 -322 654 C-322 653.34 -322 652.68 -322 652 C-322.763125 651.896875 -323.52625 651.79375 -324.3125 651.6875 C-327.26578515 650.93200845 -327.95867834 650.13007477 -330 648 C-331.32860925 647.64830932 -332.66158328 647.31229724 -334 647 C-334.33 646.34 -334.66 645.68 -335 645 C-336.57291137 644.33243983 -338.14804918 643.66986505 -339.73095703 643.02636719 C-344.67035888 640.79210365 -349.27479095 637.8785458 -353.9375 635.125 C-354.98357422 634.51269531 -356.02964844 633.90039062 -357.10742188 633.26953125 C-362.79428722 629.93104462 -368.42804986 626.52689022 -374 623 C-373.49591038 617.78421557 -370.80963685 613.99892516 -368.0625 609.6875 C-367.60681641 608.94693359 -367.15113281 608.20636719 -366.68164062 607.44335938 C-364.13160599 603.39242588 -364.13160599 603.39242588 -363 602 C-362.34 602 -361.68 602 -361 602 C-360.566875 600.2675 -360.566875 600.2675 -360.125 598.5 C-358.38263544 593.3592397 -355.67764016 589.03611356 -352.75610352 584.51074219 C-347.18582638 575.84259366 -342.00235443 566.94447867 -336.77709961 558.06588745 C-335.55244839 555.98554817 -334.32513177 553.90679865 -333.09765625 551.828125 C-332.72923111 551.19953079 -332.36080597 550.57093658 -331.98121643 549.92329407 C-330.14170392 546.81046319 -328.24360611 543.83764431 -326 541 C-322.34779258 541.70942158 -319.35713004 543.23825197 -316.0625 544.9375 C-312.42402567 546.80963534 -308.82470101 548.54196481 -305 550 C-305 550.66 -305 551.32 -305 552 C-304.41863281 552.12632812 -303.83726563 552.25265625 -303.23828125 552.3828125 C-301.0173057 552.9952281 -299.22250804 553.80568824 -297.1875 554.875 C-294.61676364 556.20321378 -292.13167118 557.3503783 -289.4375 558.4375 C-286.71770532 559.67377031 -284.88623413 560.73879879 -282.5625 562.5 C-279.50101654 564.79268044 -276.53820193 566.07895158 -272.93359375 567.30859375 C-270.16531805 568.29846203 -267.59925141 569.63539301 -265 571 C-265 571.66 -265 572.32 -265 573 C-264.29875 573.0825 -263.5975 573.165 -262.875 573.25 C-259.34718852 574.17029865 -256.99900446 575.95812462 -254 578 C-251.77397385 578.76939681 -251.77397385 578.76939681 -250 579 C-250 579.66 -250 580.32 -250 581 C-245.6960081 582.74849671 -241.35249409 584.3770361 -237 586 C-237 586.66 -237 587.32 -237 588 C-235.68 588 -234.36 588 -233 588 C-233 588.66 -233 589.32 -233 590 C-231.35 590.33 -229.7 590.66 -228 591 C-228 591.66 -228 592.32 -228 593 C-227.29488281 593.11214844 -226.58976562 593.22429688 -225.86328125 593.33984375 C-220.94393635 594.47404469 -216.55031997 596.86189785 -212 599 C-212.0097435 598.04163742 -212.019487 597.08327484 -212.02952576 596.09587097 C-212.09425353 586.80640585 -211.82305238 577.57826939 -211.28978157 568.30501747 C-211.15520279 565.96463864 -211.02619308 563.62400214 -210.89830017 561.2832489 C-210.67051505 557.13015276 -210.4380818 552.97733278 -210.20404053 548.82458496 C-209.78807463 541.4419526 -209.37761117 534.05902558 -208.97265625 526.67578125 C-208.90675734 525.48080709 -208.90675734 525.48080709 -208.83952713 524.26169205 C-208.18101679 512.25781643 -207.66618088 500.25805446 -207.33839417 488.24006653 C-207.17652721 482.64450906 -206.84708753 477.13679363 -206.24085999 471.57298279 C-205.76083254 466.44509762 -205.63705259 461.29821369 -205.46875 456.15234375 C-205.42721802 454.93489975 -205.38568604 453.71745575 -205.34289551 452.46311951 C-204.94815502 440.36943722 -204.73430049 428.27423929 -204.5541687 416.17575073 C-204.24832599 395.77492224 -203.88065028 375.38521345 -203 355 C-202.34 355 -201.68 355 -201 355 C-201.19142578 353.16501953 -201.19142578 353.16501953 -201.38671875 351.29296875 C-202.40877287 336.76934739 -198.31287072 327.74574866 -190 316 C-185.75946697 316.98168788 -182.28100655 318.82825267 -178.4375 320.84375 C-176.26966961 321.8720798 -174.34108569 322.52311217 -172 323 C-172 323.66 -172 324.32 -172 325 C-171.14664062 325.25136719 -170.29328125 325.50273437 -169.4140625 325.76171875 C-165.75211734 327.0899071 -162.71146969 328.80678316 -159.375 330.8125 C-153.14059496 334.49182101 -146.7730288 337.41979855 -140 340 C-140 340.66 -140 341.32 -140 342 C-136.37802806 343.49140021 -132.72433382 344.7874262 -129 346 C-129 346.66 -129 347.32 -129 348 C-127.02 348.33 -125.04 348.66 -123 349 C-123 349.66 -123 350.32 -123 351 C-121.35 351.33 -119.7 351.66 -118 352 C-118 352.66 -118 353.32 -118 354 C-117.319375 354.0825 -116.63875 354.165 -115.9375 354.25 C-111.27937983 355.43930728 -107.45813617 358.07532828 -103.4375 360.625 C-100.70775986 362.16485341 -97.99397778 363.09484393 -95 364 C-95 364.66 -95 365.32 -95 366 C-92.03 366.99 -89.06 367.98 -86 369 C-85.97494385 367.74977051 -85.9498877 366.49954102 -85.92407227 365.21142578 C-85.82926629 360.53344022 -85.72923009 355.85557811 -85.62768555 351.17773438 C-85.58461145 349.16051133 -85.54291951 347.14325825 -85.50268555 345.12597656 C-85.44430947 342.21149679 -85.38081622 339.29716445 -85.31640625 336.3828125 C-85.29969376 335.49385284 -85.28298126 334.60489319 -85.26576233 333.68899536 C-85.24581711 332.82885834 -85.22587189 331.96872131 -85.20532227 331.08251953 C-85.18200584 329.96999313 -85.18200584 329.96999313 -85.15821838 328.83499146 C-85.01802989 326.32306351 -84.78303685 323.85093253 -84.51721191 321.34997559 C-83.96814955 316.00894122 -83.71293145 310.68211365 -83.51928711 305.31787109 C-83.46054665 303.79412369 -83.46054665 303.79412369 -83.40061951 302.23959351 C-83.27327732 298.91764517 -83.15027535 295.59555172 -83.02734375 292.2734375 C-82.9393611 289.95601394 -82.85110521 287.63860073 -82.7625885 285.32119751 C-82.53136397 279.24853395 -82.30383179 273.17573755 -82.0770874 267.10290527 C-81.84465185 260.89534136 -81.6086981 254.68791127 -81.37304688 248.48046875 C-80.91193546 236.32044038 -80.45472755 224.16026865 -80 212 C-79.34 212 -78.68 212 -78 212 C-78.01047363 211.10547119 -78.02094727 210.21094238 -78.03173828 209.28930664 C-78.22630379 189.72315876 -78.04910475 170.1761566 -77.36322021 150.61984253 C-77.28773362 148.41475914 -77.21892723 146.20943696 -77.15679932 144.00393677 C-77.06674028 140.89350149 -76.95108914 137.78506755 -76.828125 134.67578125 C-76.80501251 133.73994202 -76.78190002 132.80410278 -76.75808716 131.83990479 C-76.46312285 125.45925483 -76.46312285 125.45925483 -74.04150391 123.05786133 C-73.36780762 122.70876709 -72.69411133 122.35967285 -72 122 C-70.44002285 119.372347 -70.44002285 119.372347 -69.125 116.375 C-66.50247806 110.88430217 -63.46732384 105.98427802 -60 101 C-58.2530923 98.28258803 -56.91852767 95.80189615 -55.6875 92.80859375 C-54.01968043 88.88178992 -51.92301933 85.31376712 -49.6875 81.6875 C-48.88783826 80.37641342 -48.08835968 79.06521511 -47.2890625 77.75390625 C-46.90008789 77.11855957 -46.51111328 76.48321289 -46.11035156 75.82861328 C-44.08935577 72.50028028 -42.14298818 69.12721036 -40.19140625 65.7578125 C-39 64 -39 64 -37 63 C-36.32321075 61.10499011 -35.64733928 59.20964646 -34.9765625 57.3125 C-33.57421954 53.99175188 -31.60630678 51.19031097 -29.55078125 48.2421875 C-27.63635749 45.47422973 -25.90416964 42.61314929 -24.17578125 39.7265625 C-23 38 -23 38 -21.46484375 36.55859375 C-19.65954488 34.63775575 -19.09695949 32.92644226 -18.25 30.4375 C-16.38030994 25.49978571 -13.82013285 21.55051308 -10.68359375 17.32421875 C-8.15673931 13.83586981 -6.05103328 10.12288493 -3.9375 6.375 C-2.69399863 4.20890084 -1.3854498 2.0781747 0 0 Z " fill="#F7C7B1" transform="translate(1602,0)"/>
<path d="M0 0 C2.8125 1.375 2.8125 1.375 5 3 C5 3.66 5 4.32 5 5 C7.475 5.495 7.475 5.495 10 6 C10 6.66 10 7.32 10 8 C10.70125 8.0825 11.4025 8.165 12.125 8.25 C16.85782856 9.48465093 20.3069946 12.48364304 24.1875 15.375 C28.03805462 18.15357393 32.16146649 20.34920144 36.3515625 22.5703125 C38.1452385 23.53858007 39.91501633 24.55223453 41.66015625 25.60546875 C44.04027003 27.02400067 46.40647501 28.03669072 49 29 C49 29.66 49 30.32 49 31 C49.680625 31.0825 50.36125 31.165 51.0625 31.25 C54.8746907 32.22332528 57.64070329 33.95807455 61 36 C61 36.66 61 37.32 61 38 C62.00289062 38.23332031 63.00578125 38.46664062 64.0390625 38.70703125 C68.36992505 39.95294038 71.68640971 42.15624804 75.375 44.6875 C82.87849791 49.68669264 90.52133231 54.41936889 98.25 59.0625 C99.3332959 59.71758545 100.4165918 60.3726709 101.53271484 61.04760742 C102.5583252 61.66224854 103.58393555 62.27688965 104.640625 62.91015625 C105.55360352 63.45808838 106.46658203 64.00602051 107.40722656 64.57055664 C109.88744875 65.93794844 112.34882908 67.01193957 115 68 C115 68.66 115 69.32 115 70 C115.763125 70.103125 116.52625 70.20625 117.3125 70.3125 C120.31242764 71.07992335 120.88239908 71.88239908 123 74 C126.10007201 75.20049407 126.10007201 75.20049407 129 76 C129 76.66 129 77.32 129 78 C129.55429688 78.27328125 130.10859375 78.5465625 130.6796875 78.828125 C137.87772145 82.46349568 144.8651113 86.4445174 151.7109375 90.703125 C154.07804032 92.04421397 156.4548453 93.04669117 159 94 C159 94.66 159 95.32 159 96 C159.67289063 96.07605469 160.34578125 96.15210938 161.0390625 96.23046875 C164.96333048 97.25036426 167.96168475 99.17061041 171.375 101.3125 C172.65320021 102.10098326 173.93184433 102.88874739 175.2109375 103.67578125 C175.84483398 104.06846191 176.47873047 104.46114258 177.13183594 104.86572266 C178.87007921 105.92111709 180.64112398 106.92195867 182.4140625 107.91796875 C185.07477212 109.42228446 187.60929171 111.05267757 190.140625 112.765625 C195.88319599 116.63784208 201.81093794 120.18936091 207.75 123.75 C208.85988281 124.42160156 209.96976563 125.09320312 211.11328125 125.78515625 C212.18449219 126.42839844 213.25570313 127.07164062 214.359375 127.734375 C215.32327148 128.31413086 216.28716797 128.89388672 217.28027344 129.49121094 C219.80633518 130.89256297 222.29459227 131.99731364 225 133 C225 133.66 225 134.32 225 135 C225.71929688 135.10570312 226.43859375 135.21140625 227.1796875 135.3203125 C230.2718047 136.06550418 232.42156073 137.21325293 235.125 138.875 C235.97320313 139.38804687 236.82140625 139.90109375 237.6953125 140.4296875 C240 142 240 142 241.46875 143.5078125 C243.53741874 145.52370908 245.82318441 146.65767509 248.375 148 C251.18299713 149.48522162 253.95502875 150.97288595 256.67578125 152.61328125 C259.04984569 154.02973986 261.41231468 155.03885974 264 156 C264 156.66 264 157.32 264 158 C265.0828125 158.1546875 265.0828125 158.1546875 266.1875 158.3125 C269.27793421 159.06793947 271.41743841 160.15531315 274 162 C274 162.66 274 163.32 274 164 C274.70318359 164.0925708 275.40636719 164.1851416 276.13085938 164.28051758 C279.56897918 165.14268053 281.92122354 166.60117894 284.90625 168.51171875 C286.06083665 169.24194522 287.21579855 169.97157864 288.37109375 170.70068359 C288.96712402 171.07980896 289.5631543 171.45893433 290.17724609 171.84954834 C293.16743045 173.73683688 296.19342273 175.56431012 299.21875 177.39453125 C300.42975081 178.12945299 301.64068819 178.86447924 302.8515625 179.59960938 C303.45129883 179.9633667 304.05103516 180.32712402 304.66894531 180.7019043 C306.52694769 181.82884467 308.38459505 182.95636846 310.2421875 184.08398438 C313.49394992 186.05738321 316.74579922 188.03062316 320 190 C320.89396484 190.54744873 321.78792969 191.09489746 322.70898438 191.65893555 C325.07260249 193.04249845 327.43578607 194.04757768 330 195 C330 195.66 330 196.32 330 197 C330.71929688 197.10570312 331.43859375 197.21140625 332.1796875 197.3203125 C335.2718047 198.06550418 337.42156073 199.21325293 340.125 200.875 C340.97320313 201.38804687 341.82140625 201.90109375 342.6953125 202.4296875 C345 204 345 204 346.60546875 205.62109375 C348.71468678 207.70667908 351.19977623 208.19104647 354 209 C354 209.66 354 210.32 354 211 C354.6703125 211.2371875 355.340625 211.474375 356.03125 211.71875 C360.44193296 213.62230791 364.3963982 216.19618344 368.47265625 218.72265625 C371.90300545 220.82244576 375.18710337 222.65082119 379 224 C379 224.66 379 225.32 379 226 C379.721875 226.268125 380.44375 226.53625 381.1875 226.8125 C383.98122462 227.99207262 386.40366234 229.4421974 389 231 C389.76441406 231.29003906 390.52882813 231.58007812 391.31640625 231.87890625 C394.2784616 233.11632966 396.75922241 234.67097648 399.4375 236.4375 C402.30629538 238.29896135 405.06450874 240.03225437 408.125 241.5625 C410.7579442 242.8789721 413.01680159 244.33602412 415.4375 246 C419.17755338 248.54830756 422.779792 250.38375013 427 252 C427 251.34 427 250.68 427 250 C427.70125 249.7525 428.4025 249.505 429.125 249.25 C432.38520287 247.83252049 435.04980402 245.98471785 438 244 C440.17116652 242.65365284 442.34997625 241.31957518 444.53515625 239.99609375 C445.43686806 239.44925682 445.43686806 239.44925682 446.35679626 238.89137268 C448.25795117 237.73884469 450.1602106 236.58815428 452.0625 235.4375 C453.34186883 234.6622281 454.62116631 233.88683846 455.90039062 233.11132812 C459.26557583 231.07197849 462.63173284 229.03425715 466 227 C466.91322021 226.43547119 467.82644043 225.87094238 468.76733398 225.28930664 C471 224 471 224 473.125 223.5 C475.49641526 222.8676226 476.2783938 221.72992314 478 220 C479.22320067 219.12780474 480.4754686 218.29530759 481.75 217.5 C482.70132813 216.89671875 482.70132813 216.89671875 483.671875 216.28125 C486 215 486 215 489.41015625 213.5703125 C492.80424995 212.08562734 495.61658626 210.43320921 498.6875 208.375 C505.515448 203.88750175 512.45937934 199.59208682 519.43301392 195.33599854 C520.67403064 194.5776498 521.91378523 193.81723126 523.15219116 193.05462646 C529.26320316 189.29338531 535.29310968 185.74234328 541.92578125 182.97265625 C545.03017612 181.51692306 547.75587073 179.59955316 550.57177734 177.65478516 C555.20953422 174.49424663 560.02400743 171.61226328 564.8125 168.6875 C565.83537109 168.05521484 566.85824219 167.42292969 567.91210938 166.77148438 C568.89630859 166.17013672 569.88050781 165.56878906 570.89453125 164.94921875 C572.22254761 164.13457153 572.22254761 164.13457153 573.57739258 163.3034668 C576 162 576 162 578.2565918 161.44067383 C578.8319165 161.29525146 579.40724121 161.1498291 580 161 C580.33 160.34 580.66 159.68 581 159 C582.62480076 158.28914967 584.25259312 157.58437951 585.89453125 156.9140625 C590.62201077 154.86168735 595.39844593 152.60155407 599.0625 148.9375 C601.28188314 146.71811686 603.63508767 145.70423685 606.42944336 144.34057617 C612.03356686 141.41795844 617.36649943 137.99477241 622.75 134.6875 C647.41244326 119.57596808 647.41244326 119.57596808 655.0859375 116.01953125 C657.17947384 114.94479879 657.17947384 114.94479879 659.71557617 113.1887207 C664.73849002 109.84148049 669.88350034 106.69545293 675.03100586 103.54492188 C676.30230213 102.76478976 677.57151592 101.98125388 678.83862305 101.19433594 C680.68835232 100.04594738 682.54451848 98.90866989 684.40234375 97.7734375 C685.50054443 97.09716309 686.59874512 96.42088867 687.73022461 95.72412109 C691 94 691 94 694.84985352 92.95166016 C695.88940186 92.6376123 696.9289502 92.32356445 698 92 C698.33 91.01 698.66 90.02 699 89 C700.86658205 88.00969799 702.7416821 87.03245957 704.65429688 86.13427734 C708.82970435 84.11523664 712.76810712 81.68487141 716.75 79.3125 C717.67868896 78.76231201 718.60737793 78.21212402 719.56420898 77.64526367 C725.22808361 74.27924819 730.86531337 70.87122 736.48828125 67.4375 C737.11824005 67.05321335 737.74819885 66.6689267 738.39724731 66.272995 C741.50814873 64.37473286 744.61622388 62.47210284 747.71972656 60.56176758 C748.86646119 59.86006579 750.0132677 59.15848145 751.16015625 58.45703125 C752.16699463 57.83803955 753.17383301 57.21904785 754.21118164 56.58129883 C756.76742696 55.13187215 759.27603962 54.08117687 762 53 C763.29542683 52.19794177 764.56477859 51.35262893 765.80859375 50.47265625 C772.68213249 45.78453575 779.89662364 41.65764895 787.0625 37.4375 C789.88752151 35.77088763 792.71150082 34.10251928 795.53515625 32.43359375 C796.53852524 31.84192162 796.53852524 31.84192162 797.56216431 31.23829651 C800.97374203 29.22143832 804.34856048 27.16560013 807.68359375 25.0234375 C810.48972351 23.31133477 812.87100918 22.11641915 816 21.1875 C816.763125 20.95417969 817.52625 20.72085938 818.3125 20.48046875 C818.869375 20.32191406 819.42625 20.16335938 820 20 C820 19.34 820 18.68 820 18 C820.95132813 17.46761719 821.90265625 16.93523438 822.8828125 16.38671875 C825.88708038 14.67312302 828.82016986 12.86967358 831.7421875 11.01953125 C832.58136719 10.49552734 833.42054688 9.97152344 834.28515625 9.43164062 C836.01141055 8.35240623 837.7302451 7.26121187 839.44140625 6.15820312 C844.69533521 2.9117095 849.65529198 0.35912859 856 1 C859.0625 3.125 859.0625 3.125 861 6 C861.37257167 8.92468765 861.4151383 10.40189801 859.71484375 12.8515625 C859.12832031 13.43679688 858.54179687 14.02203125 857.9375 14.625 C854.32303236 18.48723357 851.60093075 22.57352115 848.87109375 27.09375 C846.90367057 30.14962233 844.7684495 33.01386537 842.57250977 35.90722656 C840.05424044 39.2586634 837.65595483 42.69250445 835.25 46.125 C834.19303366 47.62783303 833.13573737 49.13043405 832.078125 50.6328125 C831.55798828 51.37176758 831.03785156 52.11072266 830.50195312 52.87207031 C828.34772928 55.92412086 826.17543567 58.96304939 824 62 C820.31164672 67.15148939 816.65008326 72.32132858 813 77.5 C808.95192415 83.24333605 804.88453281 88.97204352 800.79345703 94.68481445 C797.46528967 99.33694141 794.1684345 104.0107407 790.875 108.6875 C787.65841645 113.25448451 784.42911751 117.80816886 781.125 122.3125 C776.74797791 128.2944302 772.52128826 134.38027009 768.27832031 140.45751953 C764.44454358 145.94562528 760.5829126 151.4117094 756.68139648 156.85180664 C753.4925148 161.30094163 750.33761692 165.77335707 747.1875 170.25 C743.02764058 176.16102712 738.81235502 182.02841921 734.5625 187.875 C730.11948138 193.99126871 725.80207349 200.17868428 721.5625 206.4375 C716.6272642 213.72075452 711.48654602 220.82032108 706.23071289 227.87475586 C702.18455782 233.32924425 698.30321562 238.87387975 694.5 244.5 C689.49557171 251.90257481 684.28272911 259.12084349 678.95361328 266.29248047 C674.94689831 271.69127349 671.06875227 277.15193314 667.26953125 282.69921875 C658.96382348 294.82398568 650.34673099 306.7395009 641.79101562 318.68847656 C635.33411067 327.70838808 628.92304401 336.75981471 622.53222656 345.82666016 C619.52523741 350.09183183 616.51474129 354.35452874 613.50488281 358.61767578 C610.97863834 362.19611015 608.45328396 365.77516634 605.9296875 369.35546875 C599.65174407 378.26006208 593.34266134 387.14140794 587 396 C585.27020188 398.41621554 583.54096558 400.83283102 581.8125 403.25 C581.39137939 403.8387793 580.97025879 404.42755859 580.53637695 405.03417969 C578.1893566 408.32010063 575.86524823 411.620446 573.5625 414.9375 C570.69527549 419.05367945 567.73070657 423.09093765 564.75 427.125 C560.3931506 433.02855341 556.19369237 439.02405144 552.05786133 445.08398438 C547.87914912 451.20055297 543.58521226 457.22900606 539.26025391 463.24267578 C537.9324448 465.09420037 536.61191359 466.9507455 535.29296875 468.80859375 C534.84638916 469.43685059 534.39980957 470.06510742 533.93969727 470.71240234 C533.09150658 471.90601219 532.24426739 473.10029902 531.39819336 474.29541016 C530.27637223 475.87142975 529.13853521 477.43601215 528 479 C527.18730054 480.3120661 527.18730054 480.3120661 526.35818291 481.65063858 C523.6540696 484.34463634 522.08276132 484.60084998 518.32937062 484.67804122 C517.57470694 484.66825185 516.82004326 484.65846248 516.04251099 484.64837646 C515.23478331 484.65758755 514.42705564 484.66679863 513.59485137 484.67628884 C510.88458945 484.70094247 508.17566622 484.6897938 505.46533203 484.67871094 C503.52375135 484.68875894 501.58218055 484.70090529 499.640625 484.71499634 C494.36363932 484.74637797 489.087109 484.74571824 483.81005335 484.73749065 C479.40638141 484.7333358 475.0027994 484.74429585 470.59914291 484.75513482 C460.21039103 484.78029418 449.82186659 484.77913796 439.43310547 484.76171875 C428.71285803 484.74419907 417.99335447 484.77057729 407.27321732 484.81868529 C398.07221853 484.85844345 388.87145479 484.87109994 379.67037475 484.86197114 C374.17369596 484.85678362 368.67751612 484.86187689 363.18091202 484.89293671 C358.01120758 484.92095432 352.84262959 484.91511863 347.67295837 484.88322067 C345.77588237 484.87716134 343.87872501 484.88303701 341.98173141 484.90172958 C339.39033443 484.92536227 336.80270236 484.90581476 334.2114563 484.87542725 C333.08615295 484.90089618 333.08615295 484.90089618 331.93811619 484.92687964 C328.86743327 484.85212822 326.60113808 484.50913614 324.22602439 482.49752474 C321.36889597 479.2404448 319.22966958 475.78869914 317.1640625 471.9765625 C315.15409541 468.56366536 312.73676565 465.44579338 310.38671875 462.26171875 C307.63793608 458.52732606 304.97765164 454.73179895 302.3125 450.9375 C298.06860125 444.9020779 293.77276532 438.90758467 289.4375 432.9375 C284.766154 426.50386801 280.22597163 419.99405227 275.75292969 413.42138672 C272.83719881 409.1578587 269.78039204 405.05552043 266.5546875 401.01953125 C264.32446394 398.12248206 262.34911891 395.07435024 260.35546875 392.01171875 C258.90238843 389.79226712 258.90238843 389.79226712 256.625 387.0625 C255 385 255 385 255 383 C254.34 383 253.68 383 253 383 C252.401875 381.824375 251.80375 380.64875 251.1875 379.4375 C248.30584358 374.23745712 244.84633959 369.56171504 241.30053711 364.8059082 C238.19269094 360.6365922 235.18058929 356.42056491 232.25 352.125 C229.17644744 347.64342069 225.96473486 343.33782405 222.59375 339.078125 C220.53186314 336.38958625 218.6945774 333.58375751 216.83984375 330.75 C214.41298842 327.1225984 211.89631327 323.56216722 209.375 320 C208.8608252 319.27353271 208.34665039 318.54706543 207.81689453 317.79858398 C206.7511149 316.29373202 205.68502956 314.78909653 204.61865234 313.28466797 C201.97058383 309.54701712 199.32909621 305.80472652 196.6875 302.0625 C196.18081787 301.34529785 195.67413574 300.6280957 195.15209961 299.88916016 C192.56637694 296.22743909 189.99382993 292.5573324 187.4375 288.875 C185.38444636 285.923097 183.27866279 283.01755752 181.1328125 280.1328125 C180.62693604 279.45105957 180.12105957 278.76930664 179.59985352 278.06689453 C178.58902442 276.70788562 177.57399864 275.35198638 176.55444336 273.99951172 C173 269.22083616 173 269.22083616 173 267 C172.01 266.67 171.02 266.34 170 266 C169 264.4609375 169 264.4609375 168 262.375 C165.62777608 257.87988501 162.83840105 253.87902725 159.8125 249.8125 C159.33288818 249.16764648 158.85327637 248.52279297 158.35913086 247.85839844 C157.37994351 246.54369901 156.40020681 245.22940857 155.41992188 243.91552734 C153.26610536 241.00994888 151.16038512 238.07111065 149.0625 235.125 C148.65797607 234.5573291 148.25345215 233.9896582 147.83666992 233.40478516 C143.04861537 226.67506995 138.29053736 219.92409888 133.53222656 213.17333984 C132.01960487 211.02780793 130.50609721 208.88290448 128.9921875 206.73828125 C128.25029175 205.6872522 128.25029175 205.6872522 127.4934082 204.61499023 C126.50269329 203.21192283 125.51164836 201.80908838 124.52026367 200.40649414 C121.89889666 196.69658972 119.28573217 192.98123464 116.68359375 189.2578125 C116.14025391 188.48244141 115.59691406 187.70707031 115.03710938 186.90820312 C113.99561359 185.42162367 112.95642886 183.93342153 111.91992188 182.44335938 C111.45005859 181.77369141 110.98019531 181.10402344 110.49609375 180.4140625 C110.08544678 179.8257666 109.6747998 179.2374707 109.25170898 178.63134766 C108.0235667 176.93447104 108.0235667 176.93447104 106.34399414 175.47412109 C105 174 105 174 105 171 C104.01 170.67 103.02 170.34 102 170 C101 168.4609375 101 168.4609375 100 166.375 C97.67111797 161.97369021 94.96400419 158.04664139 92 154.0625 C91.52812256 153.42795898 91.05624512 152.79341797 90.57006836 152.13964844 C89.56799873 150.79430013 88.56529451 149.4494243 87.56201172 148.10498047 C84.86336832 144.46826535 82.21262584 140.79714747 79.5625 137.125 C79.02093262 136.37557129 78.47936523 135.62614258 77.92138672 134.85400391 C73.60284058 128.86550022 69.35356377 122.82977437 65.11547852 116.78417969 C61.99572116 112.35302222 58.7430748 108.06426859 55.3671875 103.82421875 C53.74368861 101.65800738 52.47956286 99.34173524 51.19140625 96.96484375 C49.64836569 94.42009161 47.86968306 92.11475314 46.0625 89.75 C42.1312433 84.59183149 38.4444901 79.30985281 34.8125 73.9375 C29.70590063 66.39713956 24.40131235 59.03288741 18.96582031 51.72680664 C15.57755192 47.16541943 12.2653843 42.56836313 9.0625 37.875 C6.54608483 34.18924693 3.96533367 30.61780352 1.1875 27.125 C-2.55222416 22.40706096 -5.39355502 17.4300937 -8 12 C-8.66 12 -9.32 12 -10 12 C-10.23822167 9.14133991 -10.42775712 6.80180916 -10 4 C-6.97563222 0.54357968 -4.57336954 -0.80033967 0 0 Z " fill="#BFB48B" transform="translate(1220,698)"/>
<path d="M0 0 C0 72.27 0 144.54 0 219 C7.66058678 215.19632698 7.66058678 215.19632698 15.1875 211.1875 C16.09242188 210.6925 16.99734375 210.1975 17.9296875 209.6875 C19.57247908 208.78459165 21.21464563 207.88051356 22.85253906 206.96875 C24.83484624 205.86692169 26.82325287 204.77673916 28.8125 203.6875 C29.43471436 203.33776123 30.05692871 202.98802246 30.69799805 202.62768555 C34.46401603 200.57886273 37.73559014 199.4506038 42 199 C42 198.34 42 197.68 42 197 C48.41199226 193.22823985 48.41199226 193.22823985 51.375 192.078125 C54.37766712 190.84488672 57.02991771 189.29527875 59.8125 187.625 C72.02255839 180.4276494 72.02255839 180.4276494 77.875 178.9375 C81.27395488 178.27976604 81.27395488 178.27976604 83 175 C84.98828125 174.12109375 84.98828125 174.12109375 87.3125 173.4375 C90.61404161 172.42573725 93.81179315 171.33698997 97 170 C97 169.34 97 168.68 97 168 C104.12990319 163.95011013 110.99468603 160.70635703 118.75 158.0625 C121.10478936 157.11257755 121.10478936 157.11257755 122.8125 155.125 C126.90917866 151.1453693 131.29445929 149 137 149 C137 148.34 137 147.68 137 147 C140 145 140 145 142.5 144.5625 C145.05730871 144.22115052 145.05730871 144.22115052 146.5625 142.4375 C147.036875 141.963125 147.51125 141.48875 148 141 C149.32 141 150.64 141 152 141 C152 140.34 152 139.68 152 139 C157.57765673 136.05966587 162.85326729 133.46987086 169 132 C169 131.34 169 130.68 169 130 C172.08297412 128.37431783 175.16644189 126.74957416 178.25 125.125 C179.55904297 124.43470703 179.55904297 124.43470703 180.89453125 123.73046875 C181.73886719 123.28574219 182.58320312 122.84101563 183.453125 122.3828125 C184.22817383 121.97434082 185.00322266 121.56586914 185.80175781 121.14501953 C186.52717773 120.76716309 187.25259766 120.38930664 188 120 C188.7113208 119.6184375 189.4226416 119.236875 190.15551758 118.84375 C192 118 192 118 194.05859375 118.1171875 C199.91192415 120.77886289 202.69165183 129.48003699 205 135 C206.28710064 137.13736712 207.62876909 139.22431701 209.01171875 141.30078125 C210 143 210 143 210 145 C210.99 145.33 211.98 145.66 213 146 C214.92171561 148.69040186 216.03293292 151.10073598 217.0625 154.25 C217.68714055 157.13618706 217.68714055 157.13618706 220 158 C220.4640625 159.7325 220.4640625 159.7325 220.9375 161.5 C221.288125 162.655 221.63875 163.81 222 165 C222.99 165.33 223.98 165.66 225 166 C226.45099172 168.58896709 227.75099187 171.12901072 229 173.8125 C231.06716247 178.1838492 233.02633936 182.16211923 236 186 C236 186.66 236 187.32 236 188 C236.66 188 237.32 188 238 188 C239.00508801 189.78881736 240.00392736 191.58114696 241 193.375 C241.8353125 194.87160156 241.8353125 194.87160156 242.6875 196.3984375 C244 199 244 199 244 201 C244.66 201 245.32 201 246 201 C246.39832031 201.83144531 246.79664063 202.66289063 247.20703125 203.51953125 C247.73683594 204.60621094 248.26664063 205.69289063 248.8125 206.8125 C249.33457031 207.89144531 249.85664062 208.97039062 250.39453125 210.08203125 C251.77902086 212.59836638 252.9431097 214.08143858 255 216 C255.35169068 217.32860925 255.68770276 218.66158328 256 220 C256.66 220.33 257.32 220.66 258 221 C259.56893929 223.96026281 261.00792246 226.95407786 262.43359375 229.984375 C263.99418303 233.6393268 263.99418303 233.6393268 267 236 C267.86460953 237.40677392 268.66953009 238.85072549 269.4375 240.3125 C270.72212101 242.74885019 271.92041037 244.90205793 273.66015625 247.04296875 C275 249 275 249 275 253 C272.81263895 255.18736105 270.70346132 256.12154425 267.8359375 257.296875 C263.7053275 259.0425142 259.9850768 261.31826552 256.1875 263.6875 C249.26744186 268 249.26744186 268 247 268 C247 268.66 247 269.32 247 270 C246.30777344 270.32871094 245.61554688 270.65742187 244.90234375 270.99609375 C233.48617188 276.54624845 222.5103787 282.86721597 212.34375 290.4921875 C210.00015601 291.99989964 207.63118322 293.00081877 205.06152344 294.05761719 C200.64500139 296.07653892 196.5346498 298.69292316 192.375 301.1875 C191.40022705 301.76757812 190.4254541 302.34765625 189.42114258 302.9453125 C183.14501598 306.68858302 176.91072746 310.49340362 170.70703125 314.35546875 C167.46774614 316.32334614 164.16327851 318.13919217 160.8046875 319.89453125 C158.94059719 320.92774092 158.94059719 320.92774092 157.546875 322.54296875 C155.09369939 324.85366194 152.15239746 325.28866865 148.9609375 326.15625 C147.99027344 326.57390625 147.99027344 326.57390625 147 327 C146.67 327.99 146.34 328.98 146 330 C144.31631347 330.77868565 142.62579187 331.54713683 140.89904785 332.2250061 C138.08309643 333.37418471 135.53761832 334.90368549 132.921875 336.44921875 C132.36191833 336.77855911 131.80196167 337.10789948 131.22503662 337.44721985 C129.39765642 338.52335525 127.57383221 339.60536431 125.75 340.6875 C124.4552845 341.45152171 123.16035895 342.21518756 121.86523438 342.97851562 C117.90682414 345.31339921 113.95311483 347.65616577 110 350 C108.82490225 350.69618109 107.64977326 351.39230946 106.47460938 352.08837891 C102.05002972 354.70961494 97.62577045 357.33137574 93.20410156 359.95751953 C87.23074949 363.50315694 81.24792418 367.03129056 75.25 370.53515625 C74.60115845 370.91441254 73.95231689 371.29366882 73.28381348 371.68441772 C70.15896078 373.51056758 67.0327956 375.33440054 63.90429688 377.15429688 C57.66011163 380.7999923 51.49624405 384.53167699 45.42602539 388.4609375 C35.11849619 395 35.11849619 395 32 395 C31.67 395.99 31.34 396.98 31 398 C29.32791193 398.7714536 27.64883743 399.53210694 25.93469238 400.20495605 C22.91322604 401.44659971 20.171681 403.11127925 17.359375 404.765625 C16.75168274 405.12211121 16.14399048 405.47859741 15.5178833 405.84588623 C14.23945251 406.59696688 12.96218239 407.35002638 11.68603516 408.10498047 C9.77126465 409.23742355 7.85279548 410.36336789 5.93359375 411.48828125 C-0.71574127 415.39713784 -7.28910299 419.39334214 -13.7644043 423.5871582 C-20.74701918 428 -20.74701918 428 -24 428 C-24.33 428.99 -24.66 429.98 -25 431 C-26.66979347 431.77084364 -28.34665816 432.53072961 -30.05862427 433.20272827 C-33.11500022 434.45790114 -35.89613935 436.13659363 -38.74609375 437.80078125 C-39.66830467 438.33906807 -39.66830467 438.33906807 -40.60914612 438.88822937 C-41.90021337 439.64341591 -43.19007235 440.40067163 -44.47875977 441.15991211 C-46.42536666 442.30536034 -48.37738544 443.44113699 -50.33007812 444.57617188 C-56.27190147 448.05126311 -62.0971374 451.55408739 -67.51171875 455.828125 C-70.55912002 458.22765356 -73.67413548 459.86437017 -77.24609375 461.35107422 C-80.83041489 462.87551697 -84.14312757 464.71365879 -87.5 466.6953125 C-88.09376434 467.04433624 -88.68752869 467.39335999 -89.29928589 467.75296021 C-91.2019907 468.87285104 -93.10109945 469.99867282 -95 471.125 C-96.30990125 471.89837854 -97.61996043 472.67148964 -98.93017578 473.44433594 C-101.4840577 474.95200758 -104.03629949 476.46239347 -106.58691406 477.97558594 C-109.38640542 479.63605677 -112.18856605 481.29183341 -114.9921875 482.9453125 C-120.31136027 486.09914712 -125.48473288 489.26612058 -130.39111328 493.03808594 C-132 494 -132 494 -135 494 C-135.13722557 437.75993855 -135.24300325 381.5198937 -135.30639198 325.27969785 C-135.31389654 318.64544933 -135.32166244 312.01120115 -135.32958984 305.37695312 C-135.3303744 304.71675569 -135.33115895 304.05655826 -135.33196728 303.37635484 C-135.35834343 281.30105596 -135.40609659 259.2258604 -135.46291678 237.15062085 C-135.51895485 215.19672663 -135.55233764 193.24288297 -135.56453097 171.28892016 C-135.57277846 157.73365512 -135.59886059 144.17866229 -135.6474988 130.62348101 C-135.67912688 121.33794278 -135.68882051 112.05254602 -135.68100826 102.76695779 C-135.67715152 97.40336958 -135.68321149 92.04025819 -135.71523285 86.676754 C-135.74430608 81.77143566 -135.74598802 76.86691739 -135.72539337 71.9615632 C-135.72284591 70.18221456 -135.73056404 68.40281717 -135.74929909 66.62356535 C-135.77321555 64.2130745 -135.76051119 61.80551037 -135.73828697 59.39506912 C-135.75404905 58.69645649 -135.76981114 57.99784386 -135.78605086 57.27806115 C-135.74519098 55.33091092 -135.74519098 55.33091092 -135 52 C-131.15032699 48.75894031 -127.69726345 47.40271956 -122.8125 46.375 C-119.18433776 45.59916656 -117.1233729 45.0822486 -114 43 C-110.8125 42.875 -110.8125 42.875 -108 43 C-108 42.34 -108 41.68 -108 41 C-105.03 40.505 -105.03 40.505 -102 40 C-102 39.34 -102 38.68 -102 38 C-100.783125 37.62875 -99.56625 37.2575 -98.3125 36.875 C-94.36984334 35.57508832 -90.72918237 33.94502863 -87 32.125 C-81.16870892 29.35957507 -75.36167184 27.54106018 -69.16918945 25.8269043 C-64.06593286 24.38838306 -59.40800814 22.51719662 -54.6328125 20.1953125 C-50.73795415 18.4270237 -46.70695108 17.17061718 -42.62890625 15.89453125 C-40.03411543 15.08947052 -40.03411543 15.08947052 -37.90234375 13.88671875 C-36 13 -36 13 -32 13 C-32 12.34 -32 11.68 -32 11 C-30.97519531 10.67386719 -29.95039062 10.34773438 -28.89453125 10.01171875 C-27.53374877 9.57063753 -26.17307751 9.12921307 -24.8125 8.6875 C-23.80219727 8.36749023 -23.80219727 8.36749023 -22.77148438 8.04101562 C-18.82750242 6.75200689 -15.53535327 5.21499446 -12 3 C-9.68234271 2.28072705 -7.34904126 1.6090107 -5 1 C-2 0 -2 0 0 0 Z " fill="#FDEC92" transform="translate(1787,370)"/>
<path d="M0 0 C11.88 0 23.76 0 36 0 C41 7 41 7 42 11 C42.96302519 12.03565558 43.96655093 13.03460733 45 14 C45.91361177 15.28592177 46.78827245 16.60027591 47.625 17.9375 C48.05039063 18.60652344 48.47578125 19.27554687 48.9140625 19.96484375 C50 22 50 22 50.4609375 24.06640625 C50.84128037 26.06082602 50.84128037 26.06082602 52.3137207 27.27026367 C54.49105201 29.50370689 55.91286909 31.93522766 57.51953125 34.609375 C57.85501984 35.16468399 58.19050842 35.71999298 58.53616333 36.29212952 C59.63252268 38.10890008 60.72270959 39.9292827 61.8125 41.75 C62.9538622 43.64877888 64.09633112 45.54688841 65.2389679 47.44490051 C66.01462481 48.73347685 66.78975766 50.02236878 67.56437683 51.31156921 C70.06563124 55.46908585 72.60201661 59.60230972 75.1640625 63.72265625 C75.80239014 64.75358398 76.44071777 65.78451172 77.09838867 66.84667969 C78.2953968 68.77702016 79.49838581 70.70366891 80.70825195 72.62597656 C83.6372092 77.37156223 85.81474794 81.53591344 87 87 C87.66 87 88.32 87 89 87 C89.309375 87.99 89.309375 87.99 89.625 89 C91.16301503 92.35566915 93.11672821 94.92766891 95.359375 97.83984375 C99.9451174 103.87773791 103.7864895 110.22787736 107.3125 116.93359375 C109.75073477 121.3641824 112.38528876 125.6718876 115 130 C116.01251453 131.68962755 117.02424306 133.37972638 118.03515625 135.0703125 C118.53466797 135.90433594 119.03417969 136.73835937 119.54882812 137.59765625 C120.56241779 139.29002403 121.57543374 140.98273554 122.58789062 142.67578125 C125.33658895 147.2628716 128.12163802 151.8187023 131.00512695 156.32250977 C132.26726994 158.45065319 133.08276552 160.70691379 134 163 C134.804375 163.7734375 134.804375 163.7734375 135.625 164.5625 C137 166 137 166 137 170 C137.66 170 138.32 170 139 170 C142.11895188 174.31788046 144.72048659 179.05107797 146.6875 184 C147.78676422 187.24781009 147.78676422 187.24781009 151 189 C152.5 191.390625 152.5 191.390625 154 194.25 C154.52464844 195.23871094 155.04929687 196.22742188 155.58984375 197.24609375 C156.61619388 199.25046172 157.60181332 201.27584425 158.5625 203.3125 C159.99931653 205.9987222 161.74382687 208.02357623 163.74609375 210.30078125 C165.67899675 212.92013578 166.73120824 215.84969736 167.96875 218.84375 C169.02579016 221.28112847 169.02579016 221.28112847 171.5 224 C173.70222628 226.64267154 174.72002516 228.40328668 176 231.5 C177.44330538 234.98125259 179.07648979 237.39375736 181.640625 240.1953125 C184.18066389 243.5674331 185.79545454 247.47942259 187.5703125 251.29296875 C188.88444684 253.78120673 190.03543776 255.07172255 192 257 C192.90662589 258.65990555 193.75825581 260.3506448 194.5625 262.0625 C195.88650724 264.87137517 196.79645043 266.79645043 199 269 C199.66952773 270.66551939 200.33587864 272.33231747 201 274 C201.91778368 275.48418732 202.877414 276.94323149 203.875 278.375 C205.69346997 281.03681836 207.43888616 283.67950021 209 286.5 C211.00660421 290.1102084 213.30603389 293.49985217 215.609375 296.92578125 C219.81782757 303.20299562 219.81782757 303.20299562 220.5 306.1875 C220.89906646 308.40546281 220.89906646 308.40546281 224 310 C225.38671875 312.0234375 225.38671875 312.0234375 226.6875 314.375 C227.12449219 315.14585937 227.56148437 315.91671875 228.01171875 316.7109375 C229 319 229 319 229 323 C229.66 323 230.32 323 231 323 C231.4021875 324.4540625 231.4021875 324.4540625 231.8125 325.9375 C232.4003125 327.4534375 232.4003125 327.4534375 233 329 C233.99 329.33 234.98 329.66 236 330 C237.5 332.6171875 237.5 332.6171875 239 335.875 C240.70090883 339.55144356 242.11580234 342.20063168 245 345 C245.84450766 346.57698878 246.62777114 348.18715824 247.375 349.8125 C252.26728982 359.8943327 258.23701311 369.39958555 264 379 C264.51755859 379.86415527 265.03511719 380.72831055 265.56835938 381.61865234 C267.63926932 385.06334122 269.75646574 388.47921645 271.86987305 391.89794922 C274.53613217 396.22078874 277.12851359 400.58270826 279.67578125 404.9765625 C280.9132329 407.03126335 280.9132329 407.03126335 282.60546875 408.546875 C284 410 284 410 285 413.625 C285.33 414.73875 285.66 415.8525 286 417 C286.99 417.33 287.98 417.66 289 418 C290.17578125 419.71484375 290.17578125 419.71484375 291.3125 421.9375 C293.07432615 425.27708092 294.89978894 428.53172278 296.875 431.75 C299.14742659 435.50268411 301.25813304 439.31124641 303.3125 443.1875 C306.00960174 448.23930971 308.82188172 453.20344695 311.75 458.125 C312.12680908 458.7646167 312.50361816 459.4042334 312.8918457 460.06323242 C314.3435664 462.48103674 315.68810316 464.69800465 317.72265625 466.66796875 C320.13990963 469.1887131 319.72584921 472.65536033 320 476 C319.09378906 476.44730469 318.18757813 476.89460938 317.25390625 477.35546875 C311.14202665 480.38449879 305.08412911 483.45137662 299.1484375 486.81640625 C295.93975537 488.5840984 292.65053711 490.18136512 289.36328125 491.796875 C287.20739498 492.8944171 285.13801695 494.07155934 283.0625 495.3125 C280 497 280 497 277 497 C277 497.66 277 498.32 277 499 C275.90042969 499.50789063 274.80085938 500.01578125 273.66796875 500.5390625 C265.28371844 504.433007 257.05127774 508.44882081 249 513 C239.65341186 518.25659466 230.31140514 523.42617513 220.6875 528.16015625 C211.67008064 532.62158917 202.81026126 537.4163596 193.9453125 542.171875 C193.00147705 542.67811401 193.00147705 542.67811401 192.03857422 543.19458008 C190.81606575 543.85033607 189.59373154 544.50641705 188.37158203 545.1628418 C183.01696974 548.02383461 177.58261791 550.70902405 172.12109375 553.359375 C168.9148725 555.04474787 165.98627484 556.95392542 163 559 C158.75832535 561.65973861 154.82103692 563.39298769 150 565 C150 493.06 150 421.12 150 347 C138.42926381 351.32383672 138.42926381 351.32383672 127 356 C124.94031193 356.7775668 122.87211887 357.51926992 120.796875 358.25390625 C118.71482285 359.05056744 118.71482285 359.05056744 116 361 C114.01320626 361.64627239 112.01059932 362.24460236 110 362.8125 C104.65341921 364.40699028 99.74004177 366.37296397 94.7109375 368.76953125 C90.9921644 370.457447 87.17486899 371.78620027 83.3125 373.10546875 C80.78338754 373.98756925 80.78338754 373.98756925 78 376 C75.99182133 376.64498305 73.96854713 377.24361314 71.9375 377.8125 C66.73107845 379.36113593 62.14239406 381.30006405 57.3515625 383.828125 C52.32296316 386.33407151 47.62927154 388 42 388 C42 388.66 42 389.32 42 390 C38.66666667 391.33333333 35.33333333 392.66666667 32 394 C30.72189453 394.56074219 30.72189453 394.56074219 29.41796875 395.1328125 C27 396 27 396 23 396 C23 396.66 23 397.32 23 398 C22.04738281 398.33773438 21.09476563 398.67546875 20.11328125 399.0234375 C18.8463359 399.47390696 17.57940984 399.92443067 16.3125 400.375 C15.07113281 400.81585938 13.82976562 401.25671875 12.55078125 401.7109375 C10.44478069 402.47549216 8.35122438 403.27898288 6.29296875 404.1640625 C4 405 4 405 0 405 C0 271.35 0 137.7 0 0 Z " fill="#FBD58A" transform="translate(1652,0)"/>
<path d="M0 0 C1.65 0 3.3 0 5 0 C5.23589844 0.62777344 5.47179688 1.25554688 5.71484375 1.90234375 C7.37046187 4.60467485 8.54319733 4.79192356 11.5625 5.5625 C14.00390625 6.19140625 14.00390625 6.19140625 16 7 C16.33 7.99 16.66 8.98 17 10 C18.08861328 10.16822266 18.08861328 10.16822266 19.19921875 10.33984375 C22.12563993 11.02961387 24.22287809 12.05510814 26.8125 13.5625 C27.60269531 14.01753906 28.39289063 14.47257813 29.20703125 14.94140625 C29.79871094 15.29074219 30.39039063 15.64007812 31 16 C31 16.66 31 17.32 31 18 C31.68989014 18.25217285 32.37978027 18.5043457 33.09057617 18.76416016 C36.41421689 20.17594746 39.45925677 21.92423803 42.55078125 23.7734375 C43.16841843 24.13845367 43.7860556 24.50346985 44.42240906 24.87954712 C46.3877642 26.04137448 48.35037901 27.20772025 50.3125 28.375 C61.46137237 35.04351661 61.46137237 35.04351661 73 41 C73 41.66 73 42.32 73 43 C73.60328125 43.17015625 74.2065625 43.3403125 74.828125 43.515625 C75.62734375 43.75796875 76.4265625 44.0003125 77.25 44.25 C78.03890625 44.48203125 78.8278125 44.7140625 79.640625 44.953125 C82.42279357 46.18759715 83.85763082 47.85763082 86 50 C88.78481359 51.52752475 88.78481359 51.52752475 91.75 52.75 C92.73484375 53.17796875 93.7196875 53.6059375 94.734375 54.046875 C95.48203125 54.36140625 96.2296875 54.6759375 97 55 C97 55.66 97 56.32 97 57 C97.72832031 57.27328125 98.45664063 57.5465625 99.20703125 57.828125 C101.88308595 58.95094516 104.2184925 60.23186646 106.6875 61.75 C107.55117187 62.2759375 108.41484375 62.801875 109.3046875 63.34375 C111.1015625 64.44791667 112.8984375 65.55208333 114.6953125 66.65625 C115.55898437 67.1821875 116.42265625 67.708125 117.3125 68.25 C118.09238281 68.72953125 118.87226562 69.2090625 119.67578125 69.703125 C122.05748944 71.03207814 124.4488253 72.04274507 127 73 C127 73.66 127 74.32 127 75 C127.53367187 75.13535156 128.06734375 75.27070312 128.6171875 75.41015625 C133.17756675 76.72777448 136.78503295 78.37009342 140.61328125 81.1953125 C146.00281393 85.05891124 151.5934323 88.46236943 157.3125 91.8125 C158.27478516 92.38419922 159.23707031 92.95589844 160.22851562 93.54492188 C164.42071108 96.01382037 168.43707587 98.28070361 173 100 C173 100.66 173 101.32 173 102 C173.70125 102.2578125 174.4025 102.515625 175.125 102.78125 C179.34466043 104.5700191 183.14201776 106.98345967 187.0625 109.34375 C189.66854949 110.81311833 192.19709483 111.96952016 195 113 C195 113.66 195 114.32 195 115 C195.69673828 115.25523437 196.39347656 115.51046875 197.11132812 115.7734375 C200.3404214 117.14454675 203.21438559 118.81335924 206.21875 120.625 C206.79911011 120.97256348 207.37947021 121.32012695 207.97741699 121.67822266 C210.44214053 123.15443844 212.90172865 124.63912297 215.36181641 126.12304688 C217.16653754 127.20998662 218.97381928 128.29257394 220.78125 129.375 C221.85439453 130.02210938 222.92753906 130.66921875 224.03320312 131.3359375 C226.64969872 132.80351765 229.18792835 133.96986089 232 135 C232 135.66 232 136.32 232 137 C233.2684375 137.3403125 233.2684375 137.3403125 234.5625 137.6875 C238.01428289 139.00545347 240.35319294 140.57865771 243.2734375 142.765625 C247.1599143 145.54419212 251.56043162 147.30251797 256 149 C256 149.66 256 150.32 256 151 C256.639375 151.226875 257.27875 151.45375 257.9375 151.6875 C262.10869904 153.47515673 266.0329612 155.79608956 270 158 C270 230.27 270 302.54 270 377 C245.58 377 221.16 377 196 377 C192.535 372.05 192.535 372.05 189 367 C188.13375 365.989375 187.2675 364.97875 186.375 363.9375 C184.44936128 361.55578895 183.20165103 359.60931661 181.8125 356.9375 C179.68881795 352.96800084 177.15556505 349.46358663 174.375 345.9375 C170.57672338 341.11984344 167.00570284 336.20268117 163.5625 331.125 C160.01650958 325.89946105 156.39157616 320.75637157 152.625 315.6875 C148.50351505 310.13373641 144.56444314 304.47685214 140.6875 298.75 C135.71102547 291.40381097 130.53206871 284.24062611 125.23120117 277.12597656 C120.62191274 270.91215263 116.24572641 264.56299869 111.91430664 258.15356445 C107.33614141 251.41257464 102.54129135 244.84644337 97.66796875 238.31640625 C94.65774246 234.27932707 91.78748998 230.19572296 89 226 C86.76449033 223.01276084 84.49399748 220.05469878 82.21875 217.09765625 C80.64379725 214.89882257 79.31877817 212.86397474 78.0234375 210.51953125 C76.04732299 206.96360017 73.6580467 203.79980364 71.125 200.625 C67.80646217 196.3869832 64.66632456 192.12027222 61.73046875 187.60546875 C55.18898585 177.75632859 48.17171151 168.20851971 41.25 158.625 C40.70698242 157.8729126 40.16396484 157.1208252 39.60449219 156.34594727 C37.22008791 153.04902463 34.82813543 149.75880654 32.40234375 146.4921875 C31.30599609 145.01105469 31.30599609 145.01105469 30.1875 143.5 C29.56230469 142.6646875 28.93710938 141.829375 28.29296875 140.96875 C27 139 27 139 27 137 C26.34 137 25.68 137 25 137 C22.82458359 134.0269309 21.02378217 131.04331752 19.25 127.8125 C16.83709805 123.51124 13.88787508 119.61479231 10.95703125 115.65625 C9.34179958 113.46391959 7.78746101 111.24669225 6.25 109 C4.31996392 105.9675161 4.31996392 105.9675161 1.88775635 104.92472839 C-0.8305645 102.15316875 -0.47382652 99.86783071 -0.49768066 96.09022522 C-0.48329956 95.13788498 -0.46891846 94.18554474 -0.45410156 93.2043457 C-0.45468567 92.19928986 -0.45526978 91.19423401 -0.45587158 90.15872192 C-0.45308088 86.83072587 -0.42194146 83.50362118 -0.390625 80.17578125 C-0.38316614 77.87078847 -0.37747154 75.56578935 -0.37347412 73.26078796 C-0.35818995 67.18938742 -0.31888374 61.11836867 -0.2746582 55.04711914 C-0.23376573 48.85373093 -0.21547596 42.66028112 -0.1953125 36.46679688 C-0.15239253 24.31103002 -0.08410724 12.15554674 0 0 Z " fill="#F7C7B1" transform="translate(1368,805)"/>
<path d="M0 0 C0 28.38 0 56.76 0 86 C0.66 86 1.32 86 2 86 C2 85.34 2 84.68 2 84 C3.57041813 82.68208047 5.21191505 81.4488634 6.875 80.25 C7.98305933 79.440563 9.08974354 78.62924142 10.1953125 77.81640625 C10.80407227 77.3692627 11.41283203 76.92211914 12.04003906 76.46142578 C15.65710294 73.76439733 19.19792888 70.9692012 22.75 68.1875 C29.21734543 63.13609837 35.73735856 58.16475117 42.3137207 53.25634766 C47.44235012 49.4266473 52.52315278 45.54036657 57.58984375 41.62890625 C61.54954635 38.57239687 65.52511098 35.53671646 69.5 32.5 C74.48229492 28.6915673 79.46379894 24.88215189 84.4375 21.0625 C85.45714844 20.28003906 86.47679687 19.49757813 87.52734375 18.69140625 C90.24476348 16.59529594 92.93834607 14.47030358 95.62890625 12.33984375 C96.43465088 11.7048999 97.24039551 11.06995605 98.07055664 10.41577148 C99.65830204 9.16373268 101.24230089 7.90692414 102.82202148 6.64477539 C103.55106689 6.07106201 104.2801123 5.49734863 105.03125 4.90625 C105.99901367 4.13764648 105.99901367 4.13764648 106.98632812 3.35351562 C109.22927234 1.84589163 111.46600406 0.92085369 114 0 C113.62504017 14.00251934 113.62504017 14.00251934 113.41259766 20.59130859 C113.37516449 21.75241653 113.37516449 21.75241653 113.3369751 22.9369812 C113.28686971 24.48738329 113.23653665 26.03777804 113.18597412 27.58816528 C113.05556817 31.72131872 112.97252845 35.84883537 112.95703125 39.984375 C112.81905365 51.97402857 112.81905365 51.97402857 108.875 56.4375 C108.23949219 57.00984375 107.60398437 57.5821875 106.94921875 58.171875 C104.67450016 60.30527841 103.29328589 62.51754721 101.6875 65.1875 C99.0989792 69.38447805 96.29720608 73.31608367 93.25 77.1875 C88.91758183 82.702167 84.91226539 88.39274171 80.97021484 94.19140625 C77.72225697 98.96598498 74.37122566 103.64995693 70.953125 108.3046875 C68.01805012 112.35509083 65.19678411 116.4824272 62.359375 120.6015625 C59.48169483 124.76331676 56.53312007 128.87366881 53.5859375 132.98632812 C50.68116834 137.04127762 47.80865606 141.11721691 44.953125 145.20703125 C38.20587682 154.85559614 31.40686591 164.46494914 24.5 174 C16.41147306 185.16958477 8.48051937 196.44693099 0.58276367 207.75195312 C-4.25357739 214.6737126 -9.10185176 221.5796452 -14.09375 228.390625 C-22.20337685 239.49150765 -30.08057228 250.76324546 -38 262 C-45.2998313 272.35761868 -52.62392528 282.69650568 -60 293 C-60.52754883 294.2058374 -61.05509766 295.4116748 -61.59863281 296.65405273 C-63.66732992 299.51149432 -64.78520135 299.96020212 -68.3106842 300.61340332 C-72.76544452 300.90807012 -77.21598775 300.78678265 -81.67578125 300.68359375 C-83.32771201 300.6705311 -84.97966996 300.66057007 -86.63163757 300.65357971 C-90.97082955 300.62690566 -95.30837025 300.55819174 -99.64691162 300.48065186 C-104.07753155 300.4089268 -108.50841945 300.37704861 -112.93945312 300.34179688 C-121.62705825 300.2668176 -130.31332348 300.14741473 -139 300 C-139.2101501 271.54973788 -139.36890485 243.09959191 -139.46630955 214.64871025 C-139.5127365 201.43872015 -139.57604321 188.22921202 -139.67895508 175.01953125 C-139.76860031 163.507267 -139.82670984 151.99535173 -139.84679645 140.48274815 C-139.85854014 134.38548851 -139.88617807 128.28922735 -139.95157051 122.19228745 C-140.01261107 116.45467344 -140.03151428 110.71847007 -140.01796913 104.98056221 C-140.02044738 102.87377953 -140.03838115 100.76695023 -140.07284927 98.66044807 C-140.3201851 82.76645254 -140.3201851 82.76645254 -137.10346794 78.46237564 C-134.73744551 76.8181776 -132.73456495 75.87771047 -130 75 C-126.71927445 73.72599988 -123.98147321 72.44874486 -121.10546875 70.41796875 C-115.3256079 66.47655608 -109.30011014 62.97112808 -103.26049805 59.44897461 C-101.30374474 58.30739212 -99.34996761 57.16083933 -97.39648438 56.01367188 C-87.79029337 50.39176081 -87.79029337 50.39176081 -83.72338867 48.37573242 C-80.96896365 47.11096363 -80.96896365 47.11096363 -78.8125 45.1875 C-76.28716928 43.22335388 -73.94805225 41.84063644 -71.1328125 40.3515625 C-63.4843248 36.22714993 -56.10768441 31.66726151 -48.70117188 27.12695312 C-47.63576172 26.48048828 -46.57035156 25.83402344 -45.47265625 25.16796875 C-44.51625244 24.58297607 -43.55984863 23.9979834 -42.57446289 23.39526367 C-40.29811714 22.16156847 -38.48314055 21.58767089 -36 21 C-35.401875 20.38125 -34.80375 19.7625 -34.1875 19.125 C-31.41483369 16.43155272 -28.55823501 15.47237311 -25 14 C-22.99080129 12.68056894 -20.99224887 11.34488743 -19 10 C-16.43474423 8.40709704 -13.8434852 6.85891013 -11.25 5.3125 C-10.24259766 4.70825195 -10.24259766 4.70825195 -9.21484375 4.09179688 C-2.3746205 0 -2.3746205 0 0 0 Z " fill="#FDEC92" transform="translate(1791,882)"/>
<path d="M0 0 C-1.62804711 3.69610695 -3.93483018 6.59463389 -6.4375 9.75 C-10.81649869 15.34333612 -14.89003221 21.0992308 -18.88354492 26.97216797 C-22.35850846 32.08056694 -25.9149112 37.12295621 -29.51831055 42.14135742 C-31.80644354 45.32854606 -34.07436601 48.52752698 -36.3125 51.75 C-39.55014072 56.39365841 -42.86712983 60.97789454 -46.1875 65.5625 C-52.02691423 73.62816995 -57.78825985 81.74596595 -63.51611328 89.89111328 C-66.00648791 93.43041174 -68.50362997 96.96492913 -71 100.5 C-72.00262338 101.92055936 -73.00522756 103.34113226 -74.0078125 104.76171875 C-75.98069912 107.55674843 -77.95473097 110.35096382 -79.9296875 113.14453125 C-80.91153088 114.5338029 -81.89330129 115.92312612 -82.875 117.3125 C-83.61085327 118.35386108 -83.61085327 118.35386108 -84.36157227 119.41625977 C-87.0546631 123.23136289 -89.73803051 127.05299187 -92.41015625 130.8828125 C-98.19466859 139.17316948 -104.00654383 147.43852495 -109.9375 155.625 C-115.08889276 162.73104449 -115.08889276 162.73104449 -120.1875 169.875 C-120.69667969 170.59429688 -121.20585938 171.31359375 -121.73046875 172.0546875 C-122.98621047 173.97887019 -124.01812827 175.92457444 -125 178 C-125.66 178 -126.32 178 -127 178 C-126.86027432 173.81227299 -126.71212919 169.62488393 -126.5625 165.4375 C-126.52318359 164.25607422 -126.48386719 163.07464844 -126.44335938 161.85742188 C-126.23575347 156.15624439 -125.84915704 150.64439682 -125 145 C-124.59323472 140.35798128 -124.26654698 135.71059324 -123.9375 131.0625 C-123.84662109 129.80630859 -123.75574219 128.55011719 -123.66210938 127.25585938 C-123.43922878 124.17072278 -123.2185933 121.08544283 -123 118 C-130.95819288 123.54253187 -138.69229315 129.26782524 -146.22607422 135.37573242 C-152.82109511 140.70537972 -159.59978889 145.78311747 -166.41943359 150.82080078 C-167.73978365 151.80586268 -169.03874362 152.8195113 -170.33203125 153.83984375 C-172 155 -172 155 -174 155 C-174 155.66 -174 156.32 -174 157 C-175.45849609 158.29003906 -175.45849609 158.29003906 -177.5234375 159.765625 C-178.67017944 160.59513672 -178.67017944 160.59513672 -179.84008789 161.44140625 C-181.09486938 162.33666016 -181.09486938 162.33666016 -182.375 163.25 C-184.13294285 164.52406755 -185.8894193 165.80016051 -187.64453125 167.078125 C-188.54123535 167.73103516 -189.43793945 168.38394531 -190.36181641 169.05664062 C-194.31595582 171.96936964 -198.19498895 174.97362539 -202.0625 178 C-203.15739746 178.85609863 -203.15739746 178.85609863 -204.27441406 179.72949219 C-205.75754826 180.89057439 -207.24013174 182.0523604 -208.72216797 183.21484375 C-212.68281534 186.31883663 -216.65403329 189.40922786 -220.625 192.5 C-221.34695557 193.06332031 -222.06891113 193.62664062 -222.81274414 194.20703125 C-224.87097076 195.81018581 -226.93468194 197.40599559 -229 199 C-230.10359863 199.86044922 -230.10359863 199.86044922 -231.22949219 200.73828125 C-231.94524414 201.28871094 -232.66099609 201.83914063 -233.3984375 202.40625 C-234.36402588 203.15358398 -234.36402588 203.15358398 -235.34912109 203.91601562 C-237 205 -237 205 -239 205 C-239.0927806 197.00261737 -239.16380514 189.00546052 -239.20724869 181.00767231 C-239.22810212 177.29373951 -239.25637755 173.58017559 -239.30175781 169.86645508 C-239.34529746 166.28082352 -239.369154 162.6955462 -239.37950897 159.10967064 C-239.38688594 157.74332288 -239.40129181 156.37699398 -239.42292023 155.0107975 C-239.45205572 153.09373595 -239.45363476 151.17631609 -239.45410156 149.2590332 C-239.46298401 148.16871292 -239.47186646 147.07839264 -239.48101807 145.95503235 C-238.88150319 142.27204001 -237.58671951 140.64344453 -235 138 C-233.01679982 136.96708324 -231.01652194 135.9662501 -229 135 C-228.01 134.01 -228.01 134.01 -227 133 C-224.56847614 130.56847614 -222.08448237 129.51631042 -219 128 C-217.05164336 126.86435796 -215.11571078 125.70718728 -213.19140625 124.53125 C-212.11439453 123.87769531 -211.03738281 123.22414063 -209.92773438 122.55078125 C-207.68709255 121.18532918 -205.44750517 119.81814527 -203.20898438 118.44921875 C-197.89872252 115.23068586 -192.75930443 112.31329402 -187 110 C-185.98131338 109.01904252 -184.97648017 108.02297922 -184 107 C-182.67139075 106.64830932 -181.33841672 106.31229724 -180 106 C-179.67 105.34 -179.34 104.68 -179 104 C-177.34878848 103.32603612 -175.69660419 102.65433561 -174.0390625 101.99609375 C-170.97938219 100.50142233 -168.49601056 98.38464427 -165.89453125 96.20703125 C-164 95 -164 95 -160 95 C-159.505 93.515 -159.505 93.515 -159 92 C-157.35700072 91.27696778 -155.68549105 90.61752905 -154 90 C-152.47397326 89.06191165 -150.97307559 88.08172307 -149.5 87.0625 C-148.72269531 86.53398438 -147.94539063 86.00546875 -147.14453125 85.4609375 C-146.43683594 84.97882813 -145.72914062 84.49671875 -145 84 C-141.91240485 82.01021646 -139.52458479 80.8811462 -136 80 C-135.67 79.34 -135.34 78.68 -135 78 C-132.6859378 77.26924352 -130.35171131 76.59861742 -128 76 C-128 75.34 -128 74.68 -128 74 C-127.22076172 73.63648438 -127.22076172 73.63648438 -126.42578125 73.265625 C-123.26782288 71.74793706 -120.41909191 70.33980425 -117.6875 68.125 C-112.61847868 64.11693663 -106.68680022 61.2896641 -100.875 58.5 C-98.46441328 57.24230258 -96.35102137 55.91899128 -94.11328125 54.390625 C-88.2943601 50.48625592 -82.31496952 46.86355054 -76.3125 43.25 C-75.21099609 42.57839844 -74.10949219 41.90679688 -72.97460938 41.21484375 C-71.90662109 40.57160156 -70.83863281 39.92835938 -69.73828125 39.265625 C-68.77962158 38.68586914 -67.82096191 38.10611328 -66.83325195 37.50878906 C-64 36 -64 36 -60.76635742 34.98339844 C-57.70521555 34.20586283 -57.70521555 34.20586283 -56 31 C-54.1015625 29.81640625 -54.1015625 29.81640625 -51.625 28.5625 C-44.96716352 25.06581134 -38.57575243 21.16421891 -32.17041016 17.22680664 C-27.53829067 14.40924324 -23.02283358 12.03378538 -18 10 C-13.04944928 7.54397251 -8.72080048 5.16729654 -5 1 C-3 0 -3 0 0 0 Z " fill="#FBD58A" transform="translate(2045,732)"/>
<path d="M0 0 C0.05175038 10.72701165 -0.08551004 21.43364682 -0.40234375 32.15625 C-0.44487945 33.63879134 -0.48732228 35.12133535 -0.52967834 36.60388184 C-0.61803954 39.6760744 -0.70819434 42.7482079 -0.79956055 45.8203125 C-0.91582842 49.73797648 -1.02641594 53.65577862 -1.13556576 57.57364655 C-1.22127619 60.62105232 -1.31052126 63.66834717 -1.40075874 66.71562195 C-1.44302276 68.16033966 -1.48408948 69.60509297 -1.5238781 71.04988098 C-1.71965714 78.10569253 -2.03535123 85.00959353 -3 92 C-3.23955308 95.01946675 -3.39273355 98.04095896 -3.53515625 101.06640625 C-3.5977639 102.35883995 -3.5977639 102.35883995 -3.66163635 103.67738342 C-4.09071782 113.09420903 -4.23900176 122.51406609 -4.38842773 131.93865967 C-4.65984307 148.52503982 -5.22009231 164.99657964 -6.5234375 181.53515625 C-7.34030696 192.00550073 -7.6564576 202.50519855 -8 213 C-8.99 213 -9.98 213 -11 213 C-11 212.34 -11 211.68 -11 211 C-13.87628143 209.49904394 -16.77166161 208.31284964 -19.8125 207.1875 C-23.77190287 205.6326396 -26.80397292 203.81331313 -30.14453125 201.2265625 C-33.09952477 199.27315626 -36.34425339 198.17511611 -39.66796875 196.9921875 C-42 196 -42 196 -43.97265625 194.51953125 C-46.29617666 192.77801017 -48.54186765 191.84586629 -51.25 190.8125 C-52.58804687 190.29623047 -52.58804687 190.29623047 -53.953125 189.76953125 C-54.62859375 189.51558594 -55.3040625 189.26164063 -56 189 C-56 188.34 -56 187.68 -56 187 C-56.50015625 186.75121094 -57.0003125 186.50242187 -57.515625 186.24609375 C-59.5510374 185.22518722 -61.58086722 184.19465369 -63.609375 183.16015625 C-64.98952702 182.46082635 -66.36973703 181.76161089 -67.75 181.0625 C-68.42804688 180.71509766 -69.10609375 180.36769531 -69.8046875 180.00976562 C-74.44357841 177.66827221 -79.10638834 175.75006964 -84 174 C-84 173.34 -84 172.68 -84 172 C-85.4540625 171.814375 -85.4540625 171.814375 -86.9375 171.625 C-87.948125 171.41875 -88.95875 171.2125 -90 171 C-90.33 170.34 -90.66 169.68 -91 169 C-93.02463255 168.34786708 -93.02463255 168.34786708 -95 168 C-95 167.34 -95 166.68 -95 166 C-96.32 165.67 -97.64 165.34 -99 165 C-97.67020806 160.34572822 -95.69021464 156.99456113 -93 153 C-91.89714683 150.69657248 -90.94935789 148.37339472 -90 146 C-89.34 146 -88.68 146 -88 146 C-87.71125 144.906875 -87.4225 143.81375 -87.125 142.6875 C-86 139 -86 139 -84 136 C-83.34 136 -82.68 136 -82 136 C-81.74855225 134.98180176 -81.49710449 133.96360352 -81.23803711 132.91455078 C-80.11782111 129.00957378 -78.33184314 125.83058768 -76.19140625 122.3671875 C-75.8240184 121.76746124 -75.45663055 121.16773499 -75.07810974 120.54983521 C-73.91395854 118.6533393 -72.73855563 116.76413148 -71.5625 114.875 C-70.77722644 113.6007336 -69.99271446 112.32599754 -69.20898438 111.05078125 C-67.76714013 108.70647783 -66.32016235 106.36567236 -64.86938477 104.02685547 C-63.67432538 102.09184877 -62.5075959 100.13886746 -61.37866211 98.16455078 C-60 96 -60 96 -58 95 C-57.24498897 93.29301854 -56.49453242 91.58351376 -55.7890625 89.85546875 C-54.74428991 87.39870151 -53.52607766 85.18958969 -52 83 C-51.34 83 -50.68 83 -50 83 C-49.81824219 82.36191406 -49.63648438 81.72382813 -49.44921875 81.06640625 C-49.19785156 80.24011719 -48.94648437 79.41382813 -48.6875 78.5625 C-48.44386719 77.73878906 -48.20023438 76.91507812 -47.94921875 76.06640625 C-47.63597656 75.38449219 -47.32273437 74.70257813 -47 74 C-46.01 73.67 -45.02 73.34 -44 73 C-43.3018345 71.34628081 -42.64511981 69.67512467 -42 68 C-39.81380519 64.18378886 -37.42287327 60.48848248 -35.07617188 56.76953125 C-32.27925689 52.27785941 -29.97115843 47.90941646 -28 43 C-26.4375 40.0625 -26.4375 40.0625 -25 38 C-24.34 38 -23.68 38 -23 38 C-22.773125 37.01 -22.54625 36.02 -22.3125 35 C-20.88009566 29.9661219 -18.22113726 25.14339745 -14.4375 21.4921875 C-12.1404591 19.10775918 -11.28544519 16.01800176 -10 13 C-9.34 12.67 -8.68 12.34 -8 12 C-6.95281202 9.68745988 -5.95653635 7.3514852 -5 5 C-2.76315789 0 -2.76315789 0 0 0 Z " fill="#FAD58A" transform="translate(1385,363)"/>
<path d="M0 0 C0.33 0 0.66 0 1 0 C1.05105106 13.94024394 0.91880932 27.86437217 0.59765625 41.80078125 C0.55512299 43.70216172 0.5126801 45.60354422 0.47032166 47.50492859 C0.38200952 51.44172038 0.29184506 55.37846442 0.20043945 59.31518555 C0.08394975 64.3436406 -0.02654862 69.37220838 -0.13556576 74.40083027 C-0.2211105 78.30690594 -0.31040314 82.21288936 -0.40075874 86.11885643 C-0.44311062 87.97386971 -0.48417365 89.82891292 -0.5238781 91.68398476 C-0.57964167 94.26900379 -0.64062463 96.85385095 -0.70288086 99.4387207 C-0.71798706 100.1904808 -0.73309326 100.94224091 -0.74865723 101.71678162 C-0.8379839 105.21408773 -1.04233063 108.63507474 -1.50099182 112.10461426 C-1.96501478 115.72689642 -2.18427691 119.239274 -2.28125 122.88745117 C-2.31798828 124.19207809 -2.35472656 125.49670502 -2.39257812 126.84086609 C-2.41006104 127.52564215 -2.42754395 128.21041821 -2.44555664 128.91594505 C-2.50098358 131.08139599 -2.56139388 133.24665943 -2.62304688 135.41194153 C-2.77504081 140.78377826 -2.91903931 146.15582264 -3.0625 151.52789307 C-3.18436837 156.08308056 -3.30966628 160.63814746 -3.43969727 165.19310951 C-3.49902912 167.3206546 -3.55330774 169.44829028 -3.60742188 171.57597351 C-3.64416016 172.87114395 -3.68089844 174.16631439 -3.71875 175.50073242 C-3.74904297 176.63798264 -3.77933594 177.77523285 -3.81054688 178.94694519 C-3.98305061 181.72685899 -4.37560072 184.28999734 -5 187 C-6.32 187 -7.64 187 -9 187 C-9 186.34 -9 185.68 -9 185 C-9.8353125 184.8453125 -9.8353125 184.8453125 -10.6875 184.6875 C-13.44998593 183.8662204 -15.54311148 182.49810275 -18 181 C-18.845625 180.67 -19.69125 180.34 -20.5625 180 C-23 179 -23 179 -24.875 177.5625 C-27.70433164 175.48210909 -30.76969709 174.36012754 -34 173 C-36.5 171.5 -36.5 171.5 -39 170 C-41.31183371 168.93859207 -43.64689237 167.96892667 -46 167 C-46 166.34 -46 165.68 -46 165 C-47.98 164.67 -49.96 164.34 -52 164 C-52 163.34 -52 162.68 -52 162 C-52.62648438 161.79503906 -53.25296875 161.59007812 -53.8984375 161.37890625 C-54.71570312 161.10949219 -55.53296875 160.84007812 -56.375 160.5625 C-57.18710938 160.29566406 -57.99921875 160.02882813 -58.8359375 159.75390625 C-61 159 -61 159 -63 158 C-63 157.34 -63 156.68 -63 156 C-64.36125 155.8453125 -64.36125 155.8453125 -65.75 155.6875 C-69.1654982 154.96499076 -70.32438645 154.10805916 -73 152 C-74.69984492 151.26233145 -76.40084538 150.52654993 -78.1171875 149.828125 C-81.22303352 148.46206824 -84.08210401 146.72691803 -87 145 C-87 144.01 -87 143.02 -87 142 C-86.34 142 -85.68 142 -85 142 C-84.6596875 141.01 -84.6596875 141.01 -84.3125 140 C-83.20960056 137.479087 -82.04554294 135.42103636 -80.5625 133.125 C-78.25420201 129.53279662 -76.57009781 125.96656288 -75 122 C-74.34 122 -73.68 122 -73 122 C-72.6596875 121.01 -72.6596875 121.01 -72.3125 120 C-71.20960056 117.479087 -70.04554294 115.42103636 -68.5625 113.125 C-66.89383746 110.53637102 -65.51763202 108.04710288 -64.375 105.1875 C-63.05914289 102.13710396 -62.24173853 101.23627088 -60 99 C-57.08122657 94.65224374 -54.50281407 90.21513401 -52.5 85.375 C-51.24152018 82.54342041 -50.17280519 80.80010316 -48.296875 78.42578125 C-44.74234774 73.76635275 -41.7387468 68.84756213 -38.75 63.8125 C-38.22148438 62.93658203 -37.69296875 62.06066406 -37.1484375 61.15820312 C-34.76221288 57.16400228 -32.69081801 53.34103773 -31 49 C-29.5 46.1875 -29.5 46.1875 -28 44 C-27.34 44 -26.68 44 -26 44 C-25.79375 43.195625 -25.5875 42.39125 -25.375 41.5625 C-23.8846621 37.70116997 -21.90710461 34.7903922 -19.56640625 31.40625 C-18.04975772 29.07643581 -16.82474323 26.75522654 -15.625 24.25 C-13.56077552 19.98707387 -11.26444863 15.92297638 -8.8125 11.875 C-7.80123047 10.20050781 -7.80123047 10.20050781 -6.76953125 8.4921875 C-6.18558594 7.66976562 -5.60164063 6.84734375 -5 6 C-4.34 6 -3.68 6 -3 6 C-3 5.34 -3 4.68 -3 4 C-2.34 4 -1.68 4 -1 4 C-0.67 2.68 -0.34 1.36 0 0 Z " fill="#FAD58A" transform="translate(1508,158)"/>
<path d="M0 0 C3.37014942 1.269128 6.37909619 2.71837253 9.44140625 4.609375 C10.26705078 5.11404297 11.09269531 5.61871094 11.94335938 6.13867188 C12.80767578 6.67041016 13.67199219 7.20214844 14.5625 7.75 C21.14243118 11.76285143 27.66316521 15.53329585 34.6875 18.71875 C37.27786502 20.15395224 38.923647 21.90333043 41 24 C43.34907722 25.46665443 43.34907722 25.46665443 45.9375 26.75 C51.53204266 29.69014271 56.82835163 32.96705299 62.15234375 36.36328125 C64.54827513 37.74036664 66.30693898 38.55223805 69 39 C69 39.66 69 40.32 69 41 C69.639375 41.22429688 70.27875 41.44859375 70.9375 41.6796875 C75.15794283 43.49921515 79.03773146 45.80469555 83 48.125 C83.77472656 48.57359375 84.54945312 49.0221875 85.34765625 49.484375 C86.9462797 50.4149558 88.53187898 51.36828731 90.10334778 52.34402466 C93.00337483 54.0851159 93.00337483 54.0851159 96.31181335 55.35787964 C105.02230001 59.40945764 105.02230001 59.40945764 106.72461319 63.91995621 C107.86476961 69.82768099 107.48939541 75.83278933 107.26953125 81.8125 C107.24526091 83.75156473 107.22676705 85.69070961 107.21379089 87.62988281 C107.16433137 92.71526184 107.03681884 97.79575381 106.89263916 102.87921143 C106.7592479 108.07374955 106.70019518 113.26908383 106.63476562 118.46484375 C106.49566265 128.6453677 106.27403108 138.82227636 106 149 C105.34 149 104.68 149 104 149 C102.51171875 147.0078125 102.51171875 147.0078125 100.6875 144.125 C97.18728308 138.73859024 93.53023567 133.50592355 89.75 128.3125 C85.45658689 122.40463446 81.19852465 116.47570742 77 110.5 C72.90415601 104.67106532 68.75153211 98.88726866 64.5625 93.125 C60.05895673 86.92471347 55.6789299 80.65284883 51.375 74.3125 C47.07271458 67.97512457 42.67224924 61.73534452 38.10864258 55.58374023 C33.99485758 50.03024332 30.0141328 44.38711022 26.05834961 38.72021484 C23.4820285 35.04252196 20.8066768 31.50688723 18 28 C16.77193798 26.20080869 15.56457849 24.38736402 14.375 22.5625 C10.78424648 17.10861965 7.0266955 11.79951769 3.14990234 6.54516602 C0 2.21605995 0 2.21605995 0 0 Z " fill="#FDEC92" transform="translate(1247,733)"/>
<path d="M0 0 C-1.98 0.99 -3.96 1.98 -6 3 C-6.33 148.2 -6.66 293.4 -7 443 C-6.34 443.33 -5.68 443.66 -5 444 C-6.32 444.33 -7.64 444.66 -9 445 C-9.13722557 388.75993855 -9.24300325 332.5198937 -9.30639198 276.27969785 C-9.31389654 269.64544933 -9.32166244 263.01120115 -9.32958984 256.37695312 C-9.3303744 255.71675569 -9.33115895 255.05655826 -9.33196728 254.37635484 C-9.35834343 232.30105596 -9.40609659 210.2258604 -9.46291678 188.15062085 C-9.51895485 166.19672663 -9.55233764 144.24288297 -9.56453097 122.28892016 C-9.57277846 108.73365512 -9.59886059 95.17866229 -9.6474988 81.62348101 C-9.67912688 72.33794278 -9.68882051 63.05254602 -9.68100826 53.76695779 C-9.67715152 48.40336958 -9.68321149 43.04025819 -9.71523285 37.676754 C-9.74430608 32.77143566 -9.74598802 27.86691739 -9.72539337 22.9615632 C-9.72284591 21.18221456 -9.73056404 19.40281717 -9.74929909 17.62356535 C-9.77321555 15.2130745 -9.76051119 12.80551037 -9.73828697 10.39506912 C-9.75404905 9.69645649 -9.76981114 8.99784386 -9.78605086 8.27806115 C-9.74519098 6.33091092 -9.74519098 6.33091092 -9 3 C-4.06786526 -1.35595509 -4.06786526 -1.35595509 0 0 Z " fill="#E9DA92" transform="translate(1661,419)"/>
<path d="M0 0 C0.33 0 0.66 0 1 0 C1.21640766 18.00992607 0.56749517 36.0016491 0 54 C-1.98 54.495 -1.98 54.495 -4 55 C-4 54.34 -4 53.68 -4 53 C-3.34 53 -2.68 53 -2 53 C-2.01160156 52.07123047 -2.02320313 51.14246094 -2.03515625 50.18554688 C-2.11049135 39.25657681 -1.63874893 28.40803127 -1 17.5 C-0.90323562 15.79038775 -0.8068794 14.08075235 -0.7109375 12.37109375 C-0.47864092 8.247115 -0.24089967 4.12348477 0 0 Z " fill="#DFC0A1" transform="translate(1392,546)"/>
<path d="M0 0 C0.33 0 0.66 0 1 0 C1 10.56 1 21.12 1 32 C-0.485 32.495 -0.485 32.495 -2 33 C-1.86027432 28.81227299 -1.71212919 24.62488393 -1.5625 20.4375 C-1.52318359 19.25607422 -1.48386719 18.07464844 -1.44335938 16.85742188 C-1.2362496 11.16986877 -0.98031568 5.61004186 0 0 Z " fill="#E5CA8C" transform="translate(1920,877)"/>
<path d="M0 0 C0 5.28 0 10.56 0 16 C-0.33 16 -0.66 16 -1 16 C-1.33 12.37 -1.66 8.74 -2 5 C-2.66 5 -3.32 5 -4 5 C-3.625 3.0625 -3.625 3.0625 -3 1 C-1 0 -1 0 0 0 Z " fill="#E0C98D" transform="translate(1385,363)"/>
</svg>
