<?xml version="1.0" encoding="UTF-8"?>
<svg id="Layer_1" xmlns="http://www.w3.org/2000/svg" viewBox="0 0 423.55 395.99">
  <defs>
    <style>
      .cls-1 {
        fill: #f6941d;
      }

      .cls-2 {
        fill: #231f20;
      }

      .cls-3 {
        fill: #fce039;
      }

      .cls-4 {
        fill: #e863a3;
      }
    </style>
  </defs>
  <path class="cls-2" d="M423.48,167.63c-.21-.65-.81-1.09-1.49-1.09h-118.21c-.28,0-.55.08-.79.22l-91.25,53.88-91.18-53.88c-.24-.14-.51-.22-.79-.22H1.56c-.68,0-1.28.44-1.49,1.09-.21.65.03,1.35.58,1.75l128.95,92-49.21,132.5c-.24.65-.03,1.38.53,1.79.28.21.61.31.94.31s.66-.1.93-.31l128.99-96,128.99,96c.56.41,1.32.41,1.87,0,.55-.41.77-1.14.53-1.79l-49.21-132.5,128.95-92c.55-.39.79-1.1.58-1.75Z"/>
  <g>
    <g>
      <polygon class="cls-4" points="186.42 46.61 184.48 95.63 184.48 95.64 184.38 98.09 182.21 96.93 182.21 96.93 175.23 93.21 162.44 86.4 159.87 90.66 157.74 144.59 157.73 144.59 157.64 147.04 155.47 145.89 155.47 145.89 147.7 141.75 133.61 134.25 123.07 151.73 210.24 203.27 210.24 110.34 210.24 108.08 210.24 7.08 186.42 46.61"/>
      <polygon class="cls-4" points="152.89 211.92 210.24 292.74 210.24 224.11 152.89 190.23 152.89 211.92"/>
    </g>
    <g>
      <polygon class="cls-3" points="149.81 207.58 149.81 188.41 126.39 174.57 149.81 207.58"/>
      <polygon class="cls-3" points="283.23 123.09 241.94 144.87 241.94 142.32 241.94 97.89 213.32 109.13 213.32 203.27 300.48 151.73 283.23 123.09"/>
      <polygon class="cls-3" points="242.72 222.13 242.72 206.74 213.32 224.11 213.32 292.74 266.31 218.05 267.02 206.63 242.72 225.25 242.72 222.13"/>
    </g>
    <g>
      <polygon class="cls-1" points="245.02 139.76 281.63 120.45 213.32 7.08 213.32 105.82 245.02 93.37 245.02 95.63 245.02 139.76"/>
      <polygon class="cls-1" points="211.78 1.54 211.78 1.54 211.78 1.54 211.78 1.54"/>
      <polygon class="cls-1" points="154.75 142.02 156.57 96.14 135.2 131.6 154.75 142.02"/>
      <polygon class="cls-1" points="181.5 93.06 183.12 52.09 164.03 83.76 181.5 93.06"/>
      <polygon class="cls-1" points="297.17 174.57 270.67 190.23 270.67 190.23 245.8 204.92 245.8 219.01 270.52 200.07 269.7 213.28 277.84 201.8 277.84 201.8 278.18 201.33 297.17 174.57"/>
      <polygon class="cls-1" points="269.81 188.95 269.81 188.95 269.81 188.95 269.81 188.95"/>
      <polygon class="cls-1" points="279.1 202.69 279.1 202.69 279.1 202.69 279.1 202.69"/>
    </g>
    <g>
      <path class="cls-2" d="M120.16,153.59l90.83,53.7s0,0,0,0c0,0,0,0,.01,0,.09.05.19.09.3.12.02,0,.04.02.07.03.13.04.27.05.4.05.05,0,.1-.01.15-.02.08,0,.17-.01.25-.03.06-.01.11-.04.16-.07.07-.03.14-.05.21-.08,0,0,0,0,0,0,0,0,0,0,.01,0l90.83-53.7c.54-.32.83-.93.74-1.55-.03-.23-.12-.44-.24-.63l-17.94-29.77h0S213.1.75,213.1.75h-.02c-.27-.43-.74-.75-1.3-.75s-1.01.27-1.28.69c-.02.03-.04.06-.06.09l-23.77,39.44h0s-26.96,44.73-26.96,44.73l-28.83,47.84h0s-11.21,18.6-11.21,18.6c-.14.21-.23.45-.26.71-.06.6.23,1.18.75,1.49ZM300.48,151.73l-87.17,51.54v-94.14l28.62-11.24v46.98l41.29-21.78,17.26,28.64ZM213.32,7.08l68.31,113.36-36.62,19.31v-46.39l-31.7,12.45V7.08ZM211.78,1.54h0s0,0,0,0h0ZM183.12,52.09l-1.62,40.97-17.47-9.3,19.09-31.67ZM156.57,96.14l-1.82,45.88-19.55-10.41,21.37-35.46ZM133.61,134.25l14.09,7.5,7.78,4.14s0,0,0,0l2.17,1.15.1-2.45s0,0,0,0l2.14-53.93,2.57-4.26,12.79,6.81,6.99,3.72s0,0,0,0l2.17,1.15.1-2.45s0,0,0,0l1.94-49.03,23.82-39.53v196.19l-87.17-51.54,10.54-17.49Z"/>
      <path class="cls-2" d="M303.74,168.52c-.49-.54-1.29-.65-1.92-.28l-17.94,10.6h0s-41.16,24.32-41.16,24.32h0s-30.94,18.28-30.94,18.28l-59.65-35.24-30.4-17.96c-.63-.37-1.43-.25-1.92.28-.49.53-.54,1.34-.12,1.93l30.4,42.84,60.43,85.16s0,0,0,0c.01.02.03.03.04.05.08.1.16.18.26.26.04.03.07.05.11.08.09.06.19.11.29.15.03,0,.05.03.07.04.02,0,.03,0,.05,0,.14.04.28.07.42.07s.29-.03.42-.07c.02,0,.03,0,.05,0,.03,0,.05-.03.07-.04.1-.04.2-.09.29-.15.04-.02.08-.05.11-.08.1-.07.18-.16.26-.26.01-.02.03-.03.04-.05,0,0,0,0,0,0l52.91-74.57.12-.17,3.01-4.24s0,0,0,0l11.28-15.89h0s23.51-33.13,23.51-33.13c.42-.59.37-1.4-.12-1.93ZM149.81,207.58l-23.42-33.01,23.42,13.84v19.17ZM152.89,211.92v-21.69l57.35,33.89v68.62s-57.35-80.82-57.35-80.82ZM269.81,188.95h0s0,0,0,0h0ZM266.31,218.05l-52.99,74.68v-68.62l29.4-17.37v18.51l24.31-18.62-.71,11.42ZM279.1,202.69h0s0,0,0,0h0ZM278.18,201.33l-.33.47h0s-8.15,11.48-8.15,11.48l.83-13.21-24.72,18.94v-14.09l24.87-14.7h0s26.5-15.66,26.5-15.66l-18.99,26.76Z"/>
    </g>
  </g>
</svg>