<?xml version="1.0" encoding="UTF-8"?>
<svg id="Layer_1" xmlns="http://www.w3.org/2000/svg" viewBox="0 0 402.4 430.45">
  <defs>
    <style>
      .cls-1 {
        fill: #f6941d;
      }

      .cls-2 {
        fill: #231f20;
      }

      .cls-3 {
        fill: #fce039;
      }

      .cls-4 {
        fill: #e863a3;
      }

      .cls-5 {
        fill: #ff5cb9;
      }
    </style>
  </defs>
  <g>
    <g>
      <path d="M73.24,91.66l-23.99-25.22,4.8-4.57,23.99,25.22-4.8,4.57ZM57.3,66.67l-3.94-4.14,11.16-10.62,3.95,4.15-11.16,10.61ZM67.13,77l-3.94-4.14,10.54-10.02,3.94,4.14-10.54,10.02ZM77.35,87.75l-3.94-4.14,11.44-10.88,3.94,4.15-11.44,10.88Z"/>
      <path d="M79,47.75l-3.26-4.99,22.5-14.73,3.26,4.99-22.5,14.73ZM103.21,66.38l-16.32-24.94,5.66-3.71,16.32,24.94-5.67,3.71Z"/>
      <path d="M125.26,52.89l-12.66-32.42,6.31-2.46,12.66,32.43-6.31,2.46ZM125.16,37.42l-2.17-5.55,17.28-6.74,2.17,5.55-17.28,6.74ZM146.54,44.58l-12.66-32.43,6.31-2.46,12.66,32.43-6.31,2.46Z"/>
      <path d="M160.92,39.67l6.73-36.16,10.95-1.59,17.09,32.69-6.89,1-14.59-28.38,2.56.69-5.9.86,2.3-1.39-5.56,31.31-6.7.98ZM167.8,29.32l1.3-5.97,13.97-2.03,2.9,5.36-18.17,2.64Z"/>
      <path d="M218.65,36.7c-3.14-.23-5.79-.98-7.97-2.25-2.17-1.27-3.9-2.85-5.18-4.73-1.28-1.88-2.18-3.89-2.69-6.03-.51-2.14-.7-4.18-.56-6.11l.08-1.04c.16-2.16.65-4.26,1.49-6.3.84-2.04,2.03-3.87,3.58-5.48,1.55-1.61,3.47-2.85,5.74-3.72,2.28-.87,4.92-1.2,7.94-.98,3.14.23,5.83.99,8.08,2.29,2.25,1.29,3.99,3.01,5.24,5.16,1.25,2.15,1.91,4.6,2,7.34l-6.8-.5c-.14-1.6-.6-2.98-1.39-4.14-.79-1.16-1.83-2.06-3.12-2.72-1.29-.65-2.78-1.04-4.46-1.16-1.71-.12-3.25.06-4.63.55-1.37.49-2.54,1.24-3.51,2.25-.97,1.01-1.74,2.23-2.3,3.66-.57,1.43-.91,3.03-1.04,4.8-.12,1.71,0,3.32.34,4.81.35,1.49.95,2.82,1.79,3.98.84,1.16,1.91,2.09,3.22,2.79,1.3.7,2.84,1.12,4.62,1.25,2.6.19,4.84-.29,6.73-1.45s3.1-2.87,3.65-5.16l6.8.5c-.5,2.45-1.5,4.65-3.02,6.62-1.51,1.96-3.5,3.47-5.97,4.54s-5.35,1.47-8.65,1.23Z"/>
      <path d="M258.78,44.53c-3-.94-5.42-2.27-7.24-4.01-1.83-1.73-3.15-3.66-3.97-5.78-.82-2.12-1.24-4.28-1.25-6.48-.01-2.2.27-4.23.85-6.08l.31-1c.64-2.06,1.6-3.99,2.88-5.79s2.86-3.31,4.73-4.52c1.88-1.21,4.02-1.98,6.44-2.31,2.42-.33,5.07-.04,7.95.86,3,.94,5.45,2.29,7.35,4.07,1.89,1.77,3.2,3.85,3.93,6.22.73,2.37.82,4.91.28,7.6l-6.51-2.03c.23-1.59.09-3.04-.42-4.35-.51-1.31-1.32-2.43-2.43-3.36-1.11-.93-2.47-1.64-4.08-2.14-1.64-.51-3.18-.68-4.63-.52-1.45.16-2.76.63-3.93,1.39-1.17.77-2.2,1.78-3.07,3.04-.87,1.26-1.58,2.74-2.11,4.44-.51,1.64-.76,3.23-.76,4.76,0,1.53.28,2.96.84,4.28s1.38,2.47,2.49,3.45c1.11.98,2.51,1.73,4.22,2.26,2.49.78,4.78.82,6.88.12,2.1-.69,3.67-2.09,4.73-4.19l6.51,2.03c-1.04,2.27-2.52,4.19-4.44,5.76-1.92,1.57-4.2,2.59-6.85,3.06-2.64.48-5.55.22-8.7-.76Z"/>
      <path d="M283.18,52.79l17.52-30.36,5.86,3.38-17.52,30.36-5.86-3.38ZM293.12,45.1l2.74-4.75,7.68,4.43c1.07.62,2.13.93,3.17.95,1.04.01,2.01-.25,2.91-.8.9-.54,1.64-1.33,2.23-2.35.6-1.05.92-2.1.94-3.15.02-1.05-.24-2.02-.76-2.92-.53-.89-1.33-1.65-2.41-2.27l-7.68-4.43,2.88-5,7.06,4.07c2.42,1.4,4.32,2.97,5.68,4.71,1.36,1.74,2.1,3.62,2.23,5.63.12,2.02-.45,4.12-1.72,6.33l-.38.66c-1.29,2.23-2.83,3.78-4.63,4.65-1.8.87-3.79,1.15-5.97.85-2.17-.3-4.47-1.15-6.9-2.55l-7.06-4.08ZM301.59,63.42l-1.67-18.47,6.57,3.79,1.96,18.64-6.86-3.96Z"/>
      <path d="M312.75,70.36l32.22-17.72,8.18,7.45-14.43,33.95-5.15-4.69,12.69-29.28,1.09,2.41-4.4-4.01,2.54.89-27.73,15.56-5-4.56ZM325.11,69.11l5.44-2.78,10.43,9.51-2.3,5.64-13.57-12.37Z"/>
    </g>
    <g>
      <path d="M44.74,364.13l23.99-25.22,4.8,4.57-23.99,25.22-4.8-4.57ZM48.85,368.04l3.94-4.15,11.44,10.88-3.94,4.14-11.44-10.88ZM59.07,357.29l3.94-4.15,10.54,10.02-3.94,4.15-10.54-10.02ZM68.9,346.96l3.94-4.15,11.16,10.61-3.95,4.15-11.16-10.61Z"/>
      <path d="M79.64,393.31l16.32-24.94,5.67,3.71-16.32,24.94-5.67-3.71ZM87.02,363.66l3.26-4.99,22.5,14.73-3.26,4.99-22.5-14.73Z"/>
      <path d="M108.09,410.1l12.66-32.43,6.31,2.46-12.66,32.42-6.31-2.46ZM118.5,398.65l2.17-5.55,17.28,6.74-2.17,5.55-17.28-6.74ZM129.37,418.4l12.66-32.42,6.31,2.46-12.66,32.43-6.31-2.46Z"/>
      <path d="M151.4,425.34l16.76-32.73,10.95,1.59,7.07,36.2-6.89-1-5.89-31.36,2.25,1.39-5.9-.86,2.61-.68-14.26,28.43-6.7-.98ZM160.94,417.39l2.95-5.35,13.97,2.03,1.25,5.97-18.17-2.64Z"/>
      <path d="M216.81,430.38c-3.14.23-5.87-.13-8.21-1.08-2.33-.94-4.27-2.25-5.81-3.93-1.54-1.67-2.72-3.53-3.54-5.58-.82-2.04-1.3-4.03-1.44-5.97l-.08-1.05c-.16-2.16.03-4.31.56-6.45.53-2.14,1.44-4.12,2.75-5.94,1.3-1.82,3.01-3.32,5.14-4.51,2.13-1.19,4.7-1.9,7.71-2.12,3.14-.23,5.91.13,8.33,1.09,2.41.96,4.39,2.41,5.93,4.35,1.54,1.94,2.56,4.27,3.04,6.97l-6.8.5c-.37-1.57-1.03-2.87-1.98-3.89s-2.11-1.77-3.49-2.23c-1.37-.46-2.9-.62-4.58-.5-1.71.12-3.21.53-4.5,1.21-1.29.68-2.34,1.6-3.15,2.74-.81,1.14-1.39,2.46-1.74,3.95-.36,1.49-.47,3.12-.34,4.9.12,1.71.47,3.28,1.03,4.71.57,1.42,1.35,2.65,2.35,3.68s2.2,1.79,3.59,2.3c1.39.5,2.98.69,4.75.56,2.6-.19,4.75-.99,6.45-2.41,1.7-1.41,2.65-3.29,2.87-5.64l6.8-.5c-.14,2.5-.81,4.83-2.02,6.98-1.21,2.16-2.96,3.95-5.25,5.36-2.29,1.41-5.08,2.24-8.38,2.48Z"/>
      <path d="M265.18,421c-3,.94-5.75,1.21-8.23.82-2.49-.39-4.67-1.22-6.55-2.5-1.88-1.28-3.45-2.82-4.72-4.62-1.26-1.8-2.18-3.63-2.76-5.48l-.31-1c-.64-2.06-.95-4.2-.92-6.41.03-2.21.47-4.34,1.32-6.41.86-2.06,2.18-3.92,3.99-5.56,1.8-1.64,4.14-2.92,7.03-3.82,3-.94,5.79-1.21,8.36-.83,2.57.38,4.82,1.34,6.77,2.88,1.95,1.54,3.46,3.57,4.55,6.1l-6.51,2.03c-.72-1.44-1.66-2.56-2.82-3.34-1.16-.79-2.46-1.25-3.9-1.38-1.44-.13-2.97.05-4.57.55-1.64.51-3.01,1.25-4.11,2.2-1.1.96-1.91,2.09-2.44,3.38-.53,1.3-.79,2.71-.8,4.24,0,1.53.26,3.15.79,4.85.51,1.64,1.21,3.09,2.08,4.35.87,1.26,1.92,2.27,3.12,3.05,1.21.77,2.54,1.25,4.01,1.42,1.47.17,3.05,0,4.75-.53,2.49-.78,4.4-2.05,5.73-3.81,1.33-1.76,1.83-3.81,1.5-6.14l6.51-2.03c.44,2.46.31,4.88-.38,7.26-.69,2.38-1.99,4.52-3.89,6.41-1.91,1.89-4.44,3.33-7.6,4.32Z"/>
      <path d="M296.06,407.92l-17.52-30.36,5.86-3.38,17.52,30.36-5.86,3.38ZM294.37,395.46l-2.74-4.75,7.68-4.43c1.07-.62,1.88-1.37,2.41-2.27.53-.89.79-1.87.76-2.92-.02-1.05-.32-2.09-.91-3.11-.6-1.05-1.36-1.84-2.26-2.38-.9-.54-1.87-.81-2.91-.8-1.04.01-2.1.33-3.17.95l-7.68,4.43-2.88-5,7.06-4.07c2.42-1.4,4.73-2.25,6.92-2.56,2.19-.31,4.19-.01,5.99.89,1.81.9,3.34,2.46,4.61,4.66l.38.66c1.29,2.23,1.85,4.35,1.7,6.34-.15,2-.9,3.86-2.25,5.59-1.35,1.73-3.24,3.3-5.66,4.7l-7.06,4.08ZM314.48,397.29l-16.83-7.8,6.57-3.79,17.12,7.63-6.86,3.96Z"/>
      <path d="M331.69,385.93l-14.68-33.72,8.17-7.45,32.47,17.5-5.15,4.69-27.98-15.34,2.5-.86-4.4,4.02,1.12-2.45,12.94,29.05-5,4.56ZM331.59,373.5l-2.27-5.67,10.43-9.51,5.4,2.82-13.57,12.37Z"/>
    </g>
  </g>
  <g>
    <path class="cls-5" d="M362.65,335.29l-6.04-4.5c25.03-33.6,38.26-73.56,38.26-115.57s-13.23-81.97-38.26-115.57l6.04-4.5c26,34.91,39.75,76.43,39.75,120.07s-13.74,85.16-39.75,120.07Z"/>
    <path class="cls-5" d="M39.75,335.29C13.74,300.38,0,258.86,0,215.22s13.74-85.16,39.75-120.07l6.04,4.5C20.76,133.25,7.53,173.22,7.53,215.22s13.23,81.97,38.26,115.57l-6.04,4.5Z"/>
  </g>
  <g>
    <g>
      <polygon class="cls-4" points="176.9 116.57 175.04 163.55 175.04 163.56 174.95 165.9 172.87 164.8 172.87 164.8 166.17 161.23 153.92 154.71 151.46 158.79 149.41 210.47 149.41 210.47 149.32 212.82 147.25 211.71 147.24 211.71 139.79 207.74 126.29 200.55 116.2 217.31 199.73 266.7 199.73 177.65 199.73 175.48 199.73 78.7 176.9 116.57"/>
      <polygon class="cls-4" points="144.77 274.98 199.72 352.43 199.73 286.67 144.77 254.2 144.77 274.98"/>
    </g>
    <g>
      <polygon class="cls-3" points="141.82 270.82 141.82 252.46 119.37 239.19 141.82 270.82"/>
      <polygon class="cls-3" points="269.67 189.87 230.1 210.74 230.1 208.29 230.1 165.71 202.68 176.49 202.68 266.7 286.21 217.31 269.67 189.87"/>
      <polygon class="cls-3" points="230.85 284.77 230.85 270.02 202.68 286.67 202.68 352.43 253.46 280.87 254.14 269.92 230.85 287.76 230.85 284.77"/>
    </g>
    <g>
      <polygon class="cls-1" points="233.05 205.84 268.14 187.33 202.68 78.7 202.68 173.32 233.05 161.38 233.05 163.55 233.05 205.84"/>
      <polygon class="cls-1" points="201.2 73.39 201.2 73.39 201.2 73.39 201.2 73.39"/>
      <polygon class="cls-1" points="146.56 208 148.3 164.04 127.82 198.02 146.56 208"/>
      <polygon class="cls-1" points="172.18 161.09 173.74 121.82 155.45 152.17 172.18 161.09"/>
      <polygon class="cls-1" points="283.03 239.19 257.64 254.2 257.64 254.2 233.8 268.28 233.8 281.78 257.49 263.63 256.7 276.29 264.51 265.29 264.51 265.29 264.83 264.84 283.03 239.19"/>
      <polygon class="cls-1" points="256.81 252.98 256.81 252.97 256.81 252.97 256.81 252.98"/>
      <polygon class="cls-1" points="265.71 266.15 265.71 266.15 265.71 266.14 265.71 266.15"/>
    </g>
    <g>
      <path class="cls-2" d="M113.41,219.09l87.04,51.46s0,0,0,0c0,0,0,0,.01,0,.09.05.19.08.28.12.02,0,.04.02.06.03.13.03.25.05.38.05.05,0,.09-.01.14-.02.08,0,.16-.01.24-.03.05-.01.1-.04.15-.06.07-.03.14-.05.2-.08,0,0,0,0,0,0,0,0,0,0,.01,0l87.04-51.46c.52-.31.79-.89.71-1.48-.03-.22-.11-.42-.23-.6l-17.19-28.52h0s-69.82-115.86-69.82-115.86h-.02c-.26-.42-.71-.72-1.24-.72s-.96.26-1.23.66c-.02.03-.04.06-.05.09l-22.78,37.8h0s-25.83,42.86-25.83,42.86l-27.63,45.85h0s-10.74,17.83-10.74,17.83c-.13.2-.22.43-.25.68-.06.57.22,1.13.72,1.43ZM286.21,217.31l-83.53,49.39v-90.21l27.42-10.77v45.02l39.57-20.87,16.54,27.45ZM202.68,78.7l65.46,108.63-35.09,18.51v-44.46l-30.38,11.93v-94.62ZM201.2,73.39h0s0,0,0,0h0ZM173.74,121.82l-1.55,39.26-16.74-8.91,18.29-30.35ZM148.3,164.04l-1.74,43.96-18.74-9.98,20.48-33.98ZM126.29,200.55l13.5,7.19,7.45,3.97s0,0,0,0l2.08,1.11.09-2.35s0,0,0,0l2.05-51.68,2.46-4.08,12.25,6.53,6.7,3.57s0,0,0,0l2.08,1.11.09-2.35s0,0,0,0l1.86-46.98,22.83-37.88v188l-83.53-49.39,10.1-16.76Z"/>
      <path class="cls-2" d="M289.32,233.4c-.47-.51-1.24-.63-1.84-.27l-17.2,10.16h0s-39.44,23.31-39.44,23.31h0s-29.65,17.52-29.65,17.52l-57.16-33.77-29.13-17.21c-.6-.35-1.37-.24-1.84.27-.47.51-.52,1.29-.12,1.85l29.13,41.06,57.91,81.61s0,0,0,0c.01.02.03.03.04.05.07.09.16.18.25.25.03.03.07.05.11.07.09.06.18.1.28.14.02,0,.04.03.07.04.01,0,.03,0,.04,0,.13.04.27.06.4.06s.27-.03.4-.06c.01,0,.03,0,.04,0,.03,0,.04-.03.07-.04.1-.04.19-.08.28-.14.04-.02.07-.05.11-.07.09-.07.18-.15.25-.25.01-.02.03-.03.04-.05,0,0,0,0,0,0l50.7-71.46.12-.16,2.88-4.06s0,0,0,0l10.81-15.23h0s22.53-31.75,22.53-31.75c.4-.57.35-1.34-.12-1.85ZM141.82,270.82l-22.44-31.63,22.44,13.26v18.37ZM144.77,274.98v-20.78l54.95,32.47v65.76s-54.95-77.45-54.95-77.45ZM256.81,252.97h0s0,0,0,0h0ZM253.46,280.87l-50.78,71.56v-65.76l28.17-16.65v17.73l23.29-17.84-.68,10.95ZM265.71,266.15h0s0,0,0,0h0ZM264.83,264.84l-.32.45h0s-7.81,11-7.81,11l.79-12.66-23.69,18.15v-13.5l23.83-14.08h0s25.39-15,25.39-15l-18.2,25.64Z"/>
    </g>
  </g>
</svg>