<!--?xml version="1.0" encoding="UTF-8"?-->
<svg id="Layer_1" data-name="Layer 1" xmlns="http://www.w3.org/2000/svg" viewBox="0 0 1280 1024" width="1280" height="1024">
  <defs>
    <style>
      .cls-1 {
        fill: #245ddd;
      }

      .cls-2, .cls-3 {
        fill: #fff;
      }

      .cls-3 {
        stroke: #000;
        stroke-miterlimit: 10;
        stroke-width: .25px;
      }
    </style>
  </defs>
  <path class="cls-2 svg-elem-1" d="M854.25,87.44v70.85c0-39.13-31.72-70.85-70.85-70.85h70.85Z"></path>
  <path class="cls-2 svg-elem-2" d="M995.94,87.44v141.69h-70.85c-39.12,0-70.84-31.72-70.84-70.84v-70.85h141.69Z"></path>
  <path class="cls-2 svg-elem-3" d="M995.94,158.29c0,39.12-31.72,70.84-70.85,70.84s-70.84-31.72-70.84-70.84,31.72-70.85,70.84-70.85,70.85,31.72,70.85,70.85Z"></path>
  <path class="cls-2 svg-elem-4" d="M429.18,87.44v70.85c0,39.12-31.72,70.84-70.84,70.84h-70.85V87.44h141.69Z"></path>
  <path class="cls-2 svg-elem-5" d="M429.18,158.29c0,39.12-31.72,70.84-70.84,70.84s-70.85-31.72-70.85-70.84,31.72-70.85,70.85-70.85,70.84,31.72,70.84,70.85Z"></path>
  <path class="cls-2 svg-elem-6" d="M500.03,87.44c-39.13,0-70.85,31.72-70.85,70.85v-70.85h70.85Z"></path>
  <path class="cls-2 svg-elem-7" d="M570.87,87.44v70.85c0-39.13-31.72-70.85-70.84-70.85h70.84Z"></path>
  <path class="cls-2 svg-elem-8" d="M570.87,158.29v70.84h-70.84c39.12,0,70.84-31.72,70.84-70.84Z"></path>
  <path class="cls-2 svg-elem-9" d="M641.72,229.13h-70.85v-70.84c0,39.12,31.72,70.84,70.85,70.84Z"></path>
  <path class="cls-2 svg-elem-10" d="M641.72,87.44c-39.13,0-70.85,31.72-70.85,70.85v-70.85h70.85Z"></path>
  <path class="cls-1 svg-elem-11" d="M995.94,299.98v141.69c0,39.12-31.72,70.84-70.85,70.84h-425.06c-39.13,0-70.85-31.72-70.85-70.84s31.72-70.85,70.85-70.85h283.37c39.13,0,70.85-31.72,70.85-70.84s-31.72-70.85-70.85-70.85h-141.68c-39.13,0-70.85-31.72-70.85-70.84s31.72-70.85,70.85-70.85h141.68c39.13,0,70.85,31.72,70.85,70.85s31.72,70.84,70.84,70.84,70.85,31.72,70.85,70.85Z"></path>
  <path class="cls-2 svg-elem-12" d="M995.94,441.67v70.84h-70.85c39.13,0,70.85-31.72,70.85-70.84Z"></path>
  <path class="cls-2 svg-elem-13" d="M358.34,370.82c-39.13,0-70.85,31.72-70.85,70.85v-70.85h70.85Z"></path>
  <path class="cls-2 svg-elem-14" d="M429.18,370.82v70.85c0-39.13-31.72-70.85-70.84-70.85h70.84Z"></path>
  <path class="cls-2 svg-elem-15" d="M500.03,512.51h-70.85v-70.84c0,39.12,31.72,70.84,70.85,70.84Z"></path>
  <path class="cls-2 svg-elem-16" d="M500.03,370.82c-39.13,0-70.85,31.72-70.85,70.85v-70.85h70.85Z"></path>
  <path class="cls-2 svg-elem-17" d="M854.25,299.98c0,39.12-31.72,70.84-70.85,70.84h-70.84v-141.69h70.84c39.13,0,70.85,31.72,70.85,70.85Z"></path>
  <path class="cls-2 svg-elem-18" d="M854.25,299.98c0,39.12-31.72,70.84-70.85,70.84s-70.84-31.72-70.84-70.84,31.72-70.85,70.84-70.85,70.85,31.72,70.85,70.85Z"></path>
  <path class="cls-2 svg-elem-19" d="M995.94,229.13v70.85c0-39.13-31.72-70.85-70.85-70.85h70.85Z"></path>
  <path class="cls-2 svg-elem-20" d="M358.34,370.82h-70.85v-70.84c0,39.12,31.72,70.84,70.85,70.84Z"></path>
  <path class="cls-2 svg-elem-21" d="M358.34,229.13c-39.13,0-70.85,31.72-70.85,70.85v-70.85h70.85Z"></path>
  <path class="cls-2 svg-elem-22" d="M429.18,299.98v70.84h-70.84c39.12,0,70.84-31.72,70.84-70.84Z"></path>
  <path class="cls-1 svg-elem-23" d="M570.87,158.29c0,39.12-31.72,70.84-70.84,70.84s-70.85,31.72-70.85,70.85-31.72,70.84-70.84,70.84-70.85-31.72-70.85-70.84,31.72-70.85,70.85-70.85,70.84-31.72,70.84-70.84,31.72-70.85,70.85-70.85,70.84,31.72,70.84,70.85Z"></path>
  <path class="cls-2 svg-elem-24" d="M570.87,229.13v141.69h-141.69v-70.84c0-39.13,31.72-70.85,70.85-70.85h70.84Z"></path>
  <path class="cls-2 svg-elem-25" d="M570.87,299.98c0,39.12-31.72,70.84-70.84,70.84s-70.85-31.72-70.85-70.84,31.72-70.85,70.85-70.85,70.84,31.72,70.84,70.85Z"></path>
  <rect class="cls-2 svg-elem-26" x="570.87" y="229.13" width="141.69" height="141.69"></rect>
  <circle class="cls-2 svg-elem-27" cx="641.72" cy="299.98" r="70.84"></circle>
  <path class="cls-2 svg-elem-28" d="M783.4,654.2h-70.84v-70.85c0,39.13,31.72,70.85,70.84,70.85Z"></path>
  <path class="cls-2 svg-elem-29" d="M783.4,512.51c-39.12,0-70.84,31.72-70.84,70.84v-70.84h70.84Z"></path>
  <path class="cls-2 svg-elem-30" d="M854.25,512.51v70.84c0-39.12-31.72-70.84-70.85-70.84h70.85Z"></path>
  <path class="cls-1 svg-elem-31" d="M925.09,654.2c-39.12,0-70.84,31.72-70.84,70.84,0-39.12-31.72-70.84-70.85-70.84s-70.84-31.72-70.84-70.85,31.72-70.84,70.84-70.84,70.85,31.72,70.85,70.84,31.72,70.85,70.84,70.85Z"></path>
  <path class="cls-2 svg-elem-32" d="M995.94,512.51v141.69h-70.85c-39.12,0-70.84-31.72-70.84-70.85v-70.84h141.69Z"></path>
  <path class="cls-2 svg-elem-33" d="M995.94,583.35c0,39.13-31.72,70.85-70.85,70.85s-70.84-31.72-70.84-70.85,31.72-70.84,70.84-70.84,70.85,31.72,70.85,70.84Z"></path>
  <rect class="cls-2 svg-elem-34" x="429.18" y="512.51" width="141.69" height="141.69"></rect>
  <circle class="cls-2 svg-elem-35" cx="500.03" cy="583.36" r="70.84"></circle>
  <rect class="cls-2 svg-elem-36" x="570.87" y="512.51" width="141.69" height="141.69"></rect>
  <circle class="cls-2 svg-elem-37" cx="641.72" cy="583.36" r="70.84"></circle>
  <path class="cls-3 svg-elem-38" d="M783.4,937.58h-70.84v-70.85c0,39.13,31.72,70.85,70.84,70.85Z"></path>
  <path class="cls-2 svg-elem-39" d="M783.4,795.89c-39.12,0-70.84,31.72-70.84,70.84v-70.84h70.84Z"></path>
  <path class="cls-1 svg-elem-40" d="M995.94,795.89v70.84c0-39.12-31.72-70.84-70.85-70.84h70.85Z"></path>
  <path class="cls-3 svg-elem-41" d="M995.94,866.73v70.85h-70.85c39.13,0,70.85-31.72,70.85-70.85Z"></path>
  <path class="cls-3 svg-elem-42" d="M358.34,937.58h-70.85v-70.85c0,39.13,31.72,70.85,70.85,70.85Z"></path>
  <path class="cls-3 svg-elem-43" d="M429.18,866.73v70.85h-70.84c39.12,0,70.84-31.72,70.84-70.85Z"></path>
  <path class="cls-1 svg-elem-44" d="M429.18,441.67v425.06c0,39.13-31.72,70.85-70.84,70.85s-70.85-31.72-70.85-70.85v-425.06c0-39.13,31.72-70.85,70.85-70.85s70.84,31.72,70.84,70.85Z"></path>
  <rect class="cls-2 svg-elem-45" x="429.18" y="795.89" width="141.69" height="141.69"></rect>
  <circle class="cls-2 svg-elem-46" cx="500.03" cy="866.74" r="70.84"></circle>
  <rect class="cls-2 svg-elem-47" x="570.87" y="795.89" width="141.69" height="141.69"></rect>
  <circle class="cls-2 svg-elem-48" cx="641.72" cy="866.74" r="70.84"></circle>
  <path class="cls-2 svg-elem-49" d="M854.25,725.04c0,39.13-31.72,70.85-70.85,70.85h-70.84v-141.69h70.84c39.13,0,70.85,31.72,70.85,70.84Z"></path>
  <path class="cls-2 svg-elem-50" d="M854.25,725.04c0,39.13-31.72,70.85-70.85,70.85s-70.84-31.72-70.84-70.85,31.72-70.84,70.84-70.84,70.85,31.72,70.85,70.84Z"></path>
  <path class="cls-2 svg-elem-51" d="M995.94,654.2v70.84c0-39.12-31.72-70.84-70.85-70.84h70.85Z"></path>
  <path class="cls-1 svg-elem-52" d="M995.94,725.04v70.85h-70.85c39.13,0,70.85-31.72,70.85-70.85Z"></path>
  <path class="cls-1 svg-elem-53" d="M995.94,866.73c0,39.13-31.72,70.85-70.85,70.85h-141.69c-39.12,0-70.84-31.72-70.84-70.85s31.72-70.84,70.84-70.84,70.85-31.72,70.85-70.85,31.72-70.84,70.84-70.84,70.85,31.72,70.85,70.84-31.72,70.85-70.85,70.85c39.13,0,70.85,31.72,70.85,70.84Z"></path>
  <rect class="cls-2 svg-elem-54" x="429.18" y="654.2" width="141.69" height="141.69"></rect>
  <circle class="cls-2 svg-elem-55" cx="500.03" cy="725.05" r="70.84"></circle>
  <rect class="cls-2 svg-elem-56" x="570.87" y="654.2" width="141.69" height="141.69"></rect>
  <circle class="cls-2 svg-elem-57" cx="641.72" cy="725.05" r="70.84"></circle>
</svg>